<mxfile host="Electron" modified="2024-07-14T15:20:36.388Z" agent="Mozilla/5.0 (Windows NT 10.0; Win64; x64) AppleWebKit/537.36 (KHTML, like Gecko) draw.io/24.2.5 Chrome/120.0.6099.109 Electron/28.1.0 Safari/537.36" etag="G1vrueCt4UjY_SHo1JVN" version="24.2.5" type="device">
  <diagram name="第 1 页" id="QaxQXMMB2viIyQJMlUey">
    <mxGraphModel dx="947" dy="551" grid="1" gridSize="10" guides="1" tooltips="1" connect="1" arrows="1" fold="1" page="1" pageScale="1" pageWidth="3300" pageHeight="4681" math="0" shadow="0">
      <root>
        <mxCell id="0" />
        <mxCell id="1" parent="0" />
        <mxCell id="5Cd2jNApZWjE8oHdZEPI-230" value="" style="shape=cylinder3;whiteSpace=wrap;html=1;boundedLbl=1;backgroundOutline=1;size=2.8571341378348905;fontFamily=Helvetica;fontSize=11;fontColor=default;labelBackgroundColor=default;rotation=-360;" vertex="1" parent="1">
          <mxGeometry x="1040" y="188" width="10" height="37.5" as="geometry" />
        </mxCell>
        <mxCell id="5Cd2jNApZWjE8oHdZEPI-231" value="" style="shape=cylinder3;whiteSpace=wrap;html=1;boundedLbl=1;backgroundOutline=1;size=2.8571341378348905;fontFamily=Helvetica;fontSize=11;fontColor=default;labelBackgroundColor=default;rotation=-360;" vertex="1" parent="1">
          <mxGeometry x="1020" y="188" width="10" height="37.5" as="geometry" />
        </mxCell>
        <mxCell id="5Cd2jNApZWjE8oHdZEPI-232" value="" style="shape=cylinder3;whiteSpace=wrap;html=1;boundedLbl=1;backgroundOutline=1;size=2.8571341378348905;fontFamily=Helvetica;fontSize=11;fontColor=default;labelBackgroundColor=default;rotation=-360;" vertex="1" parent="1">
          <mxGeometry x="1000" y="188" width="10" height="37.5" as="geometry" />
        </mxCell>
        <mxCell id="5Cd2jNApZWjE8oHdZEPI-233" value="" style="shape=cylinder3;whiteSpace=wrap;html=1;boundedLbl=1;backgroundOutline=1;size=2.8571341378348905;fontFamily=Helvetica;fontSize=11;fontColor=default;labelBackgroundColor=default;rotation=-360;" vertex="1" parent="1">
          <mxGeometry x="980" y="188" width="10" height="37.5" as="geometry" />
        </mxCell>
        <mxCell id="5Cd2jNApZWjE8oHdZEPI-243" value="" style="shape=cylinder3;whiteSpace=wrap;html=1;boundedLbl=1;backgroundOutline=1;size=2.8571341378348905;fontFamily=Helvetica;fontSize=11;fontColor=default;labelBackgroundColor=default;rotation=-360;" vertex="1" parent="1">
          <mxGeometry x="1035" y="197" width="10" height="37.5" as="geometry" />
        </mxCell>
        <mxCell id="5Cd2jNApZWjE8oHdZEPI-244" value="" style="shape=cylinder3;whiteSpace=wrap;html=1;boundedLbl=1;backgroundOutline=1;size=2.8571341378348905;fontFamily=Helvetica;fontSize=11;fontColor=default;labelBackgroundColor=default;rotation=-360;" vertex="1" parent="1">
          <mxGeometry x="1015" y="197" width="10" height="37.5" as="geometry" />
        </mxCell>
        <mxCell id="5Cd2jNApZWjE8oHdZEPI-245" value="数据" style="shape=cylinder3;whiteSpace=wrap;html=1;boundedLbl=1;backgroundOutline=1;size=2.8571341378348905;fontFamily=Helvetica;fontSize=6;labelBackgroundColor=none;rotation=-360;fillColor=#d5e8d4;strokeColor=#82b366;fontStyle=1" vertex="1" parent="1">
          <mxGeometry x="995" y="197" width="10" height="37.5" as="geometry" />
        </mxCell>
        <mxCell id="5Cd2jNApZWjE8oHdZEPI-246" value="" style="shape=cylinder3;whiteSpace=wrap;html=1;boundedLbl=1;backgroundOutline=1;size=2.8571341378348905;fontFamily=Helvetica;fontSize=11;fontColor=default;labelBackgroundColor=default;rotation=-360;" vertex="1" parent="1">
          <mxGeometry x="975" y="197" width="10" height="37.5" as="geometry" />
        </mxCell>
        <mxCell id="5Cd2jNApZWjE8oHdZEPI-60" value="" style="rounded=0;whiteSpace=wrap;html=1;fillColor=#D4E1F5;strokeWidth=1;shadow=0;fillStyle=auto;strokeColor=#000000;gradientColor=none;" vertex="1" parent="1">
          <mxGeometry x="597.5" y="230" width="45" height="15" as="geometry" />
        </mxCell>
        <mxCell id="5Cd2jNApZWjE8oHdZEPI-34" value="" style="rounded=0;whiteSpace=wrap;html=1;" vertex="1" parent="1">
          <mxGeometry x="615" y="247.5" width="10" height="10" as="geometry" />
        </mxCell>
        <mxCell id="5Cd2jNApZWjE8oHdZEPI-36" value="" style="rounded=0;whiteSpace=wrap;html=1;" vertex="1" parent="1">
          <mxGeometry x="600" y="247.5" width="10" height="10" as="geometry" />
        </mxCell>
        <mxCell id="5Cd2jNApZWjE8oHdZEPI-37" value="" style="rounded=0;whiteSpace=wrap;html=1;" vertex="1" parent="1">
          <mxGeometry x="630" y="247.5" width="10" height="10" as="geometry" />
        </mxCell>
        <mxCell id="5Cd2jNApZWjE8oHdZEPI-61" value="" style="shape=callout;whiteSpace=wrap;html=1;perimeter=calloutPerimeter;fillColor=#D4E1F5;base=101;size=20;position=0.89;position2=0.75;movable=1;resizable=1;rotatable=1;deletable=1;editable=1;locked=0;connectable=1;" vertex="1" parent="1">
          <mxGeometry x="430" y="110.01" width="280" height="119.99" as="geometry" />
        </mxCell>
        <mxCell id="5Cd2jNApZWjE8oHdZEPI-1" value="" style="rounded=0;whiteSpace=wrap;html=1;" vertex="1" parent="1">
          <mxGeometry x="440" y="120" width="80" height="80" as="geometry" />
        </mxCell>
        <mxCell id="5Cd2jNApZWjE8oHdZEPI-4" value="" style="rounded=0;whiteSpace=wrap;html=1;" vertex="1" parent="1">
          <mxGeometry x="530" y="120" width="80" height="80" as="geometry" />
        </mxCell>
        <mxCell id="5Cd2jNApZWjE8oHdZEPI-10" value="" style="rounded=0;whiteSpace=wrap;html=1;" vertex="1" parent="1">
          <mxGeometry x="620" y="120" width="80" height="80" as="geometry" />
        </mxCell>
        <mxCell id="5Cd2jNApZWjE8oHdZEPI-2" value="" style="rounded=0;whiteSpace=wrap;html=1;fillColor=#9AC7BF;" vertex="1" parent="1">
          <mxGeometry x="450" y="130" width="10" height="10" as="geometry" />
        </mxCell>
        <mxCell id="5Cd2jNApZWjE8oHdZEPI-6" value="" style="rounded=0;whiteSpace=wrap;html=1;fillColor=#9999FF;" vertex="1" parent="1">
          <mxGeometry x="580" y="140.01" width="10" height="10" as="geometry" />
        </mxCell>
        <mxCell id="5Cd2jNApZWjE8oHdZEPI-91" style="edgeStyle=orthogonalEdgeStyle;rounded=0;orthogonalLoop=1;jettySize=auto;html=1;exitX=1;exitY=0.5;exitDx=0;exitDy=0;entryX=0;entryY=0.5;entryDx=0;entryDy=0;endArrow=blockThin;endFill=1;" edge="1" parent="1" source="5Cd2jNApZWjE8oHdZEPI-11" target="5Cd2jNApZWjE8oHdZEPI-80">
          <mxGeometry relative="1" as="geometry">
            <Array as="points">
              <mxPoint x="685" y="155" />
              <mxPoint x="685" y="170" />
              <mxPoint x="670" y="170" />
              <mxPoint x="670" y="185" />
            </Array>
          </mxGeometry>
        </mxCell>
        <mxCell id="5Cd2jNApZWjE8oHdZEPI-11" value="" style="rounded=0;whiteSpace=wrap;html=1;fillColor=#FFB366;" vertex="1" parent="1">
          <mxGeometry x="660" y="150.01" width="10" height="10" as="geometry" />
        </mxCell>
        <mxCell id="5Cd2jNApZWjE8oHdZEPI-14" value="队头 queue_head" style="rounded=0;whiteSpace=wrap;html=1;fontSize=5;fillColor=#9AC7BF;fontStyle=1" vertex="1" parent="1">
          <mxGeometry x="368" y="130.01" width="50" height="10" as="geometry" />
        </mxCell>
        <mxCell id="5Cd2jNApZWjE8oHdZEPI-16" value="队尾 queue_tail" style="rounded=0;whiteSpace=wrap;html=1;fontSize=5;fillColor=#FFB366;fontStyle=1;verticalAlign=middle;" vertex="1" parent="1">
          <mxGeometry x="720" y="180" width="50" height="10" as="geometry" />
        </mxCell>
        <mxCell id="5Cd2jNApZWjE8oHdZEPI-59" value="跳转表" style="text;html=1;align=center;verticalAlign=middle;whiteSpace=wrap;rounded=0;fontSize=7;fontStyle=1" vertex="1" parent="1">
          <mxGeometry x="700" y="257.5" width="40" height="10" as="geometry" />
        </mxCell>
        <mxCell id="5Cd2jNApZWjE8oHdZEPI-63" value="" style="rounded=0;whiteSpace=wrap;html=1;fillColor=#9AC7BF;" vertex="1" parent="1">
          <mxGeometry x="460" y="130.01" width="10" height="10" as="geometry" />
        </mxCell>
        <mxCell id="5Cd2jNApZWjE8oHdZEPI-83" style="edgeStyle=orthogonalEdgeStyle;rounded=0;orthogonalLoop=1;jettySize=auto;html=1;exitX=1;exitY=0.5;exitDx=0;exitDy=0;entryX=0;entryY=0.5;entryDx=0;entryDy=0;endArrow=blockThin;endFill=1;" edge="1" parent="1" source="5Cd2jNApZWjE8oHdZEPI-65" target="5Cd2jNApZWjE8oHdZEPI-66">
          <mxGeometry relative="1" as="geometry">
            <Array as="points">
              <mxPoint x="490" y="135" />
              <mxPoint x="490" y="150" />
              <mxPoint x="450" y="150" />
              <mxPoint x="450" y="165" />
            </Array>
          </mxGeometry>
        </mxCell>
        <mxCell id="5Cd2jNApZWjE8oHdZEPI-65" value="" style="rounded=0;whiteSpace=wrap;html=1;fillColor=#9AC7BF;" vertex="1" parent="1">
          <mxGeometry x="470" y="130" width="10" height="10" as="geometry" />
        </mxCell>
        <mxCell id="5Cd2jNApZWjE8oHdZEPI-66" value="" style="rounded=0;whiteSpace=wrap;html=1;fillColor=#9AC7BF;" vertex="1" parent="1">
          <mxGeometry x="460" y="160" width="10" height="10" as="geometry" />
        </mxCell>
        <mxCell id="5Cd2jNApZWjE8oHdZEPI-67" value="" style="rounded=0;whiteSpace=wrap;html=1;fillColor=#9AC7BF;" vertex="1" parent="1">
          <mxGeometry x="470" y="160" width="10" height="10" as="geometry" />
        </mxCell>
        <mxCell id="5Cd2jNApZWjE8oHdZEPI-85" style="edgeStyle=orthogonalEdgeStyle;rounded=0;orthogonalLoop=1;jettySize=auto;html=1;exitX=1;exitY=0.5;exitDx=0;exitDy=0;entryX=0;entryY=0.5;entryDx=0;entryDy=0;endArrow=blockThin;endFill=1;" edge="1" parent="1" source="5Cd2jNApZWjE8oHdZEPI-68" target="5Cd2jNApZWjE8oHdZEPI-69">
          <mxGeometry relative="1" as="geometry">
            <Array as="points">
              <mxPoint x="510" y="165" />
              <mxPoint x="510" y="145" />
            </Array>
          </mxGeometry>
        </mxCell>
        <mxCell id="5Cd2jNApZWjE8oHdZEPI-68" value="" style="rounded=0;whiteSpace=wrap;html=1;fillColor=#9AC7BF;" vertex="1" parent="1">
          <mxGeometry x="480" y="160" width="10" height="10" as="geometry" />
        </mxCell>
        <mxCell id="5Cd2jNApZWjE8oHdZEPI-69" value="" style="rounded=0;whiteSpace=wrap;html=1;fillColor=#9999FF;" vertex="1" parent="1">
          <mxGeometry x="550" y="140.01" width="10" height="10" as="geometry" />
        </mxCell>
        <mxCell id="5Cd2jNApZWjE8oHdZEPI-70" value="" style="rounded=0;whiteSpace=wrap;html=1;fillColor=#9999FF;" vertex="1" parent="1">
          <mxGeometry x="560" y="140.01" width="10" height="10" as="geometry" />
        </mxCell>
        <mxCell id="5Cd2jNApZWjE8oHdZEPI-71" value="" style="rounded=0;whiteSpace=wrap;html=1;fillColor=#9999FF;" vertex="1" parent="1">
          <mxGeometry x="570" y="140.01" width="10" height="10" as="geometry" />
        </mxCell>
        <mxCell id="5Cd2jNApZWjE8oHdZEPI-72" value="" style="rounded=0;whiteSpace=wrap;html=1;fillColor=#FF99FF;" vertex="1" parent="1">
          <mxGeometry x="540" y="170" width="10" height="10" as="geometry" />
        </mxCell>
        <mxCell id="5Cd2jNApZWjE8oHdZEPI-89" style="edgeStyle=orthogonalEdgeStyle;rounded=0;orthogonalLoop=1;jettySize=auto;html=1;exitX=1;exitY=0.5;exitDx=0;exitDy=0;entryX=0;entryY=0.5;entryDx=0;entryDy=0;endArrow=blockThin;endFill=1;" edge="1" parent="1" source="5Cd2jNApZWjE8oHdZEPI-73" target="5Cd2jNApZWjE8oHdZEPI-75">
          <mxGeometry relative="1" as="geometry" />
        </mxCell>
        <mxCell id="5Cd2jNApZWjE8oHdZEPI-73" value="" style="rounded=0;whiteSpace=wrap;html=1;fillColor=#FF99FF;" vertex="1" parent="1">
          <mxGeometry x="550" y="170" width="10" height="10" as="geometry" />
        </mxCell>
        <mxCell id="5Cd2jNApZWjE8oHdZEPI-75" value="" style="rounded=0;whiteSpace=wrap;html=1;fillColor=#FF99FF;" vertex="1" parent="1">
          <mxGeometry x="570" y="170.01" width="10" height="10" as="geometry" />
        </mxCell>
        <mxCell id="5Cd2jNApZWjE8oHdZEPI-90" style="edgeStyle=orthogonalEdgeStyle;rounded=0;orthogonalLoop=1;jettySize=auto;html=1;exitX=1;exitY=0.5;exitDx=0;exitDy=0;entryX=0;entryY=0.5;entryDx=0;entryDy=0;endArrow=blockThin;endFill=1;" edge="1" parent="1" source="5Cd2jNApZWjE8oHdZEPI-76" target="5Cd2jNApZWjE8oHdZEPI-77">
          <mxGeometry relative="1" as="geometry">
            <Array as="points">
              <mxPoint x="630" y="175" />
              <mxPoint x="630" y="155" />
            </Array>
          </mxGeometry>
        </mxCell>
        <mxCell id="5Cd2jNApZWjE8oHdZEPI-76" value="" style="rounded=0;whiteSpace=wrap;html=1;fillColor=#FF99FF;" vertex="1" parent="1">
          <mxGeometry x="580" y="170" width="10" height="10" as="geometry" />
        </mxCell>
        <mxCell id="5Cd2jNApZWjE8oHdZEPI-77" value="" style="rounded=0;whiteSpace=wrap;html=1;fillColor=#FFB366;" vertex="1" parent="1">
          <mxGeometry x="640" y="150.01" width="10" height="10" as="geometry" />
        </mxCell>
        <mxCell id="5Cd2jNApZWjE8oHdZEPI-78" value="" style="rounded=0;whiteSpace=wrap;html=1;fillColor=#FFB366;" vertex="1" parent="1">
          <mxGeometry x="650" y="150" width="10" height="10" as="geometry" />
        </mxCell>
        <mxCell id="5Cd2jNApZWjE8oHdZEPI-88" value="" style="endArrow=blockThin;html=1;rounded=0;exitX=1;exitY=0.5;exitDx=0;exitDy=0;entryX=0.5;entryY=0;entryDx=0;entryDy=0;endFill=1;" edge="1" parent="1" source="5Cd2jNApZWjE8oHdZEPI-6" target="5Cd2jNApZWjE8oHdZEPI-72">
          <mxGeometry width="50" height="50" relative="1" as="geometry">
            <mxPoint x="530" y="180" as="sourcePoint" />
            <mxPoint x="580" y="130" as="targetPoint" />
            <Array as="points">
              <mxPoint x="600" y="145" />
              <mxPoint x="600" y="160" />
              <mxPoint x="545" y="160" />
            </Array>
          </mxGeometry>
        </mxCell>
        <mxCell id="5Cd2jNApZWjE8oHdZEPI-17" value="跳转表#k" style="text;html=1;align=center;verticalAlign=middle;whiteSpace=wrap;rounded=0;fontSize=7;fontStyle=1" vertex="1" parent="1">
          <mxGeometry x="490" y="120" width="30" height="20" as="geometry" />
        </mxCell>
        <mxCell id="5Cd2jNApZWjE8oHdZEPI-18" value="跳转表#m" style="text;html=1;align=center;verticalAlign=middle;whiteSpace=wrap;rounded=0;fontSize=7;fontStyle=1" vertex="1" parent="1">
          <mxGeometry x="580" y="120" width="30" height="20" as="geometry" />
        </mxCell>
        <mxCell id="5Cd2jNApZWjE8oHdZEPI-19" value="跳转表#n" style="text;html=1;align=center;verticalAlign=middle;whiteSpace=wrap;rounded=0;fontSize=7;fontStyle=1" vertex="1" parent="1">
          <mxGeometry x="670" y="120" width="30" height="20" as="geometry" />
        </mxCell>
        <mxCell id="5Cd2jNApZWjE8oHdZEPI-92" value="" style="triangle;whiteSpace=wrap;html=1;fillColor=#9AC7BF;" vertex="1" parent="1">
          <mxGeometry x="418" y="130" width="30" height="10" as="geometry" />
        </mxCell>
        <mxCell id="5Cd2jNApZWjE8oHdZEPI-93" value="" style="triangle;whiteSpace=wrap;html=1;rotation=-180;fillColor=#FFB366;" vertex="1" parent="1">
          <mxGeometry x="690" y="180" width="30" height="10" as="geometry" />
        </mxCell>
        <mxCell id="5Cd2jNApZWjE8oHdZEPI-80" value="" style="rounded=0;whiteSpace=wrap;html=1;fillColor=#FFB366;" vertex="1" parent="1">
          <mxGeometry x="680" y="180" width="10" height="10" as="geometry" />
        </mxCell>
        <mxCell id="5Cd2jNApZWjE8oHdZEPI-28" value="" style="rounded=0;whiteSpace=wrap;html=1;" vertex="1" parent="1">
          <mxGeometry x="630" y="232.5" width="10" height="10" as="geometry" />
        </mxCell>
        <mxCell id="5Cd2jNApZWjE8oHdZEPI-23" value="" style="rounded=0;whiteSpace=wrap;html=1;" vertex="1" parent="1">
          <mxGeometry x="615" y="232.5" width="10" height="10" as="geometry" />
        </mxCell>
        <mxCell id="5Cd2jNApZWjE8oHdZEPI-25" value="" style="rounded=0;whiteSpace=wrap;html=1;" vertex="1" parent="1">
          <mxGeometry x="585" y="232.5" width="10" height="10" as="geometry" />
        </mxCell>
        <mxCell id="5Cd2jNApZWjE8oHdZEPI-26" value="" style="rounded=0;whiteSpace=wrap;html=1;" vertex="1" parent="1">
          <mxGeometry x="600" y="232.5" width="10" height="10" as="geometry" />
        </mxCell>
        <mxCell id="5Cd2jNApZWjE8oHdZEPI-30" value="" style="rounded=0;whiteSpace=wrap;html=1;" vertex="1" parent="1">
          <mxGeometry x="675" y="232.5" width="10" height="10" as="geometry" />
        </mxCell>
        <mxCell id="5Cd2jNApZWjE8oHdZEPI-31" value="" style="rounded=0;whiteSpace=wrap;html=1;" vertex="1" parent="1">
          <mxGeometry x="645" y="232.5" width="10" height="10" as="geometry" />
        </mxCell>
        <mxCell id="5Cd2jNApZWjE8oHdZEPI-32" value="" style="rounded=0;whiteSpace=wrap;html=1;" vertex="1" parent="1">
          <mxGeometry x="660" y="232.5" width="10" height="10" as="geometry" />
        </mxCell>
        <mxCell id="5Cd2jNApZWjE8oHdZEPI-33" value="" style="rounded=0;whiteSpace=wrap;html=1;" vertex="1" parent="1">
          <mxGeometry x="690" y="232.5" width="10" height="10" as="geometry" />
        </mxCell>
        <mxCell id="5Cd2jNApZWjE8oHdZEPI-35" value="" style="rounded=0;whiteSpace=wrap;html=1;" vertex="1" parent="1">
          <mxGeometry x="585" y="247.5" width="10" height="10" as="geometry" />
        </mxCell>
        <mxCell id="5Cd2jNApZWjE8oHdZEPI-38" value="" style="rounded=0;whiteSpace=wrap;html=1;" vertex="1" parent="1">
          <mxGeometry x="675" y="247.5" width="10" height="10" as="geometry" />
        </mxCell>
        <mxCell id="5Cd2jNApZWjE8oHdZEPI-39" value="" style="rounded=0;whiteSpace=wrap;html=1;" vertex="1" parent="1">
          <mxGeometry x="645" y="247.5" width="10" height="10" as="geometry" />
        </mxCell>
        <mxCell id="5Cd2jNApZWjE8oHdZEPI-40" value="" style="rounded=0;whiteSpace=wrap;html=1;" vertex="1" parent="1">
          <mxGeometry x="660" y="247.5" width="10" height="10" as="geometry" />
        </mxCell>
        <mxCell id="5Cd2jNApZWjE8oHdZEPI-41" value="" style="rounded=0;whiteSpace=wrap;html=1;" vertex="1" parent="1">
          <mxGeometry x="690" y="247.5" width="10" height="10" as="geometry" />
        </mxCell>
        <mxCell id="5Cd2jNApZWjE8oHdZEPI-42" value="" style="rounded=0;whiteSpace=wrap;html=1;" vertex="1" parent="1">
          <mxGeometry x="615" y="262.5" width="10" height="10" as="geometry" />
        </mxCell>
        <mxCell id="5Cd2jNApZWjE8oHdZEPI-43" value="" style="rounded=0;whiteSpace=wrap;html=1;" vertex="1" parent="1">
          <mxGeometry x="585" y="262.5" width="10" height="10" as="geometry" />
        </mxCell>
        <mxCell id="5Cd2jNApZWjE8oHdZEPI-44" value="" style="rounded=0;whiteSpace=wrap;html=1;" vertex="1" parent="1">
          <mxGeometry x="600" y="262.5" width="10" height="10" as="geometry" />
        </mxCell>
        <mxCell id="5Cd2jNApZWjE8oHdZEPI-45" value="" style="rounded=0;whiteSpace=wrap;html=1;" vertex="1" parent="1">
          <mxGeometry x="630" y="262.5" width="10" height="10" as="geometry" />
        </mxCell>
        <mxCell id="5Cd2jNApZWjE8oHdZEPI-46" value="" style="rounded=0;whiteSpace=wrap;html=1;" vertex="1" parent="1">
          <mxGeometry x="675" y="262.5" width="10" height="10" as="geometry" />
        </mxCell>
        <mxCell id="5Cd2jNApZWjE8oHdZEPI-47" value="" style="rounded=0;whiteSpace=wrap;html=1;" vertex="1" parent="1">
          <mxGeometry x="645" y="262.5" width="10" height="10" as="geometry" />
        </mxCell>
        <mxCell id="5Cd2jNApZWjE8oHdZEPI-48" value="" style="rounded=0;whiteSpace=wrap;html=1;" vertex="1" parent="1">
          <mxGeometry x="660" y="262.5" width="10" height="10" as="geometry" />
        </mxCell>
        <mxCell id="5Cd2jNApZWjE8oHdZEPI-49" value="" style="rounded=0;whiteSpace=wrap;html=1;" vertex="1" parent="1">
          <mxGeometry x="690" y="262.5" width="10" height="10" as="geometry" />
        </mxCell>
        <mxCell id="5Cd2jNApZWjE8oHdZEPI-50" value="" style="rounded=0;whiteSpace=wrap;html=1;" vertex="1" parent="1">
          <mxGeometry x="615" y="277.5" width="10" height="10" as="geometry" />
        </mxCell>
        <mxCell id="5Cd2jNApZWjE8oHdZEPI-51" value="" style="rounded=0;whiteSpace=wrap;html=1;" vertex="1" parent="1">
          <mxGeometry x="585" y="277.5" width="10" height="10" as="geometry" />
        </mxCell>
        <mxCell id="5Cd2jNApZWjE8oHdZEPI-52" value="" style="rounded=0;whiteSpace=wrap;html=1;" vertex="1" parent="1">
          <mxGeometry x="600" y="277.5" width="10" height="10" as="geometry" />
        </mxCell>
        <mxCell id="5Cd2jNApZWjE8oHdZEPI-53" value="" style="rounded=0;whiteSpace=wrap;html=1;" vertex="1" parent="1">
          <mxGeometry x="630" y="277.5" width="10" height="10" as="geometry" />
        </mxCell>
        <mxCell id="5Cd2jNApZWjE8oHdZEPI-54" value="" style="rounded=0;whiteSpace=wrap;html=1;" vertex="1" parent="1">
          <mxGeometry x="675" y="277.5" width="10" height="10" as="geometry" />
        </mxCell>
        <mxCell id="5Cd2jNApZWjE8oHdZEPI-55" value="" style="rounded=0;whiteSpace=wrap;html=1;" vertex="1" parent="1">
          <mxGeometry x="645" y="277.5" width="10" height="10" as="geometry" />
        </mxCell>
        <mxCell id="5Cd2jNApZWjE8oHdZEPI-56" value="" style="rounded=0;whiteSpace=wrap;html=1;" vertex="1" parent="1">
          <mxGeometry x="660" y="277.5" width="10" height="10" as="geometry" />
        </mxCell>
        <mxCell id="5Cd2jNApZWjE8oHdZEPI-57" value="" style="rounded=0;whiteSpace=wrap;html=1;" vertex="1" parent="1">
          <mxGeometry x="690" y="277.5" width="10" height="10" as="geometry" />
        </mxCell>
        <mxCell id="5Cd2jNApZWjE8oHdZEPI-110" value="" style="rounded=0;whiteSpace=wrap;html=1;strokeColor=#666666;fillColor=#b2b2b2;" vertex="1" parent="1">
          <mxGeometry x="610" y="252.5" width="10" height="10" as="geometry" />
        </mxCell>
        <mxCell id="5Cd2jNApZWjE8oHdZEPI-111" value="" style="rounded=0;whiteSpace=wrap;html=1;strokeColor=#666666;fillColor=#b2b2b2;" vertex="1" parent="1">
          <mxGeometry x="595" y="252.5" width="10" height="10" as="geometry" />
        </mxCell>
        <mxCell id="5Cd2jNApZWjE8oHdZEPI-112" value="" style="rounded=0;whiteSpace=wrap;html=1;strokeColor=#666666;fillColor=#b2b2b2;" vertex="1" parent="1">
          <mxGeometry x="625" y="252.5" width="10" height="10" as="geometry" />
        </mxCell>
        <mxCell id="5Cd2jNApZWjE8oHdZEPI-113" value="" style="rounded=0;whiteSpace=wrap;html=1;strokeColor=#666666;fillColor=#b2b2b2;" vertex="1" parent="1">
          <mxGeometry x="625" y="237.5" width="10" height="10" as="geometry" />
        </mxCell>
        <mxCell id="5Cd2jNApZWjE8oHdZEPI-114" value="" style="rounded=0;whiteSpace=wrap;html=1;strokeColor=#666666;fillColor=#b2b2b2;" vertex="1" parent="1">
          <mxGeometry x="610" y="237.5" width="10" height="10" as="geometry" />
        </mxCell>
        <mxCell id="5Cd2jNApZWjE8oHdZEPI-115" value="" style="rounded=0;whiteSpace=wrap;html=1;strokeColor=#666666;fillColor=#b2b2b2;" vertex="1" parent="1">
          <mxGeometry x="580" y="237.5" width="10" height="10" as="geometry" />
        </mxCell>
        <mxCell id="5Cd2jNApZWjE8oHdZEPI-116" value="" style="rounded=0;whiteSpace=wrap;html=1;strokeColor=#666666;fillColor=#b2b2b2;" vertex="1" parent="1">
          <mxGeometry x="595" y="237.5" width="10" height="10" as="geometry" />
        </mxCell>
        <mxCell id="5Cd2jNApZWjE8oHdZEPI-117" value="" style="rounded=0;whiteSpace=wrap;html=1;strokeColor=#666666;fillColor=#b2b2b2;" vertex="1" parent="1">
          <mxGeometry x="670" y="237.5" width="10" height="10" as="geometry" />
        </mxCell>
        <mxCell id="5Cd2jNApZWjE8oHdZEPI-118" value="" style="rounded=0;whiteSpace=wrap;html=1;strokeColor=#666666;fillColor=#b2b2b2;" vertex="1" parent="1">
          <mxGeometry x="640" y="237.5" width="10" height="10" as="geometry" />
        </mxCell>
        <mxCell id="5Cd2jNApZWjE8oHdZEPI-119" value="" style="rounded=0;whiteSpace=wrap;html=1;strokeColor=#666666;fillColor=#b2b2b2;" vertex="1" parent="1">
          <mxGeometry x="655" y="237.5" width="10" height="10" as="geometry" />
        </mxCell>
        <mxCell id="5Cd2jNApZWjE8oHdZEPI-120" value="" style="rounded=0;whiteSpace=wrap;html=1;strokeColor=#666666;fillColor=#b2b2b2;" vertex="1" parent="1">
          <mxGeometry x="685" y="237.5" width="10" height="10" as="geometry" />
        </mxCell>
        <mxCell id="5Cd2jNApZWjE8oHdZEPI-121" value="" style="rounded=0;whiteSpace=wrap;html=1;strokeColor=#666666;fillColor=#b2b2b2;" vertex="1" parent="1">
          <mxGeometry x="580" y="252.5" width="10" height="10" as="geometry" />
        </mxCell>
        <mxCell id="5Cd2jNApZWjE8oHdZEPI-122" value="" style="rounded=0;whiteSpace=wrap;html=1;strokeColor=#666666;fillColor=#b2b2b2;" vertex="1" parent="1">
          <mxGeometry x="670" y="252.5" width="10" height="10" as="geometry" />
        </mxCell>
        <mxCell id="5Cd2jNApZWjE8oHdZEPI-123" value="" style="rounded=0;whiteSpace=wrap;html=1;strokeColor=#666666;fillColor=#b2b2b2;" vertex="1" parent="1">
          <mxGeometry x="640" y="252.5" width="10" height="10" as="geometry" />
        </mxCell>
        <mxCell id="5Cd2jNApZWjE8oHdZEPI-124" value="" style="rounded=0;whiteSpace=wrap;html=1;strokeColor=#666666;fillColor=#b2b2b2;" vertex="1" parent="1">
          <mxGeometry x="655" y="252.5" width="10" height="10" as="geometry" />
        </mxCell>
        <mxCell id="5Cd2jNApZWjE8oHdZEPI-125" value="" style="rounded=0;whiteSpace=wrap;html=1;strokeColor=#666666;fillColor=#b2b2b2;" vertex="1" parent="1">
          <mxGeometry x="685" y="252.5" width="10" height="10" as="geometry" />
        </mxCell>
        <mxCell id="5Cd2jNApZWjE8oHdZEPI-126" value="" style="rounded=0;whiteSpace=wrap;html=1;strokeColor=#666666;fillColor=#b2b2b2;" vertex="1" parent="1">
          <mxGeometry x="610" y="267.5" width="10" height="10" as="geometry" />
        </mxCell>
        <mxCell id="5Cd2jNApZWjE8oHdZEPI-127" value="" style="rounded=0;whiteSpace=wrap;html=1;strokeColor=#666666;fillColor=#b2b2b2;" vertex="1" parent="1">
          <mxGeometry x="580" y="267.5" width="10" height="10" as="geometry" />
        </mxCell>
        <mxCell id="5Cd2jNApZWjE8oHdZEPI-128" value="" style="rounded=0;whiteSpace=wrap;html=1;strokeColor=#666666;fillColor=#b2b2b2;" vertex="1" parent="1">
          <mxGeometry x="595" y="267.5" width="10" height="10" as="geometry" />
        </mxCell>
        <mxCell id="5Cd2jNApZWjE8oHdZEPI-129" value="" style="rounded=0;whiteSpace=wrap;html=1;strokeColor=#666666;fillColor=#b2b2b2;" vertex="1" parent="1">
          <mxGeometry x="625" y="267.5" width="10" height="10" as="geometry" />
        </mxCell>
        <mxCell id="5Cd2jNApZWjE8oHdZEPI-130" value="" style="rounded=0;whiteSpace=wrap;html=1;strokeColor=#666666;fillColor=#b2b2b2;" vertex="1" parent="1">
          <mxGeometry x="670" y="267.5" width="10" height="10" as="geometry" />
        </mxCell>
        <mxCell id="5Cd2jNApZWjE8oHdZEPI-131" value="" style="rounded=0;whiteSpace=wrap;html=1;strokeColor=#666666;fillColor=#b2b2b2;" vertex="1" parent="1">
          <mxGeometry x="640" y="267.5" width="10" height="10" as="geometry" />
        </mxCell>
        <mxCell id="5Cd2jNApZWjE8oHdZEPI-132" value="" style="rounded=0;whiteSpace=wrap;html=1;strokeColor=#666666;fillColor=#b2b2b2;" vertex="1" parent="1">
          <mxGeometry x="655" y="267.5" width="10" height="10" as="geometry" />
        </mxCell>
        <mxCell id="5Cd2jNApZWjE8oHdZEPI-133" value="" style="rounded=0;whiteSpace=wrap;html=1;strokeColor=#666666;fillColor=#b2b2b2;" vertex="1" parent="1">
          <mxGeometry x="685" y="267.5" width="10" height="10" as="geometry" />
        </mxCell>
        <mxCell id="5Cd2jNApZWjE8oHdZEPI-134" value="" style="rounded=0;whiteSpace=wrap;html=1;strokeColor=#666666;fillColor=#b2b2b2;" vertex="1" parent="1">
          <mxGeometry x="610" y="282.5" width="10" height="10" as="geometry" />
        </mxCell>
        <mxCell id="5Cd2jNApZWjE8oHdZEPI-135" value="" style="rounded=0;whiteSpace=wrap;html=1;strokeColor=#666666;fillColor=#b2b2b2;" vertex="1" parent="1">
          <mxGeometry x="580" y="282.5" width="10" height="10" as="geometry" />
        </mxCell>
        <mxCell id="5Cd2jNApZWjE8oHdZEPI-136" value="" style="rounded=0;whiteSpace=wrap;html=1;strokeColor=#666666;fillColor=#b2b2b2;" vertex="1" parent="1">
          <mxGeometry x="595" y="282.5" width="10" height="10" as="geometry" />
        </mxCell>
        <mxCell id="5Cd2jNApZWjE8oHdZEPI-137" value="" style="rounded=0;whiteSpace=wrap;html=1;strokeColor=#666666;fillColor=#b2b2b2;" vertex="1" parent="1">
          <mxGeometry x="625" y="282.5" width="10" height="10" as="geometry" />
        </mxCell>
        <mxCell id="5Cd2jNApZWjE8oHdZEPI-138" value="" style="rounded=0;whiteSpace=wrap;html=1;strokeColor=#666666;fillColor=#b2b2b2;" vertex="1" parent="1">
          <mxGeometry x="670" y="282.5" width="10" height="10" as="geometry" />
        </mxCell>
        <mxCell id="5Cd2jNApZWjE8oHdZEPI-139" value="" style="rounded=0;whiteSpace=wrap;html=1;strokeColor=#666666;fillColor=#b2b2b2;" vertex="1" parent="1">
          <mxGeometry x="640" y="282.5" width="10" height="10" as="geometry" />
        </mxCell>
        <mxCell id="5Cd2jNApZWjE8oHdZEPI-140" value="" style="rounded=0;whiteSpace=wrap;html=1;strokeColor=#666666;fillColor=#b2b2b2;" vertex="1" parent="1">
          <mxGeometry x="655" y="282.5" width="10" height="10" as="geometry" />
        </mxCell>
        <mxCell id="5Cd2jNApZWjE8oHdZEPI-141" value="" style="rounded=0;whiteSpace=wrap;html=1;strokeColor=#666666;fillColor=#b2b2b2;" vertex="1" parent="1">
          <mxGeometry x="685" y="282.5" width="10" height="10" as="geometry" />
        </mxCell>
        <mxCell id="5Cd2jNApZWjE8oHdZEPI-142" value="SRAM" style="text;html=1;align=center;verticalAlign=middle;whiteSpace=wrap;rounded=0;fontSize=7;fontStyle=1;fontColor=#666666;textOpacity=70;" vertex="1" parent="1">
          <mxGeometry x="580" y="297.5" width="120" height="10" as="geometry" />
        </mxCell>
        <mxCell id="5Cd2jNApZWjE8oHdZEPI-145" value="" style="rounded=0;whiteSpace=wrap;html=1;" vertex="1" parent="1">
          <mxGeometry x="440" y="330" width="80" height="80" as="geometry" />
        </mxCell>
        <mxCell id="5Cd2jNApZWjE8oHdZEPI-146" value="" style="rounded=0;whiteSpace=wrap;html=1;" vertex="1" parent="1">
          <mxGeometry x="530" y="330" width="80" height="80" as="geometry" />
        </mxCell>
        <mxCell id="5Cd2jNApZWjE8oHdZEPI-147" value="" style="rounded=0;whiteSpace=wrap;html=1;fillColor=#9AC7BF;" vertex="1" parent="1">
          <mxGeometry x="450" y="340" width="10" height="10" as="geometry" />
        </mxCell>
        <mxCell id="5Cd2jNApZWjE8oHdZEPI-148" value="" style="rounded=0;whiteSpace=wrap;html=1;fillColor=#9999FF;" vertex="1" parent="1">
          <mxGeometry x="580" y="350.01" width="10" height="10" as="geometry" />
        </mxCell>
        <mxCell id="5Cd2jNApZWjE8oHdZEPI-149" value="" style="rounded=0;whiteSpace=wrap;html=1;fillColor=#9AC7BF;" vertex="1" parent="1">
          <mxGeometry x="460" y="340.01" width="10" height="10" as="geometry" />
        </mxCell>
        <mxCell id="5Cd2jNApZWjE8oHdZEPI-150" style="edgeStyle=orthogonalEdgeStyle;rounded=0;orthogonalLoop=1;jettySize=auto;html=1;exitX=1;exitY=0.5;exitDx=0;exitDy=0;entryX=0;entryY=0.5;entryDx=0;entryDy=0;endArrow=blockThin;endFill=1;" edge="1" parent="1" source="5Cd2jNApZWjE8oHdZEPI-151" target="5Cd2jNApZWjE8oHdZEPI-152">
          <mxGeometry relative="1" as="geometry">
            <Array as="points">
              <mxPoint x="490" y="345" />
              <mxPoint x="490" y="360" />
              <mxPoint x="450" y="360" />
              <mxPoint x="450" y="375" />
            </Array>
          </mxGeometry>
        </mxCell>
        <mxCell id="5Cd2jNApZWjE8oHdZEPI-151" value="" style="rounded=0;whiteSpace=wrap;html=1;fillColor=#9AC7BF;" vertex="1" parent="1">
          <mxGeometry x="470" y="340" width="10" height="10" as="geometry" />
        </mxCell>
        <mxCell id="5Cd2jNApZWjE8oHdZEPI-152" value="" style="rounded=0;whiteSpace=wrap;html=1;fillColor=#9AC7BF;" vertex="1" parent="1">
          <mxGeometry x="460" y="370" width="10" height="10" as="geometry" />
        </mxCell>
        <mxCell id="5Cd2jNApZWjE8oHdZEPI-153" value="" style="rounded=0;whiteSpace=wrap;html=1;fillColor=#9AC7BF;" vertex="1" parent="1">
          <mxGeometry x="470" y="370" width="10" height="10" as="geometry" />
        </mxCell>
        <mxCell id="5Cd2jNApZWjE8oHdZEPI-154" style="edgeStyle=orthogonalEdgeStyle;rounded=0;orthogonalLoop=1;jettySize=auto;html=1;exitX=1;exitY=0.5;exitDx=0;exitDy=0;entryX=0;entryY=0.5;entryDx=0;entryDy=0;endArrow=blockThin;endFill=1;" edge="1" parent="1" source="5Cd2jNApZWjE8oHdZEPI-155" target="5Cd2jNApZWjE8oHdZEPI-156">
          <mxGeometry relative="1" as="geometry">
            <Array as="points">
              <mxPoint x="510" y="375" />
              <mxPoint x="510" y="355" />
            </Array>
          </mxGeometry>
        </mxCell>
        <mxCell id="5Cd2jNApZWjE8oHdZEPI-155" value="" style="rounded=0;whiteSpace=wrap;html=1;fillColor=#9AC7BF;" vertex="1" parent="1">
          <mxGeometry x="480" y="370" width="10" height="10" as="geometry" />
        </mxCell>
        <mxCell id="5Cd2jNApZWjE8oHdZEPI-156" value="" style="rounded=0;whiteSpace=wrap;html=1;fillColor=#9999FF;" vertex="1" parent="1">
          <mxGeometry x="550" y="350.01" width="10" height="10" as="geometry" />
        </mxCell>
        <mxCell id="5Cd2jNApZWjE8oHdZEPI-157" value="" style="rounded=0;whiteSpace=wrap;html=1;fillColor=#9999FF;" vertex="1" parent="1">
          <mxGeometry x="560" y="350.01" width="10" height="10" as="geometry" />
        </mxCell>
        <mxCell id="5Cd2jNApZWjE8oHdZEPI-158" value="" style="rounded=0;whiteSpace=wrap;html=1;fillColor=#9999FF;" vertex="1" parent="1">
          <mxGeometry x="570" y="350.01" width="10" height="10" as="geometry" />
        </mxCell>
        <mxCell id="5Cd2jNApZWjE8oHdZEPI-159" value="" style="rounded=0;whiteSpace=wrap;html=1;fillColor=#FF99FF;" vertex="1" parent="1">
          <mxGeometry x="540" y="380" width="10" height="10" as="geometry" />
        </mxCell>
        <mxCell id="5Cd2jNApZWjE8oHdZEPI-160" style="edgeStyle=orthogonalEdgeStyle;rounded=0;orthogonalLoop=1;jettySize=auto;html=1;exitX=1;exitY=0.5;exitDx=0;exitDy=0;entryX=0;entryY=0.5;entryDx=0;entryDy=0;endArrow=blockThin;endFill=1;" edge="1" parent="1" source="5Cd2jNApZWjE8oHdZEPI-161" target="5Cd2jNApZWjE8oHdZEPI-162">
          <mxGeometry relative="1" as="geometry" />
        </mxCell>
        <mxCell id="5Cd2jNApZWjE8oHdZEPI-161" value="" style="rounded=0;whiteSpace=wrap;html=1;fillColor=#FF99FF;" vertex="1" parent="1">
          <mxGeometry x="550" y="380" width="10" height="10" as="geometry" />
        </mxCell>
        <mxCell id="5Cd2jNApZWjE8oHdZEPI-162" value="" style="rounded=0;whiteSpace=wrap;html=1;fillColor=#FF99FF;" vertex="1" parent="1">
          <mxGeometry x="570" y="380.01" width="10" height="10" as="geometry" />
        </mxCell>
        <mxCell id="5Cd2jNApZWjE8oHdZEPI-163" value="" style="rounded=0;whiteSpace=wrap;html=1;fillColor=#FF99FF;gradientColor=#FFB366;" vertex="1" parent="1">
          <mxGeometry x="580" y="380" width="10" height="10" as="geometry" />
        </mxCell>
        <mxCell id="5Cd2jNApZWjE8oHdZEPI-164" value="" style="endArrow=blockThin;html=1;rounded=0;exitX=1;exitY=0.5;exitDx=0;exitDy=0;entryX=0.5;entryY=0;entryDx=0;entryDy=0;endFill=1;" edge="1" parent="1" source="5Cd2jNApZWjE8oHdZEPI-148" target="5Cd2jNApZWjE8oHdZEPI-159">
          <mxGeometry width="50" height="50" relative="1" as="geometry">
            <mxPoint x="530" y="390" as="sourcePoint" />
            <mxPoint x="580" y="340" as="targetPoint" />
            <Array as="points">
              <mxPoint x="600" y="355" />
              <mxPoint x="600" y="370" />
              <mxPoint x="545" y="370" />
            </Array>
          </mxGeometry>
        </mxCell>
        <mxCell id="5Cd2jNApZWjE8oHdZEPI-165" value="跳转表#k" style="text;html=1;align=center;verticalAlign=middle;whiteSpace=wrap;rounded=0;fontSize=7;fontStyle=1" vertex="1" parent="1">
          <mxGeometry x="490" y="330" width="30" height="20" as="geometry" />
        </mxCell>
        <mxCell id="5Cd2jNApZWjE8oHdZEPI-166" value="跳转表#m" style="text;html=1;align=center;verticalAlign=middle;whiteSpace=wrap;rounded=0;fontSize=7;fontStyle=1" vertex="1" parent="1">
          <mxGeometry x="580" y="330" width="30" height="20" as="geometry" />
        </mxCell>
        <mxCell id="5Cd2jNApZWjE8oHdZEPI-176" value="" style="rounded=0;whiteSpace=wrap;html=1;" vertex="1" parent="1">
          <mxGeometry x="620" y="330" width="80" height="80" as="geometry" />
        </mxCell>
        <mxCell id="5Cd2jNApZWjE8oHdZEPI-177" style="edgeStyle=orthogonalEdgeStyle;rounded=0;orthogonalLoop=1;jettySize=auto;html=1;exitX=1;exitY=0.5;exitDx=0;exitDy=0;entryX=0;entryY=0.5;entryDx=0;entryDy=0;endArrow=blockThin;endFill=1;" edge="1" parent="1" source="5Cd2jNApZWjE8oHdZEPI-178" target="5Cd2jNApZWjE8oHdZEPI-183">
          <mxGeometry relative="1" as="geometry">
            <Array as="points">
              <mxPoint x="685" y="365" />
              <mxPoint x="685" y="380" />
              <mxPoint x="670" y="380" />
              <mxPoint x="670" y="395" />
            </Array>
          </mxGeometry>
        </mxCell>
        <mxCell id="5Cd2jNApZWjE8oHdZEPI-178" value="" style="rounded=0;whiteSpace=wrap;html=1;fillColor=#FFB366;" vertex="1" parent="1">
          <mxGeometry x="660" y="360" width="10" height="10" as="geometry" />
        </mxCell>
        <mxCell id="5Cd2jNApZWjE8oHdZEPI-180" value="" style="rounded=0;whiteSpace=wrap;html=1;fillColor=#FF99FF;gradientColor=#FFB366;" vertex="1" parent="1">
          <mxGeometry x="640" y="360.01" width="10" height="10" as="geometry" />
        </mxCell>
        <mxCell id="5Cd2jNApZWjE8oHdZEPI-181" value="" style="rounded=0;whiteSpace=wrap;html=1;fillColor=#FFB366;" vertex="1" parent="1">
          <mxGeometry x="650" y="360" width="10" height="10" as="geometry" />
        </mxCell>
        <mxCell id="5Cd2jNApZWjE8oHdZEPI-182" value="跳转表#n" style="text;html=1;align=center;verticalAlign=middle;whiteSpace=wrap;rounded=0;fontSize=7;fontStyle=1" vertex="1" parent="1">
          <mxGeometry x="670" y="330" width="30" height="20" as="geometry" />
        </mxCell>
        <mxCell id="5Cd2jNApZWjE8oHdZEPI-183" value="" style="rounded=0;whiteSpace=wrap;html=1;fillColor=#FFB366;" vertex="1" parent="1">
          <mxGeometry x="680" y="390" width="10" height="10" as="geometry" />
        </mxCell>
        <mxCell id="5Cd2jNApZWjE8oHdZEPI-185" value="&lt;font style=&quot;font-size: 6px;&quot;&gt;数据包断链&lt;/font&gt;" style="text;html=1;align=center;verticalAlign=middle;whiteSpace=wrap;rounded=0;fontFamily=Helvetica;fontSize=11;fontColor=default;labelBackgroundColor=none;fontStyle=1" vertex="1" parent="1">
          <mxGeometry x="647.13" y="415" width="35.74" height="14.8" as="geometry" />
        </mxCell>
        <mxCell id="5Cd2jNApZWjE8oHdZEPI-187" value="" style="shape=crossbar;whiteSpace=wrap;html=1;rounded=1;direction=south;fontFamily=Helvetica;fontSize=11;fontColor=default;labelBackgroundColor=default;rotation=90;" vertex="1" parent="1">
          <mxGeometry x="662.22" y="388" width="5.56" height="58.71" as="geometry" />
        </mxCell>
        <mxCell id="5Cd2jNApZWjE8oHdZEPI-196" value="" style="endArrow=blockThin;html=1;rounded=0;strokeColor=default;align=center;verticalAlign=middle;fontFamily=Helvetica;fontSize=11;fontColor=default;labelBackgroundColor=default;edgeStyle=orthogonalEdgeStyle;entryX=0;entryY=0.5;entryDx=0;entryDy=0;exitX=1;exitY=0.5;exitDx=0;exitDy=0;dashed=1;dashPattern=1 1;endFill=1;" edge="1" parent="1" source="5Cd2jNApZWjE8oHdZEPI-163" target="5Cd2jNApZWjE8oHdZEPI-180">
          <mxGeometry width="50" height="50" relative="1" as="geometry">
            <mxPoint x="540" y="400" as="sourcePoint" />
            <mxPoint x="590" y="350" as="targetPoint" />
          </mxGeometry>
        </mxCell>
        <mxCell id="5Cd2jNApZWjE8oHdZEPI-198" value="&lt;font style=&quot;font-size: 6px;&quot;&gt;&lt;b style=&quot;font-size: 6px;&quot;&gt;跳转表&lt;br&gt;断链&lt;br&gt;拼接&lt;/b&gt;&lt;/font&gt;" style="rounded=0;whiteSpace=wrap;html=1;fontFamily=Helvetica;fontSize=6;fontColor=default;labelBackgroundColor=none;" vertex="1" parent="1">
          <mxGeometry x="603.75" y="360" width="22.5" height="30" as="geometry" />
        </mxCell>
        <mxCell id="5Cd2jNApZWjE8oHdZEPI-204" value="队尾断链拼接" style="edgeStyle=orthogonalEdgeStyle;rounded=0;orthogonalLoop=1;jettySize=auto;html=1;exitX=0.5;exitY=0;exitDx=0;exitDy=0;entryX=0.5;entryY=1;entryDx=0;entryDy=0;strokeColor=default;align=center;verticalAlign=middle;fontFamily=Helvetica;fontSize=6;fontColor=default;labelBackgroundColor=default;endArrow=blockThin;endFill=1;fontStyle=1" edge="1" parent="1" source="5Cd2jNApZWjE8oHdZEPI-200" target="5Cd2jNApZWjE8oHdZEPI-202">
          <mxGeometry x="-0.2203" relative="1" as="geometry">
            <mxPoint as="offset" />
          </mxGeometry>
        </mxCell>
        <mxCell id="5Cd2jNApZWjE8oHdZEPI-200" value="原队尾 queue_tail" style="rounded=0;whiteSpace=wrap;html=1;fontSize=5;fillColor=#FF99FF;fontStyle=1;verticalAlign=middle;rotation=90;" vertex="1" parent="1">
          <mxGeometry x="560" y="443.2" width="50" height="10" as="geometry" />
        </mxCell>
        <mxCell id="5Cd2jNApZWjE8oHdZEPI-201" value="" style="triangle;whiteSpace=wrap;html=1;rotation=-90;fillColor=#FF99FF;" vertex="1" parent="1">
          <mxGeometry x="570" y="403" width="30" height="10" as="geometry" />
        </mxCell>
        <mxCell id="5Cd2jNApZWjE8oHdZEPI-202" value="队尾 queue_tail" style="rounded=0;whiteSpace=wrap;html=1;fontSize=5;fillColor=#FFB366;fontStyle=1;verticalAlign=middle;" vertex="1" parent="1">
          <mxGeometry x="722" y="390" width="50" height="10" as="geometry" />
        </mxCell>
        <mxCell id="5Cd2jNApZWjE8oHdZEPI-203" value="" style="triangle;whiteSpace=wrap;html=1;rotation=-180;fillColor=#FFB366;" vertex="1" parent="1">
          <mxGeometry x="692" y="390" width="30" height="10" as="geometry" />
        </mxCell>
        <mxCell id="5Cd2jNApZWjE8oHdZEPI-205" value="队头 queue_head" style="rounded=0;whiteSpace=wrap;html=1;fontSize=5;fillColor=#9AC7BF;fontStyle=1" vertex="1" parent="1">
          <mxGeometry x="368" y="340" width="50" height="10" as="geometry" />
        </mxCell>
        <mxCell id="5Cd2jNApZWjE8oHdZEPI-206" value="" style="triangle;whiteSpace=wrap;html=1;fillColor=#9AC7BF;" vertex="1" parent="1">
          <mxGeometry x="418" y="339.99" width="30" height="10" as="geometry" />
        </mxCell>
        <mxCell id="5Cd2jNApZWjE8oHdZEPI-207" value="" style="shape=process;whiteSpace=wrap;html=1;backgroundOutline=1;rotation=90;" vertex="1" parent="1">
          <mxGeometry x="1670" y="252.5" width="120" height="60" as="geometry" />
        </mxCell>
        <mxCell id="5Cd2jNApZWjE8oHdZEPI-208" value="" style="rounded=0;whiteSpace=wrap;html=1;" vertex="1" parent="1">
          <mxGeometry x="1700" y="232.5" width="60" height="10" as="geometry" />
        </mxCell>
        <mxCell id="5Cd2jNApZWjE8oHdZEPI-209" value="" style="rounded=0;whiteSpace=wrap;html=1;" vertex="1" parent="1">
          <mxGeometry x="1700" y="242.5" width="60" height="10" as="geometry" />
        </mxCell>
        <mxCell id="5Cd2jNApZWjE8oHdZEPI-210" value="空页地址" style="rounded=0;whiteSpace=wrap;html=1;fillColor=#CCFFFF;fontSize=5;" vertex="1" parent="1">
          <mxGeometry x="1700" y="262.5" width="60" height="10" as="geometry" />
        </mxCell>
        <mxCell id="5Cd2jNApZWjE8oHdZEPI-211" value="" style="rounded=0;whiteSpace=wrap;html=1;" vertex="1" parent="1">
          <mxGeometry x="1700" y="322.49999999999994" width="60" height="10" as="geometry" />
        </mxCell>
        <mxCell id="5Cd2jNApZWjE8oHdZEPI-212" value="..." style="rounded=0;whiteSpace=wrap;html=1;fillColor=#CCFFFF;" vertex="1" parent="1">
          <mxGeometry x="1700" y="282.5" width="60" height="30" as="geometry" />
        </mxCell>
        <mxCell id="5Cd2jNApZWjE8oHdZEPI-213" value="新空页地址" style="rounded=0;whiteSpace=wrap;html=1;rotation=-30;fillColor=#CCFFFF;fontSize=5;" vertex="1" parent="1">
          <mxGeometry x="1770" y="342.49999999999994" width="60" height="10" as="geometry" />
        </mxCell>
        <mxCell id="5Cd2jNApZWjE8oHdZEPI-214" value="" style="endArrow=blockThin;html=1;rounded=0;exitX=0.5;exitY=0;exitDx=0;exitDy=0;entryX=1;entryY=0.5;entryDx=0;entryDy=0;endFill=1;" edge="1" parent="1" source="5Cd2jNApZWjE8oHdZEPI-213" target="5Cd2jNApZWjE8oHdZEPI-211">
          <mxGeometry x="-0.003" y="-3" width="50" height="50" relative="1" as="geometry">
            <mxPoint x="1740" y="342.49999999999994" as="sourcePoint" />
            <mxPoint x="1790" y="292.5" as="targetPoint" />
            <mxPoint as="offset" />
          </mxGeometry>
        </mxCell>
        <mxCell id="5Cd2jNApZWjE8oHdZEPI-215" value="空页地址(头)" style="rounded=0;whiteSpace=wrap;html=1;fillColor=#CCFFFF;fontSize=5;" vertex="1" parent="1">
          <mxGeometry x="1700" y="252.5" width="60" height="10" as="geometry" />
        </mxCell>
        <mxCell id="5Cd2jNApZWjE8oHdZEPI-216" value="空页地址" style="rounded=0;whiteSpace=wrap;html=1;fillColor=#CCFFFF;fontSize=5;" vertex="1" parent="1">
          <mxGeometry x="1700" y="272.5" width="60" height="10" as="geometry" />
        </mxCell>
        <mxCell id="5Cd2jNApZWjE8oHdZEPI-217" value="空页地址" style="rounded=0;whiteSpace=wrap;html=1;fillColor=#CCFFFF;fontSize=5;" vertex="1" parent="1">
          <mxGeometry x="1700" y="312.5" width="60" height="10" as="geometry" />
        </mxCell>
        <mxCell id="5Cd2jNApZWjE8oHdZEPI-218" value="" style="endArrow=blockThin;html=1;rounded=0;exitX=0;exitY=0.5;exitDx=0;exitDy=0;endFill=1;" edge="1" parent="1" source="5Cd2jNApZWjE8oHdZEPI-215">
          <mxGeometry x="0.1184" y="7" width="50" height="50" relative="1" as="geometry">
            <mxPoint x="1640.0000000000002" y="255.01" as="sourcePoint" />
            <mxPoint x="1680" y="240.5" as="targetPoint" />
            <mxPoint as="offset" />
          </mxGeometry>
        </mxCell>
        <mxCell id="5Cd2jNApZWjE8oHdZEPI-219" value="&lt;font style=&quot;font-size: 6px;&quot;&gt;插入&lt;/font&gt;" style="text;html=1;align=center;verticalAlign=middle;whiteSpace=wrap;rounded=0;fontSize=6;rotation=0;" vertex="1" parent="1">
          <mxGeometry x="1776" y="325.49999999999994" width="20" height="10" as="geometry" />
        </mxCell>
        <mxCell id="5Cd2jNApZWjE8oHdZEPI-220" value="弹出" style="text;html=1;align=center;verticalAlign=middle;whiteSpace=wrap;rounded=0;fontSize=6;rotation=0;" vertex="1" parent="1">
          <mxGeometry x="1765" y="239.5" width="20" height="10" as="geometry" />
        </mxCell>
        <mxCell id="5Cd2jNApZWjE8oHdZEPI-273" value="" style="html=1;whiteSpace=wrap;shape=isoCube2;backgroundOutline=1;isoAngle=15;fontFamily=Helvetica;fontSize=11;labelBackgroundColor=default;" vertex="1" parent="1">
          <mxGeometry x="910" y="280" width="20" height="20" as="geometry" />
        </mxCell>
        <mxCell id="5Cd2jNApZWjE8oHdZEPI-274" value="" style="html=1;whiteSpace=wrap;shape=isoCube2;backgroundOutline=1;isoAngle=15;fontFamily=Helvetica;fontSize=11;labelBackgroundColor=default;" vertex="1" parent="1">
          <mxGeometry x="935" y="280" width="20" height="20" as="geometry" />
        </mxCell>
        <mxCell id="5Cd2jNApZWjE8oHdZEPI-275" value="" style="html=1;whiteSpace=wrap;shape=isoCube2;backgroundOutline=1;isoAngle=15;fontFamily=Helvetica;fontSize=11;labelBackgroundColor=default;" vertex="1" parent="1">
          <mxGeometry x="960" y="280" width="20" height="20" as="geometry" />
        </mxCell>
        <mxCell id="5Cd2jNApZWjE8oHdZEPI-276" value="" style="html=1;whiteSpace=wrap;shape=isoCube2;backgroundOutline=1;isoAngle=15;fontFamily=Helvetica;fontSize=11;labelBackgroundColor=default;" vertex="1" parent="1">
          <mxGeometry x="985" y="280" width="20" height="20" as="geometry" />
        </mxCell>
        <mxCell id="5Cd2jNApZWjE8oHdZEPI-281" value="" style="html=1;whiteSpace=wrap;shape=isoCube2;backgroundOutline=1;isoAngle=15;fontFamily=Helvetica;fontSize=11;labelBackgroundColor=default;" vertex="1" parent="1">
          <mxGeometry x="1010" y="280" width="20" height="20" as="geometry" />
        </mxCell>
        <mxCell id="5Cd2jNApZWjE8oHdZEPI-282" value="" style="html=1;whiteSpace=wrap;shape=isoCube2;backgroundOutline=1;isoAngle=15;fontFamily=Helvetica;fontSize=11;labelBackgroundColor=default;" vertex="1" parent="1">
          <mxGeometry x="1035" y="280" width="20" height="20" as="geometry" />
        </mxCell>
        <mxCell id="5Cd2jNApZWjE8oHdZEPI-283" value="" style="html=1;whiteSpace=wrap;shape=isoCube2;backgroundOutline=1;isoAngle=15;fontFamily=Helvetica;fontSize=11;labelBackgroundColor=default;" vertex="1" parent="1">
          <mxGeometry x="1060" y="280" width="20" height="20" as="geometry" />
        </mxCell>
        <mxCell id="5Cd2jNApZWjE8oHdZEPI-284" value="" style="html=1;whiteSpace=wrap;shape=isoCube2;backgroundOutline=1;isoAngle=15;fontFamily=Helvetica;fontSize=11;labelBackgroundColor=default;" vertex="1" parent="1">
          <mxGeometry x="1085" y="280" width="20" height="20" as="geometry" />
        </mxCell>
        <mxCell id="5Cd2jNApZWjE8oHdZEPI-285" value="" style="html=1;whiteSpace=wrap;shape=isoCube2;backgroundOutline=1;isoAngle=15;fontFamily=Helvetica;fontSize=11;labelBackgroundColor=default;" vertex="1" parent="1">
          <mxGeometry x="905" y="290" width="20" height="20" as="geometry" />
        </mxCell>
        <mxCell id="5Cd2jNApZWjE8oHdZEPI-286" value="" style="html=1;whiteSpace=wrap;shape=isoCube2;backgroundOutline=1;isoAngle=15;fontFamily=Helvetica;fontSize=11;labelBackgroundColor=default;fillColor=#fff2cc;strokeColor=#d6b656;" vertex="1" parent="1">
          <mxGeometry x="930" y="290" width="20" height="20" as="geometry" />
        </mxCell>
        <mxCell id="5Cd2jNApZWjE8oHdZEPI-287" value="" style="html=1;whiteSpace=wrap;shape=isoCube2;backgroundOutline=1;isoAngle=15;fontFamily=Helvetica;fontSize=11;labelBackgroundColor=default;" vertex="1" parent="1">
          <mxGeometry x="955" y="290" width="20" height="20" as="geometry" />
        </mxCell>
        <mxCell id="5Cd2jNApZWjE8oHdZEPI-288" value="" style="html=1;whiteSpace=wrap;shape=isoCube2;backgroundOutline=1;isoAngle=15;fontFamily=Helvetica;fontSize=11;labelBackgroundColor=default;" vertex="1" parent="1">
          <mxGeometry x="980" y="290" width="20" height="20" as="geometry" />
        </mxCell>
        <mxCell id="5Cd2jNApZWjE8oHdZEPI-289" value="" style="html=1;whiteSpace=wrap;shape=isoCube2;backgroundOutline=1;isoAngle=15;fontFamily=Helvetica;fontSize=11;labelBackgroundColor=default;" vertex="1" parent="1">
          <mxGeometry x="1005" y="290" width="20" height="20" as="geometry" />
        </mxCell>
        <mxCell id="5Cd2jNApZWjE8oHdZEPI-290" value="" style="html=1;whiteSpace=wrap;shape=isoCube2;backgroundOutline=1;isoAngle=15;fontFamily=Helvetica;fontSize=11;labelBackgroundColor=default;fillColor=#e1d5e7;strokeColor=#9673a6;" vertex="1" parent="1">
          <mxGeometry x="1030" y="290" width="20" height="20" as="geometry" />
        </mxCell>
        <mxCell id="5Cd2jNApZWjE8oHdZEPI-291" value="" style="html=1;whiteSpace=wrap;shape=isoCube2;backgroundOutline=1;isoAngle=15;fontFamily=Helvetica;fontSize=11;labelBackgroundColor=default;" vertex="1" parent="1">
          <mxGeometry x="1055" y="290" width="20" height="20" as="geometry" />
        </mxCell>
        <mxCell id="5Cd2jNApZWjE8oHdZEPI-292" value="" style="html=1;whiteSpace=wrap;shape=isoCube2;backgroundOutline=1;isoAngle=15;fontFamily=Helvetica;fontSize=11;labelBackgroundColor=default;" vertex="1" parent="1">
          <mxGeometry x="1080" y="290" width="20" height="20" as="geometry" />
        </mxCell>
        <mxCell id="5Cd2jNApZWjE8oHdZEPI-293" value="" style="html=1;whiteSpace=wrap;shape=isoCube2;backgroundOutline=1;isoAngle=15;fontFamily=Helvetica;fontSize=11;labelBackgroundColor=default;" vertex="1" parent="1">
          <mxGeometry x="900" y="300" width="20" height="20" as="geometry" />
        </mxCell>
        <mxCell id="5Cd2jNApZWjE8oHdZEPI-294" value="" style="html=1;whiteSpace=wrap;shape=isoCube2;backgroundOutline=1;isoAngle=15;fontFamily=Helvetica;fontSize=11;labelBackgroundColor=default;" vertex="1" parent="1">
          <mxGeometry x="925" y="300" width="20" height="20" as="geometry" />
        </mxCell>
        <mxCell id="5Cd2jNApZWjE8oHdZEPI-295" value="" style="html=1;whiteSpace=wrap;shape=isoCube2;backgroundOutline=1;isoAngle=15;fontFamily=Helvetica;fontSize=11;labelBackgroundColor=default;" vertex="1" parent="1">
          <mxGeometry x="950" y="300" width="20" height="20" as="geometry" />
        </mxCell>
        <mxCell id="5Cd2jNApZWjE8oHdZEPI-296" value="" style="html=1;whiteSpace=wrap;shape=isoCube2;backgroundOutline=1;isoAngle=15;fontFamily=Helvetica;fontSize=11;labelBackgroundColor=default;" vertex="1" parent="1">
          <mxGeometry x="975" y="300" width="20" height="20" as="geometry" />
        </mxCell>
        <mxCell id="5Cd2jNApZWjE8oHdZEPI-297" value="" style="html=1;whiteSpace=wrap;shape=isoCube2;backgroundOutline=1;isoAngle=15;fontFamily=Helvetica;fontSize=11;labelBackgroundColor=default;" vertex="1" parent="1">
          <mxGeometry x="1000" y="300" width="20" height="20" as="geometry" />
        </mxCell>
        <mxCell id="5Cd2jNApZWjE8oHdZEPI-298" value="" style="html=1;whiteSpace=wrap;shape=isoCube2;backgroundOutline=1;isoAngle=15;fontFamily=Helvetica;fontSize=11;labelBackgroundColor=default;" vertex="1" parent="1">
          <mxGeometry x="1025" y="300" width="20" height="20" as="geometry" />
        </mxCell>
        <mxCell id="5Cd2jNApZWjE8oHdZEPI-299" value="" style="html=1;whiteSpace=wrap;shape=isoCube2;backgroundOutline=1;isoAngle=15;fontFamily=Helvetica;fontSize=11;labelBackgroundColor=default;" vertex="1" parent="1">
          <mxGeometry x="1050" y="300" width="20" height="20" as="geometry" />
        </mxCell>
        <mxCell id="5Cd2jNApZWjE8oHdZEPI-300" value="" style="html=1;whiteSpace=wrap;shape=isoCube2;backgroundOutline=1;isoAngle=15;fontFamily=Helvetica;fontSize=11;labelBackgroundColor=default;" vertex="1" parent="1">
          <mxGeometry x="1075" y="300" width="20" height="20" as="geometry" />
        </mxCell>
        <mxCell id="5Cd2jNApZWjE8oHdZEPI-301" value="" style="html=1;whiteSpace=wrap;shape=isoCube2;backgroundOutline=1;isoAngle=15;fontFamily=Helvetica;fontSize=11;labelBackgroundColor=default;" vertex="1" parent="1">
          <mxGeometry x="895" y="310" width="20" height="20" as="geometry" />
        </mxCell>
        <mxCell id="5Cd2jNApZWjE8oHdZEPI-302" value="" style="html=1;whiteSpace=wrap;shape=isoCube2;backgroundOutline=1;isoAngle=15;fontFamily=Helvetica;fontSize=11;labelBackgroundColor=default;" vertex="1" parent="1">
          <mxGeometry x="920" y="310" width="20" height="20" as="geometry" />
        </mxCell>
        <mxCell id="5Cd2jNApZWjE8oHdZEPI-303" value="" style="html=1;whiteSpace=wrap;shape=isoCube2;backgroundOutline=1;isoAngle=15;fontFamily=Helvetica;fontSize=11;labelBackgroundColor=default;" vertex="1" parent="1">
          <mxGeometry x="945" y="310" width="20" height="20" as="geometry" />
        </mxCell>
        <mxCell id="5Cd2jNApZWjE8oHdZEPI-304" value="" style="html=1;whiteSpace=wrap;shape=isoCube2;backgroundOutline=1;isoAngle=15;fontFamily=Helvetica;fontSize=11;labelBackgroundColor=default;fillColor=#d5e8d4;strokeColor=#82b366;" vertex="1" parent="1">
          <mxGeometry x="970" y="310" width="20" height="20" as="geometry" />
        </mxCell>
        <mxCell id="5Cd2jNApZWjE8oHdZEPI-305" value="" style="html=1;whiteSpace=wrap;shape=isoCube2;backgroundOutline=1;isoAngle=15;fontFamily=Helvetica;fontSize=11;labelBackgroundColor=default;" vertex="1" parent="1">
          <mxGeometry x="995" y="310" width="20" height="20" as="geometry" />
        </mxCell>
        <mxCell id="5Cd2jNApZWjE8oHdZEPI-306" value="" style="html=1;whiteSpace=wrap;shape=isoCube2;backgroundOutline=1;isoAngle=15;fontFamily=Helvetica;fontSize=11;labelBackgroundColor=default;" vertex="1" parent="1">
          <mxGeometry x="1020" y="310" width="20" height="20" as="geometry" />
        </mxCell>
        <mxCell id="5Cd2jNApZWjE8oHdZEPI-307" value="" style="html=1;whiteSpace=wrap;shape=isoCube2;backgroundOutline=1;isoAngle=15;fontFamily=Helvetica;fontSize=11;labelBackgroundColor=default;" vertex="1" parent="1">
          <mxGeometry x="1045" y="310" width="20" height="20" as="geometry" />
        </mxCell>
        <mxCell id="5Cd2jNApZWjE8oHdZEPI-308" value="" style="html=1;whiteSpace=wrap;shape=isoCube2;backgroundOutline=1;isoAngle=15;fontFamily=Helvetica;fontSize=11;labelBackgroundColor=default;" vertex="1" parent="1">
          <mxGeometry x="1070" y="310" width="20" height="20" as="geometry" />
        </mxCell>
        <mxCell id="5Cd2jNApZWjE8oHdZEPI-269" style="edgeStyle=orthogonalEdgeStyle;rounded=0;orthogonalLoop=1;jettySize=auto;html=1;exitX=0.5;exitY=1;exitDx=0;exitDy=0;exitPerimeter=0;strokeColor=#d6b656;align=center;verticalAlign=middle;fontFamily=Helvetica;fontSize=11;fontColor=default;labelBackgroundColor=default;endArrow=blockThin;endFill=1;fillColor=#fff2cc;entryX=0.5;entryY=0;entryDx=0;entryDy=0;entryPerimeter=0;" edge="1" parent="1" target="5Cd2jNApZWjE8oHdZEPI-286">
          <mxGeometry relative="1" as="geometry">
            <mxPoint x="970" y="271" as="targetPoint" />
            <mxPoint x="970.0000000000002" y="255.5" as="sourcePoint" />
            <Array as="points">
              <mxPoint x="970" y="270" />
              <mxPoint x="940" y="270" />
            </Array>
          </mxGeometry>
        </mxCell>
        <mxCell id="5Cd2jNApZWjE8oHdZEPI-271" style="edgeStyle=orthogonalEdgeStyle;rounded=0;orthogonalLoop=1;jettySize=auto;html=1;exitX=0.5;exitY=1;exitDx=0;exitDy=0;exitPerimeter=0;strokeColor=#9673a6;align=center;verticalAlign=middle;fontFamily=Helvetica;fontSize=11;fontColor=default;labelBackgroundColor=default;endArrow=blockThin;endFill=1;fillColor=#e1d5e7;entryX=0.5;entryY=0;entryDx=0;entryDy=0;entryPerimeter=0;" edge="1" parent="1" target="5Cd2jNApZWjE8oHdZEPI-290">
          <mxGeometry relative="1" as="geometry">
            <mxPoint x="1015" y="270.5" as="targetPoint" />
            <mxPoint x="1015.0000000000002" y="243.5" as="sourcePoint" />
            <Array as="points">
              <mxPoint x="1015" y="270" />
              <mxPoint x="1040" y="270" />
            </Array>
          </mxGeometry>
        </mxCell>
        <mxCell id="5Cd2jNApZWjE8oHdZEPI-357" value="" style="shape=cylinder3;whiteSpace=wrap;html=1;boundedLbl=1;backgroundOutline=1;size=2.8571341378348905;fontFamily=Helvetica;fontSize=11;fontColor=#333333;labelBackgroundColor=default;rotation=-360;opacity=40;fillColor=#f5f5f5;strokeColor=#666666;" vertex="1" parent="1">
          <mxGeometry x="1285" y="188" width="10" height="37.5" as="geometry" />
        </mxCell>
        <mxCell id="5Cd2jNApZWjE8oHdZEPI-358" value="" style="shape=cylinder3;whiteSpace=wrap;html=1;boundedLbl=1;backgroundOutline=1;size=2.8571341378348905;fontFamily=Helvetica;fontSize=11;fontColor=#333333;labelBackgroundColor=default;rotation=-360;opacity=40;fillColor=#f5f5f5;strokeColor=#666666;" vertex="1" parent="1">
          <mxGeometry x="1265" y="188" width="10" height="37.5" as="geometry" />
        </mxCell>
        <mxCell id="5Cd2jNApZWjE8oHdZEPI-359" value="" style="shape=cylinder3;whiteSpace=wrap;html=1;boundedLbl=1;backgroundOutline=1;size=2.8571341378348905;fontFamily=Helvetica;fontSize=11;fontColor=#333333;labelBackgroundColor=default;rotation=-360;opacity=40;fillColor=#f5f5f5;strokeColor=#666666;" vertex="1" parent="1">
          <mxGeometry x="1245" y="188" width="10" height="37.5" as="geometry" />
        </mxCell>
        <mxCell id="5Cd2jNApZWjE8oHdZEPI-360" value="" style="shape=cylinder3;whiteSpace=wrap;html=1;boundedLbl=1;backgroundOutline=1;size=2.8571341378348905;fontFamily=Helvetica;fontSize=11;fontColor=#333333;labelBackgroundColor=default;rotation=-360;opacity=40;fillColor=#f5f5f5;strokeColor=#666666;" vertex="1" parent="1">
          <mxGeometry x="1225" y="188" width="10" height="37.5" as="geometry" />
        </mxCell>
        <mxCell id="5Cd2jNApZWjE8oHdZEPI-361" value="" style="shape=cylinder3;whiteSpace=wrap;html=1;boundedLbl=1;backgroundOutline=1;size=2.8571341378348905;fontFamily=Helvetica;fontSize=11;fontColor=#333333;labelBackgroundColor=default;rotation=-360;opacity=40;fillColor=#f5f5f5;strokeColor=#666666;" vertex="1" parent="1">
          <mxGeometry x="1280" y="197" width="10" height="37.5" as="geometry" />
        </mxCell>
        <mxCell id="5Cd2jNApZWjE8oHdZEPI-362" value="" style="shape=cylinder3;whiteSpace=wrap;html=1;boundedLbl=1;backgroundOutline=1;size=2.8571341378348905;fontFamily=Helvetica;fontSize=11;fontColor=#333333;labelBackgroundColor=default;rotation=-360;opacity=40;fillColor=#f5f5f5;strokeColor=#666666;" vertex="1" parent="1">
          <mxGeometry x="1260" y="197" width="10" height="37.5" as="geometry" />
        </mxCell>
        <mxCell id="5Cd2jNApZWjE8oHdZEPI-363" value="" style="shape=cylinder3;whiteSpace=wrap;html=1;boundedLbl=1;backgroundOutline=1;size=2.8571341378348905;fontFamily=Helvetica;fontSize=11;fontColor=#333333;labelBackgroundColor=default;rotation=-360;opacity=40;fillColor=#f5f5f5;strokeColor=#666666;" vertex="1" parent="1">
          <mxGeometry x="1240" y="197" width="10" height="37.5" as="geometry" />
        </mxCell>
        <mxCell id="5Cd2jNApZWjE8oHdZEPI-364" value="" style="shape=cylinder3;whiteSpace=wrap;html=1;boundedLbl=1;backgroundOutline=1;size=2.8571341378348905;fontFamily=Helvetica;fontSize=11;fontColor=#333333;labelBackgroundColor=default;rotation=-360;opacity=40;fillColor=#f5f5f5;strokeColor=#666666;" vertex="1" parent="1">
          <mxGeometry x="1220" y="197" width="10" height="37.5" as="geometry" />
        </mxCell>
        <mxCell id="5Cd2jNApZWjE8oHdZEPI-365" value="" style="shape=cylinder3;whiteSpace=wrap;html=1;boundedLbl=1;backgroundOutline=1;size=2.8571341378348905;fontFamily=Helvetica;fontSize=11;fontColor=#333333;labelBackgroundColor=default;rotation=-360;opacity=40;fillColor=#f5f5f5;strokeColor=#666666;" vertex="1" parent="1">
          <mxGeometry x="1275" y="207" width="10" height="37.5" as="geometry" />
        </mxCell>
        <mxCell id="5Cd2jNApZWjE8oHdZEPI-366" value="" style="shape=cylinder3;whiteSpace=wrap;html=1;boundedLbl=1;backgroundOutline=1;size=2.8571341378348905;fontFamily=Helvetica;fontSize=6;labelBackgroundColor=none;rotation=-360;fontStyle=1;opacity=40;fillColor=#f5f5f5;fontColor=#333333;strokeColor=#666666;" vertex="1" parent="1">
          <mxGeometry x="1255" y="207" width="10" height="37.5" as="geometry" />
        </mxCell>
        <mxCell id="5Cd2jNApZWjE8oHdZEPI-367" value="" style="shape=cylinder3;whiteSpace=wrap;html=1;boundedLbl=1;backgroundOutline=1;size=2.8571341378348905;fontFamily=Helvetica;fontSize=11;labelBackgroundColor=default;rotation=-360;" vertex="1" parent="1">
          <mxGeometry x="1235" y="207" width="10" height="37.5" as="geometry" />
        </mxCell>
        <mxCell id="5Cd2jNApZWjE8oHdZEPI-368" value="" style="shape=cylinder3;whiteSpace=wrap;html=1;boundedLbl=1;backgroundOutline=1;size=2.8571341378348905;fontFamily=Helvetica;fontSize=11;fontColor=#333333;labelBackgroundColor=default;rotation=-360;opacity=40;fillColor=#f5f5f5;strokeColor=#666666;" vertex="1" parent="1">
          <mxGeometry x="1215" y="207" width="10" height="37.5" as="geometry" />
        </mxCell>
        <mxCell id="5Cd2jNApZWjE8oHdZEPI-369" value="" style="html=1;whiteSpace=wrap;shape=isoCube2;backgroundOutline=1;isoAngle=15;fontFamily=Helvetica;fontSize=11;labelBackgroundColor=default;fillColor=#000000;" vertex="1" parent="1">
          <mxGeometry x="1155" y="280" width="20" height="20" as="geometry" />
        </mxCell>
        <mxCell id="5Cd2jNApZWjE8oHdZEPI-370" value="" style="html=1;whiteSpace=wrap;shape=isoCube2;backgroundOutline=1;isoAngle=15;fontFamily=Helvetica;fontSize=11;labelBackgroundColor=default;fillColor=#d5e8d4;strokeColor=#82b366;" vertex="1" parent="1">
          <mxGeometry x="1180" y="280" width="20" height="20" as="geometry" />
        </mxCell>
        <mxCell id="5Cd2jNApZWjE8oHdZEPI-371" value="" style="html=1;whiteSpace=wrap;shape=isoCube2;backgroundOutline=1;isoAngle=15;fontFamily=Helvetica;fontSize=11;labelBackgroundColor=default;fillColor=#000000;" vertex="1" parent="1">
          <mxGeometry x="1205" y="280" width="20" height="20" as="geometry" />
        </mxCell>
        <mxCell id="5Cd2jNApZWjE8oHdZEPI-372" value="" style="html=1;whiteSpace=wrap;shape=isoCube2;backgroundOutline=1;isoAngle=15;fontFamily=Helvetica;fontSize=11;labelBackgroundColor=default;" vertex="1" parent="1">
          <mxGeometry x="1230" y="280" width="20" height="20" as="geometry" />
        </mxCell>
        <mxCell id="5Cd2jNApZWjE8oHdZEPI-373" value="" style="html=1;whiteSpace=wrap;shape=isoCube2;backgroundOutline=1;isoAngle=15;fontFamily=Helvetica;fontSize=11;labelBackgroundColor=default;fillColor=#d5e8d4;strokeColor=#82b366;" vertex="1" parent="1">
          <mxGeometry x="1255" y="280" width="20" height="20" as="geometry" />
        </mxCell>
        <mxCell id="5Cd2jNApZWjE8oHdZEPI-374" value="" style="html=1;whiteSpace=wrap;shape=isoCube2;backgroundOutline=1;isoAngle=15;fontFamily=Helvetica;fontSize=11;labelBackgroundColor=default;" vertex="1" parent="1">
          <mxGeometry x="1280" y="280" width="20" height="20" as="geometry" />
        </mxCell>
        <mxCell id="5Cd2jNApZWjE8oHdZEPI-375" value="" style="html=1;whiteSpace=wrap;shape=isoCube2;backgroundOutline=1;isoAngle=15;fontFamily=Helvetica;fontSize=11;labelBackgroundColor=default;fillColor=#000000;" vertex="1" parent="1">
          <mxGeometry x="1305" y="280" width="20" height="20" as="geometry" />
        </mxCell>
        <mxCell id="5Cd2jNApZWjE8oHdZEPI-376" value="" style="html=1;whiteSpace=wrap;shape=isoCube2;backgroundOutline=1;isoAngle=15;fontFamily=Helvetica;fontSize=11;labelBackgroundColor=default;fillColor=#dae8fc;strokeColor=#004C99;" vertex="1" parent="1">
          <mxGeometry x="1330" y="280" width="20" height="20" as="geometry" />
        </mxCell>
        <mxCell id="5Cd2jNApZWjE8oHdZEPI-377" value="" style="html=1;whiteSpace=wrap;shape=isoCube2;backgroundOutline=1;isoAngle=15;fontFamily=Helvetica;fontSize=11;labelBackgroundColor=default;fillColor=#dae8fc;strokeColor=#004C99;" vertex="1" parent="1">
          <mxGeometry x="1150" y="290" width="20" height="20" as="geometry" />
        </mxCell>
        <mxCell id="5Cd2jNApZWjE8oHdZEPI-378" value="" style="html=1;whiteSpace=wrap;shape=isoCube2;backgroundOutline=1;isoAngle=15;fontFamily=Helvetica;fontSize=11;labelBackgroundColor=default;fillColor=#C5DCF7;strokeColor=#004C99;" vertex="1" parent="1">
          <mxGeometry x="1175" y="290" width="20" height="20" as="geometry" />
        </mxCell>
        <mxCell id="5Cd2jNApZWjE8oHdZEPI-379" value="" style="html=1;whiteSpace=wrap;shape=isoCube2;backgroundOutline=1;isoAngle=15;fontFamily=Helvetica;fontSize=11;labelBackgroundColor=default;" vertex="1" parent="1">
          <mxGeometry x="1200" y="290" width="20" height="20" as="geometry" />
        </mxCell>
        <mxCell id="5Cd2jNApZWjE8oHdZEPI-380" value="" style="html=1;whiteSpace=wrap;shape=isoCube2;backgroundOutline=1;isoAngle=15;fontFamily=Helvetica;fontSize=11;labelBackgroundColor=default;fillColor=#000000;" vertex="1" parent="1">
          <mxGeometry x="1225" y="290" width="20" height="20" as="geometry" />
        </mxCell>
        <mxCell id="5Cd2jNApZWjE8oHdZEPI-381" value="" style="html=1;whiteSpace=wrap;shape=isoCube2;backgroundOutline=1;isoAngle=15;fontFamily=Helvetica;fontSize=11;labelBackgroundColor=default;" vertex="1" parent="1">
          <mxGeometry x="1250" y="290" width="20" height="20" as="geometry" />
        </mxCell>
        <mxCell id="5Cd2jNApZWjE8oHdZEPI-382" value="" style="html=1;whiteSpace=wrap;shape=isoCube2;backgroundOutline=1;isoAngle=15;fontFamily=Helvetica;fontSize=11;labelBackgroundColor=default;fillColor=#f8cecc;strokeColor=#b85450;" vertex="1" parent="1">
          <mxGeometry x="1275" y="290" width="20" height="20" as="geometry" />
        </mxCell>
        <mxCell id="5Cd2jNApZWjE8oHdZEPI-383" value="" style="html=1;whiteSpace=wrap;shape=isoCube2;backgroundOutline=1;isoAngle=15;fontFamily=Helvetica;fontSize=11;labelBackgroundColor=default;" vertex="1" parent="1">
          <mxGeometry x="1300" y="290" width="20" height="20" as="geometry" />
        </mxCell>
        <mxCell id="5Cd2jNApZWjE8oHdZEPI-384" value="" style="html=1;whiteSpace=wrap;shape=isoCube2;backgroundOutline=1;isoAngle=15;fontFamily=Helvetica;fontSize=11;labelBackgroundColor=default;" vertex="1" parent="1">
          <mxGeometry x="1325" y="290" width="20" height="20" as="geometry" />
        </mxCell>
        <mxCell id="5Cd2jNApZWjE8oHdZEPI-385" value="" style="html=1;whiteSpace=wrap;shape=isoCube2;backgroundOutline=1;isoAngle=15;fontFamily=Helvetica;fontSize=11;labelBackgroundColor=default;" vertex="1" parent="1">
          <mxGeometry x="1145" y="300" width="20" height="20" as="geometry" />
        </mxCell>
        <mxCell id="5Cd2jNApZWjE8oHdZEPI-386" value="" style="html=1;whiteSpace=wrap;shape=isoCube2;backgroundOutline=1;isoAngle=15;fontFamily=Helvetica;fontSize=11;labelBackgroundColor=default;" vertex="1" parent="1">
          <mxGeometry x="1170" y="300" width="20" height="20" as="geometry" />
        </mxCell>
        <mxCell id="5Cd2jNApZWjE8oHdZEPI-387" value="" style="html=1;whiteSpace=wrap;shape=isoCube2;backgroundOutline=1;isoAngle=15;fontFamily=Helvetica;fontSize=11;labelBackgroundColor=default;" vertex="1" parent="1">
          <mxGeometry x="1195" y="300" width="20" height="20" as="geometry" />
        </mxCell>
        <mxCell id="5Cd2jNApZWjE8oHdZEPI-388" value="" style="html=1;whiteSpace=wrap;shape=isoCube2;backgroundOutline=1;isoAngle=15;fontFamily=Helvetica;fontSize=11;labelBackgroundColor=default;fillColor=#f8cecc;strokeColor=#b85450;" vertex="1" parent="1">
          <mxGeometry x="1220" y="300" width="20" height="20" as="geometry" />
        </mxCell>
        <mxCell id="5Cd2jNApZWjE8oHdZEPI-389" value="" style="html=1;whiteSpace=wrap;shape=isoCube2;backgroundOutline=1;isoAngle=15;fontFamily=Helvetica;fontSize=11;labelBackgroundColor=default;fillColor=#ADC3D9;strokeColor=#004C99;shadow=0;strokeWidth=1;" vertex="1" parent="1">
          <mxGeometry x="1245" y="300" width="20" height="20" as="geometry" />
        </mxCell>
        <mxCell id="5Cd2jNApZWjE8oHdZEPI-390" value="" style="html=1;whiteSpace=wrap;shape=isoCube2;backgroundOutline=1;isoAngle=15;fontFamily=Helvetica;fontSize=11;labelBackgroundColor=default;" vertex="1" parent="1">
          <mxGeometry x="1270" y="300" width="20" height="20" as="geometry" />
        </mxCell>
        <mxCell id="5Cd2jNApZWjE8oHdZEPI-391" value="" style="html=1;whiteSpace=wrap;shape=isoCube2;backgroundOutline=1;isoAngle=15;fontFamily=Helvetica;fontSize=11;labelBackgroundColor=default;" vertex="1" parent="1">
          <mxGeometry x="1295" y="300" width="20" height="20" as="geometry" />
        </mxCell>
        <mxCell id="5Cd2jNApZWjE8oHdZEPI-392" value="" style="html=1;whiteSpace=wrap;shape=isoCube2;backgroundOutline=1;isoAngle=15;fontFamily=Helvetica;fontSize=11;labelBackgroundColor=default;" vertex="1" parent="1">
          <mxGeometry x="1320" y="300" width="20" height="20" as="geometry" />
        </mxCell>
        <mxCell id="5Cd2jNApZWjE8oHdZEPI-393" value="" style="html=1;whiteSpace=wrap;shape=isoCube2;backgroundOutline=1;isoAngle=15;fontFamily=Helvetica;fontSize=11;labelBackgroundColor=default;" vertex="1" parent="1">
          <mxGeometry x="1140" y="310" width="20" height="20" as="geometry" />
        </mxCell>
        <mxCell id="5Cd2jNApZWjE8oHdZEPI-394" value="" style="html=1;whiteSpace=wrap;shape=isoCube2;backgroundOutline=1;isoAngle=15;fontFamily=Helvetica;fontSize=11;labelBackgroundColor=default;" vertex="1" parent="1">
          <mxGeometry x="1165" y="310" width="20" height="20" as="geometry" />
        </mxCell>
        <mxCell id="5Cd2jNApZWjE8oHdZEPI-395" value="" style="html=1;whiteSpace=wrap;shape=isoCube2;backgroundOutline=1;isoAngle=15;fontFamily=Helvetica;fontSize=11;labelBackgroundColor=default;fillColor=#d5e8d4;strokeColor=#82b366;" vertex="1" parent="1">
          <mxGeometry x="1190" y="310" width="20" height="20" as="geometry" />
        </mxCell>
        <mxCell id="5Cd2jNApZWjE8oHdZEPI-396" value="" style="html=1;whiteSpace=wrap;shape=isoCube2;backgroundOutline=1;isoAngle=15;fontFamily=Helvetica;fontSize=11;labelBackgroundColor=default;" vertex="1" parent="1">
          <mxGeometry x="1215" y="310" width="20" height="20" as="geometry" />
        </mxCell>
        <mxCell id="5Cd2jNApZWjE8oHdZEPI-397" value="" style="html=1;whiteSpace=wrap;shape=isoCube2;backgroundOutline=1;isoAngle=15;fontFamily=Helvetica;fontSize=11;labelBackgroundColor=default;fillColor=#000000;" vertex="1" parent="1">
          <mxGeometry x="1240" y="310" width="20" height="20" as="geometry" />
        </mxCell>
        <mxCell id="5Cd2jNApZWjE8oHdZEPI-398" value="" style="html=1;whiteSpace=wrap;shape=isoCube2;backgroundOutline=1;isoAngle=15;fontFamily=Helvetica;fontSize=11;labelBackgroundColor=default;" vertex="1" parent="1">
          <mxGeometry x="1265" y="310" width="20" height="20" as="geometry" />
        </mxCell>
        <mxCell id="5Cd2jNApZWjE8oHdZEPI-399" value="" style="html=1;whiteSpace=wrap;shape=isoCube2;backgroundOutline=1;isoAngle=15;fontFamily=Helvetica;fontSize=11;labelBackgroundColor=default;fillColor=#000000;" vertex="1" parent="1">
          <mxGeometry x="1290" y="310" width="20" height="20" as="geometry" />
        </mxCell>
        <mxCell id="5Cd2jNApZWjE8oHdZEPI-400" value="" style="html=1;whiteSpace=wrap;shape=isoCube2;backgroundOutline=1;isoAngle=15;fontFamily=Helvetica;fontSize=11;labelBackgroundColor=default;" vertex="1" parent="1">
          <mxGeometry x="1315" y="310" width="20" height="20" as="geometry" />
        </mxCell>
        <mxCell id="5Cd2jNApZWjE8oHdZEPI-403" value="" style="shape=cylinder3;whiteSpace=wrap;html=1;boundedLbl=1;backgroundOutline=1;size=2.8571341378348905;fontFamily=Helvetica;fontSize=11;fontColor=#333333;labelBackgroundColor=default;rotation=-360;opacity=40;fillColor=#f5f5f5;strokeColor=#666666;" vertex="1" parent="1">
          <mxGeometry x="1270" y="217" width="10" height="37.5" as="geometry" />
        </mxCell>
        <mxCell id="5Cd2jNApZWjE8oHdZEPI-404" value="" style="shape=cylinder3;whiteSpace=wrap;html=1;boundedLbl=1;backgroundOutline=1;size=2.8571341378348905;fontFamily=Helvetica;fontSize=11;fontColor=#333333;labelBackgroundColor=default;rotation=-360;opacity=40;fillColor=#f5f5f5;strokeColor=#666666;" vertex="1" parent="1">
          <mxGeometry x="1250" y="217" width="10" height="37.5" as="geometry" />
        </mxCell>
        <mxCell id="5Cd2jNApZWjE8oHdZEPI-405" value="" style="shape=cylinder3;whiteSpace=wrap;html=1;boundedLbl=1;backgroundOutline=1;size=2.8571341378348905;fontFamily=Helvetica;fontSize=11;fontColor=#333333;labelBackgroundColor=default;rotation=-360;opacity=40;fillColor=#f5f5f5;strokeColor=#666666;" vertex="1" parent="1">
          <mxGeometry x="1230" y="217" width="10" height="37.5" as="geometry" />
        </mxCell>
        <mxCell id="5Cd2jNApZWjE8oHdZEPI-406" value="" style="shape=cylinder3;whiteSpace=wrap;html=1;boundedLbl=1;backgroundOutline=1;size=2.8571341378348905;fontFamily=Helvetica;fontSize=6;labelBackgroundColor=none;rotation=-360;fontStyle=1;opacity=40;fillColor=#f5f5f5;fontColor=#333333;strokeColor=#666666;" vertex="1" parent="1">
          <mxGeometry x="1210" y="217" width="10" height="37.5" as="geometry" />
        </mxCell>
        <mxCell id="5Cd2jNApZWjE8oHdZEPI-423" value="SRAM状态" style="text;html=1;align=center;verticalAlign=middle;whiteSpace=wrap;rounded=0;fontFamily=Helvetica;fontSize=7;fontColor=default;labelBackgroundColor=default;fontStyle=1" vertex="1" parent="1">
          <mxGeometry x="1365" y="192" width="40" height="15" as="geometry" />
        </mxCell>
        <mxCell id="5Cd2jNApZWjE8oHdZEPI-413" value="" style="html=1;whiteSpace=wrap;shape=isoCube2;backgroundOutline=1;isoAngle=15;fontFamily=Helvetica;fontSize=11;labelBackgroundColor=default;fillColor=#f8cecc;strokeColor=#b85450;" vertex="1" parent="1">
          <mxGeometry x="1380" y="210" width="10" height="17.5" as="geometry" />
        </mxCell>
        <mxCell id="5Cd2jNApZWjE8oHdZEPI-414" value="" style="html=1;whiteSpace=wrap;shape=isoCube2;backgroundOutline=1;isoAngle=15;fontFamily=Helvetica;fontSize=11;labelBackgroundColor=default;fillColor=#000000;" vertex="1" parent="1">
          <mxGeometry x="1380" y="232.5" width="10" height="17.5" as="geometry" />
        </mxCell>
        <mxCell id="5Cd2jNApZWjE8oHdZEPI-420" value="空间不足" style="text;html=1;align=left;verticalAlign=middle;whiteSpace=wrap;rounded=0;fontFamily=Helvetica;fontSize=5;fontColor=default;labelBackgroundColor=default;fontStyle=1" vertex="1" parent="1">
          <mxGeometry x="1395" y="211.25" width="30" height="15" as="geometry" />
        </mxCell>
        <mxCell id="5Cd2jNApZWjE8oHdZEPI-421" value="正被其他端口写入" style="text;html=1;align=left;verticalAlign=middle;whiteSpace=wrap;rounded=0;fontFamily=Helvetica;fontSize=5;fontColor=default;labelBackgroundColor=default;fontStyle=1" vertex="1" parent="1">
          <mxGeometry x="1395" y="232.5" width="50" height="15" as="geometry" />
        </mxCell>
        <mxCell id="5Cd2jNApZWjE8oHdZEPI-428" value="" style="shape=curlyBracket;whiteSpace=wrap;html=1;rounded=1;flipH=1;labelPosition=right;verticalLabelPosition=middle;align=left;verticalAlign=middle;fontFamily=Helvetica;fontSize=11;fontColor=default;labelBackgroundColor=default;" vertex="1" parent="1">
          <mxGeometry x="1455" y="210" width="20" height="60" as="geometry" />
        </mxCell>
        <mxCell id="5Cd2jNApZWjE8oHdZEPI-431" value="&lt;h2 class=&quot;&quot; style=&quot;box-sizing: border-box; padding: 1rem; margin: 0px; outline: 0px; font-weight: 700; line-height: 22px; font-size: 16px; border-bottom: 1px solid var(--bd_01); position: relative; font-family: -apple-system, BlinkMacSystemFont, &amp;quot;Segoe UI&amp;quot;, Roboto, &amp;quot;Helvetica Neue&amp;quot;, Arial, &amp;quot;Noto Sans&amp;quot;, sans-serif, &amp;quot;Apple Color Emoji&amp;quot;, &amp;quot;Segoe UI Emoji&amp;quot;, &amp;quot;Segoe UI Symbol&amp;quot;, &amp;quot;Noto Color Emoji&amp;quot;; font-style: normal; font-variant-ligatures: normal; font-variant-caps: normal; letter-spacing: normal; orphans: 2; text-align: start; text-indent: 0px; text-transform: none; widows: 2; word-spacing: 0px; -webkit-text-stroke-width: 0px; white-space: normal; text-decoration-thickness: initial; text-decoration-style: initial; text-decoration-color: initial;&quot;&gt;&lt;span style=&quot;font-family: Arial, sans-serif; font-size: 13px; font-weight: 400; background-color: rgb(255, 255, 255);&quot;&gt;❌&lt;/span&gt;&lt;br&gt;&lt;/h2&gt;" style="text;whiteSpace=wrap;html=1;fontFamily=Helvetica;fontSize=12;fontColor=default;" vertex="1" parent="1">
          <mxGeometry x="1458" y="193.5" width="40" height="40" as="geometry" />
        </mxCell>
        <mxCell id="5Cd2jNApZWjE8oHdZEPI-437" value="" style="endArrow=blockThin;html=1;rounded=0;strokeColor=default;align=center;verticalAlign=middle;fontFamily=Helvetica;fontSize=11;fontColor=default;labelBackgroundColor=default;edgeStyle=orthogonalEdgeStyle;endFill=1;" edge="1" parent="1">
          <mxGeometry x="-0.4885" y="-35" width="50" height="50" relative="1" as="geometry">
            <mxPoint x="1370" y="275" as="sourcePoint" />
            <mxPoint x="1370" y="320" as="targetPoint" />
            <mxPoint as="offset" />
          </mxGeometry>
        </mxCell>
        <mxCell id="5Cd2jNApZWjE8oHdZEPI-438" value="&lt;b style=&quot;forced-color-adjust: none; color: rgb(0, 0, 0); font-family: Helvetica; font-size: 6px; font-style: normal; font-variant-ligatures: normal; font-variant-caps: normal; letter-spacing: normal; orphans: 2; text-align: center; text-indent: 0px; text-transform: none; widows: 2; word-spacing: 0px; -webkit-text-stroke-width: 0px; white-space: nowrap; text-decoration-thickness: initial; text-decoration-style: initial; text-decoration-color: initial;&quot;&gt;&lt;font style=&quot;forced-color-adjust: none; font-size: 6px;&quot;&gt;-&amp;nbsp; &amp;nbsp;偏好程度&amp;nbsp; &amp;nbsp;+&lt;/font&gt;&lt;/b&gt;" style="text;html=1;align=center;verticalAlign=middle;whiteSpace=wrap;rounded=0;fontFamily=Helvetica;fontSize=6;fontColor=default;labelBackgroundColor=none;rotation=90;" vertex="1" parent="1">
          <mxGeometry x="1340" y="292.5" width="45" height="10" as="geometry" />
        </mxCell>
        <mxCell id="5Cd2jNApZWjE8oHdZEPI-439" style="edgeStyle=orthogonalEdgeStyle;rounded=0;orthogonalLoop=1;jettySize=auto;html=1;exitX=1;exitY=0;exitDx=0;exitDy=26.696432931082555;exitPerimeter=0;strokeColor=#82b366;align=center;verticalAlign=middle;fontFamily=Helvetica;fontSize=11;fontColor=default;labelBackgroundColor=default;endArrow=blockThin;endFill=1;fillColor=#d5e8d4;entryX=0.5;entryY=0;entryDx=0;entryDy=0;entryPerimeter=0;" edge="1" parent="1" source="5Cd2jNApZWjE8oHdZEPI-228" target="5Cd2jNApZWjE8oHdZEPI-304">
          <mxGeometry relative="1" as="geometry">
            <mxPoint x="1050" y="300" as="targetPoint" />
            <mxPoint x="1025.0000000000002" y="253.5" as="sourcePoint" />
            <Array as="points">
              <mxPoint x="1000" y="270" />
              <mxPoint x="980" y="270" />
            </Array>
          </mxGeometry>
        </mxCell>
        <mxCell id="5Cd2jNApZWjE8oHdZEPI-226" value="" style="shape=cylinder3;whiteSpace=wrap;html=1;boundedLbl=1;backgroundOutline=1;size=2.8571341378348905;fontFamily=Helvetica;fontSize=11;fontColor=default;labelBackgroundColor=default;rotation=-360;" vertex="1" parent="1">
          <mxGeometry x="1030" y="207" width="10" height="37.5" as="geometry" />
        </mxCell>
        <mxCell id="5Cd2jNApZWjE8oHdZEPI-227" value="数据" style="shape=cylinder3;whiteSpace=wrap;html=1;boundedLbl=1;backgroundOutline=1;size=2.8571341378348905;fontFamily=Helvetica;fontSize=6;labelBackgroundColor=none;rotation=-360;fillColor=#e1d5e7;strokeColor=#9673a6;fontStyle=1;" vertex="1" parent="1">
          <mxGeometry x="1010" y="207" width="10" height="37.5" as="geometry" />
        </mxCell>
        <mxCell id="5Cd2jNApZWjE8oHdZEPI-228" value="" style="shape=cylinder3;whiteSpace=wrap;html=1;boundedLbl=1;backgroundOutline=1;size=2.8571341378348905;fontFamily=Helvetica;fontSize=11;fontColor=default;labelBackgroundColor=default;rotation=-360;opacity=40;" vertex="1" parent="1">
          <mxGeometry x="990" y="207" width="10" height="37.5" as="geometry" />
        </mxCell>
        <mxCell id="5Cd2jNApZWjE8oHdZEPI-229" value="" style="shape=cylinder3;whiteSpace=wrap;html=1;boundedLbl=1;backgroundOutline=1;size=2.8571341378348905;fontFamily=Helvetica;fontSize=11;fontColor=default;labelBackgroundColor=default;rotation=-360;" vertex="1" parent="1">
          <mxGeometry x="970" y="207" width="10" height="37.5" as="geometry" />
        </mxCell>
        <mxCell id="5Cd2jNApZWjE8oHdZEPI-239" value="" style="shape=cylinder3;whiteSpace=wrap;html=1;boundedLbl=1;backgroundOutline=1;size=2.8571341378348905;fontFamily=Helvetica;fontSize=11;fontColor=default;labelBackgroundColor=default;rotation=-360;" vertex="1" parent="1">
          <mxGeometry x="1025" y="217" width="10" height="37.5" as="geometry" />
        </mxCell>
        <mxCell id="5Cd2jNApZWjE8oHdZEPI-240" value="" style="shape=cylinder3;whiteSpace=wrap;html=1;boundedLbl=1;backgroundOutline=1;size=2.8571341378348905;fontFamily=Helvetica;fontSize=11;fontColor=default;labelBackgroundColor=default;rotation=-360;opacity=40;" vertex="1" parent="1">
          <mxGeometry x="1005" y="217" width="10" height="37.5" as="geometry" />
        </mxCell>
        <mxCell id="5Cd2jNApZWjE8oHdZEPI-241" value="" style="shape=cylinder3;whiteSpace=wrap;html=1;boundedLbl=1;backgroundOutline=1;size=2.8571341378348905;fontFamily=Helvetica;fontSize=11;fontColor=default;labelBackgroundColor=default;rotation=-360;opacity=40;" vertex="1" parent="1">
          <mxGeometry x="985" y="217" width="10" height="37.5" as="geometry" />
        </mxCell>
        <mxCell id="5Cd2jNApZWjE8oHdZEPI-242" value="数据" style="shape=cylinder3;whiteSpace=wrap;html=1;boundedLbl=1;backgroundOutline=1;size=2.8571341378348905;fontFamily=Helvetica;fontSize=6;labelBackgroundColor=none;rotation=-360;fillColor=#fff2cc;strokeColor=#d6b656;fontStyle=1" vertex="1" parent="1">
          <mxGeometry x="965" y="217" width="10" height="37.5" as="geometry" />
        </mxCell>
        <mxCell id="5Cd2jNApZWjE8oHdZEPI-430" value="&lt;h2 class=&quot;&quot; style=&quot;box-sizing: border-box; padding: 1rem; margin: 0px; outline: 0px; font-weight: 700; line-height: 22px; font-size: 16px; border-bottom: 1px solid var(--bd_01); position: relative; color: rgb(63, 66, 87); font-family: -apple-system, BlinkMacSystemFont, &amp;quot;Segoe UI&amp;quot;, Roboto, &amp;quot;Helvetica Neue&amp;quot;, Arial, &amp;quot;Noto Sans&amp;quot;, sans-serif, &amp;quot;Apple Color Emoji&amp;quot;, &amp;quot;Segoe UI Emoji&amp;quot;, &amp;quot;Segoe UI Symbol&amp;quot;, &amp;quot;Noto Color Emoji&amp;quot;; font-style: normal; font-variant-ligatures: normal; font-variant-caps: normal; letter-spacing: normal; orphans: 2; text-align: start; text-indent: 0px; text-transform: none; widows: 2; word-spacing: 0px; -webkit-text-stroke-width: 0px; white-space: normal; text-decoration-thickness: initial; text-decoration-style: initial; text-decoration-color: initial;&quot;&gt;&lt;span class=&quot;emoji_font line&quot; style=&quot;box-sizing: border-box; padding: 0px; margin: 0px 2px 0px 0px; outline: 0px; display: inline-flex; font-style: normal; font-weight: 400; font-family: var(--font-emoji); direction: initial; align-items: center; justify-content: center; min-width: 1.5em;&quot;&gt;✅&lt;/span&gt;&lt;/h2&gt;" style="text;whiteSpace=wrap;html=1;fontFamily=Helvetica;fontSize=12;fontColor=default;" vertex="1" parent="1">
          <mxGeometry x="1455" y="262.5" width="40" height="40" as="geometry" />
        </mxCell>
        <mxCell id="5Cd2jNApZWjE8oHdZEPI-412" value="" style="html=1;whiteSpace=wrap;shape=isoCube2;backgroundOutline=1;isoAngle=15;fontFamily=Helvetica;fontSize=11;labelBackgroundColor=default;fillColor=#d5e8d4;strokeColor=#82b366;" vertex="1" parent="1">
          <mxGeometry x="1380" y="255" width="10" height="17.5" as="geometry" />
        </mxCell>
        <mxCell id="5Cd2jNApZWjE8oHdZEPI-415" value="" style="html=1;whiteSpace=wrap;shape=isoCube2;backgroundOutline=1;isoAngle=15;fontFamily=Helvetica;fontSize=11;labelBackgroundColor=default;fillColor=#dae8fc;strokeColor=#004C99;" vertex="1" parent="1">
          <mxGeometry x="1380" y="300" width="10" height="18.75" as="geometry" />
        </mxCell>
        <mxCell id="5Cd2jNApZWjE8oHdZEPI-416" value="" style="html=1;whiteSpace=wrap;shape=isoCube2;backgroundOutline=1;isoAngle=15;fontFamily=Helvetica;fontSize=11;labelBackgroundColor=default;" vertex="1" parent="1">
          <mxGeometry x="1380" y="277.5" width="10" height="17.5" as="geometry" />
        </mxCell>
        <mxCell id="5Cd2jNApZWjE8oHdZEPI-417" value="一般且空闲" style="text;html=1;align=left;verticalAlign=middle;whiteSpace=wrap;rounded=0;fontFamily=Helvetica;fontSize=5;fontColor=default;labelBackgroundColor=default;fontStyle=1" vertex="1" parent="1">
          <mxGeometry x="1395" y="278.75" width="40" height="15" as="geometry" />
        </mxCell>
        <mxCell id="5Cd2jNApZWjE8oHdZEPI-418" value="已被其他端口匹配" style="text;html=1;align=left;verticalAlign=middle;whiteSpace=wrap;rounded=0;fontFamily=Helvetica;fontSize=5;fontColor=default;labelBackgroundColor=default;fontStyle=1" vertex="1" parent="1">
          <mxGeometry x="1395" y="256.25" width="60" height="15" as="geometry" />
        </mxCell>
        <mxCell id="5Cd2jNApZWjE8oHdZEPI-422" value="存有相同目的端口数据包&lt;br&gt;颜色深度与存量成正比" style="text;html=1;align=left;verticalAlign=middle;whiteSpace=wrap;rounded=0;fontFamily=Helvetica;fontSize=5;fontColor=default;labelBackgroundColor=default;fontStyle=1" vertex="1" parent="1">
          <mxGeometry x="1395" y="300.75" width="60" height="15" as="geometry" />
        </mxCell>
        <mxCell id="5Cd2jNApZWjE8oHdZEPI-427" value="" style="shape=curlyBracket;whiteSpace=wrap;html=1;rounded=1;flipH=1;labelPosition=right;verticalLabelPosition=middle;align=left;verticalAlign=middle;fontFamily=Helvetica;fontSize=11;fontColor=default;labelBackgroundColor=default;" vertex="1" parent="1">
          <mxGeometry x="1455" y="275" width="20" height="45" as="geometry" />
        </mxCell>
        <mxCell id="5Cd2jNApZWjE8oHdZEPI-473" value="0" style="shape=cylinder3;whiteSpace=wrap;html=1;boundedLbl=1;backgroundOutline=1;size=2.8571341378348905;fontFamily=Helvetica;fontSize=8;fontColor=default;labelBackgroundColor=default;rotation=-360;fontStyle=1" vertex="1" parent="1">
          <mxGeometry x="915" y="450" width="10" height="20.5" as="geometry" />
        </mxCell>
        <mxCell id="5Cd2jNApZWjE8oHdZEPI-476" value="1" style="shape=cylinder3;whiteSpace=wrap;html=1;boundedLbl=1;backgroundOutline=1;size=2.8571341378348905;fontFamily=Helvetica;fontSize=8;fontColor=default;labelBackgroundColor=default;rotation=-360;fontStyle=1;opacity=50;textOpacity=50;" vertex="1" parent="1">
          <mxGeometry x="965" y="450" width="10" height="20.5" as="geometry" />
        </mxCell>
        <mxCell id="5Cd2jNApZWjE8oHdZEPI-477" value="2" style="shape=cylinder3;whiteSpace=wrap;html=1;boundedLbl=1;backgroundOutline=1;size=2.8571341378348905;fontFamily=Helvetica;fontSize=8;fontColor=default;labelBackgroundColor=default;rotation=-360;fontStyle=1;opacity=50;textOpacity=50;" vertex="1" parent="1">
          <mxGeometry x="1015" y="450" width="10" height="20.5" as="geometry" />
        </mxCell>
        <mxCell id="5Cd2jNApZWjE8oHdZEPI-478" value="3" style="shape=cylinder3;whiteSpace=wrap;html=1;boundedLbl=1;backgroundOutline=1;size=2.8571341378348905;fontFamily=Helvetica;fontSize=8;fontColor=default;labelBackgroundColor=default;rotation=-360;fontStyle=1;opacity=50;textOpacity=50;" vertex="1" parent="1">
          <mxGeometry x="1065" y="450" width="10" height="20.5" as="geometry" />
        </mxCell>
        <mxCell id="5Cd2jNApZWjE8oHdZEPI-479" value="4" style="shape=cylinder3;whiteSpace=wrap;html=1;boundedLbl=1;backgroundOutline=1;size=2.8571341378348905;fontFamily=Helvetica;fontSize=8;fontColor=default;labelBackgroundColor=default;rotation=-360;fontStyle=1;opacity=50;textOpacity=50;" vertex="1" parent="1">
          <mxGeometry x="1115" y="450" width="10" height="20.5" as="geometry" />
        </mxCell>
        <mxCell id="5Cd2jNApZWjE8oHdZEPI-480" value="5" style="shape=cylinder3;whiteSpace=wrap;html=1;boundedLbl=1;backgroundOutline=1;size=2.8571341378348905;fontFamily=Helvetica;fontSize=8;fontColor=default;labelBackgroundColor=default;rotation=-360;fontStyle=1;opacity=50;textOpacity=50;" vertex="1" parent="1">
          <mxGeometry x="1165" y="450" width="10" height="20.5" as="geometry" />
        </mxCell>
        <mxCell id="5Cd2jNApZWjE8oHdZEPI-481" value="6" style="shape=cylinder3;whiteSpace=wrap;html=1;boundedLbl=1;backgroundOutline=1;size=2.8571341378348905;fontFamily=Helvetica;fontSize=8;fontColor=default;labelBackgroundColor=default;rotation=-360;fontStyle=1;opacity=50;textOpacity=50;" vertex="1" parent="1">
          <mxGeometry x="1215" y="450" width="10" height="20.5" as="geometry" />
        </mxCell>
        <mxCell id="5Cd2jNApZWjE8oHdZEPI-482" value="7" style="shape=cylinder3;whiteSpace=wrap;html=1;boundedLbl=1;backgroundOutline=1;size=2.8571341378348905;fontFamily=Helvetica;fontSize=8;fontColor=default;labelBackgroundColor=default;rotation=-360;fontStyle=1;opacity=50;textOpacity=50;" vertex="1" parent="1">
          <mxGeometry x="1265" y="450" width="10" height="20.5" as="geometry" />
        </mxCell>
        <mxCell id="5Cd2jNApZWjE8oHdZEPI-483" value="8" style="shape=cylinder3;whiteSpace=wrap;html=1;boundedLbl=1;backgroundOutline=1;size=2.8571341378348905;fontFamily=Helvetica;fontSize=8;fontColor=default;labelBackgroundColor=none;rotation=-360;fontStyle=1;textOpacity=50;opacity=50;" vertex="1" parent="1">
          <mxGeometry x="915" y="540" width="10" height="20" as="geometry" />
        </mxCell>
        <mxCell id="5Cd2jNApZWjE8oHdZEPI-484" value="9" style="shape=cylinder3;whiteSpace=wrap;html=1;boundedLbl=1;backgroundOutline=1;size=2.8571341378348905;fontFamily=Helvetica;fontSize=8;fontColor=default;labelBackgroundColor=none;rotation=-360;fontStyle=1;textOpacity=50;opacity=50;" vertex="1" parent="1">
          <mxGeometry x="965" y="540" width="10" height="20" as="geometry" />
        </mxCell>
        <mxCell id="5Cd2jNApZWjE8oHdZEPI-485" value="10" style="shape=cylinder3;whiteSpace=wrap;html=1;boundedLbl=1;backgroundOutline=1;size=2.8571341378348905;fontFamily=Helvetica;fontSize=8;fontColor=default;labelBackgroundColor=none;rotation=-360;fontStyle=1;textOpacity=50;opacity=50;" vertex="1" parent="1">
          <mxGeometry x="1015" y="540" width="10" height="20" as="geometry" />
        </mxCell>
        <mxCell id="5Cd2jNApZWjE8oHdZEPI-486" value="11" style="shape=cylinder3;whiteSpace=wrap;html=1;boundedLbl=1;backgroundOutline=1;size=2.8571341378348905;fontFamily=Helvetica;fontSize=8;fontColor=default;labelBackgroundColor=none;rotation=-360;fontStyle=1;textOpacity=50;opacity=50;" vertex="1" parent="1">
          <mxGeometry x="1065" y="540" width="10" height="20" as="geometry" />
        </mxCell>
        <mxCell id="5Cd2jNApZWjE8oHdZEPI-487" value="12" style="shape=cylinder3;whiteSpace=wrap;html=1;boundedLbl=1;backgroundOutline=1;size=2.8571341378348905;fontFamily=Helvetica;fontSize=8;fontColor=default;labelBackgroundColor=none;rotation=-360;fontStyle=1;textOpacity=50;opacity=50;" vertex="1" parent="1">
          <mxGeometry x="1115" y="540" width="10" height="20" as="geometry" />
        </mxCell>
        <mxCell id="5Cd2jNApZWjE8oHdZEPI-488" value="13" style="shape=cylinder3;whiteSpace=wrap;html=1;boundedLbl=1;backgroundOutline=1;size=2.8571341378348905;fontFamily=Helvetica;fontSize=8;fontColor=default;labelBackgroundColor=none;rotation=-360;fontStyle=1;textOpacity=50;opacity=50;" vertex="1" parent="1">
          <mxGeometry x="1165" y="540" width="10" height="20" as="geometry" />
        </mxCell>
        <mxCell id="5Cd2jNApZWjE8oHdZEPI-489" value="14" style="shape=cylinder3;whiteSpace=wrap;html=1;boundedLbl=1;backgroundOutline=1;size=2.8571341378348905;fontFamily=Helvetica;fontSize=8;fontColor=default;labelBackgroundColor=none;rotation=-360;fontStyle=1;textOpacity=50;opacity=50;" vertex="1" parent="1">
          <mxGeometry x="1215" y="540" width="10" height="20" as="geometry" />
        </mxCell>
        <mxCell id="5Cd2jNApZWjE8oHdZEPI-490" value="15" style="shape=cylinder3;whiteSpace=wrap;html=1;boundedLbl=1;backgroundOutline=1;size=2.8571341378348905;fontFamily=Helvetica;fontSize=8;fontColor=default;labelBackgroundColor=none;rotation=-360;fontStyle=1;textOpacity=50;opacity=50;" vertex="1" parent="1">
          <mxGeometry x="1265" y="540" width="10" height="20" as="geometry" />
        </mxCell>
        <mxCell id="5Cd2jNApZWjE8oHdZEPI-491" value="" style="group" vertex="1" connectable="0" parent="1">
          <mxGeometry x="910" y="480" width="395" height="50" as="geometry" />
        </mxCell>
        <mxCell id="5Cd2jNApZWjE8oHdZEPI-441" value="" style="html=1;whiteSpace=wrap;shape=isoCube2;backgroundOutline=1;isoAngle=15;fontFamily=Helvetica;fontSize=11;labelBackgroundColor=default;fillColor=#000000;" vertex="1" parent="5Cd2jNApZWjE8oHdZEPI-491">
          <mxGeometry width="20" height="20" as="geometry" />
        </mxCell>
        <mxCell id="5Cd2jNApZWjE8oHdZEPI-442" value="" style="html=1;whiteSpace=wrap;shape=isoCube2;backgroundOutline=1;isoAngle=15;fontFamily=Helvetica;fontSize=11;labelBackgroundColor=default;fillColor=#d5e8d4;strokeColor=#82b366;" vertex="1" parent="5Cd2jNApZWjE8oHdZEPI-491">
          <mxGeometry x="25" width="20" height="20" as="geometry" />
        </mxCell>
        <mxCell id="5Cd2jNApZWjE8oHdZEPI-443" value="" style="html=1;whiteSpace=wrap;shape=isoCube2;backgroundOutline=1;isoAngle=15;fontFamily=Helvetica;fontSize=11;labelBackgroundColor=default;fillColor=#000000;" vertex="1" parent="5Cd2jNApZWjE8oHdZEPI-491">
          <mxGeometry x="50" width="20" height="20" as="geometry" />
        </mxCell>
        <mxCell id="5Cd2jNApZWjE8oHdZEPI-444" value="" style="html=1;whiteSpace=wrap;shape=isoCube2;backgroundOutline=1;isoAngle=15;fontFamily=Helvetica;fontSize=11;labelBackgroundColor=default;" vertex="1" parent="5Cd2jNApZWjE8oHdZEPI-491">
          <mxGeometry x="75" width="20" height="20" as="geometry" />
        </mxCell>
        <mxCell id="5Cd2jNApZWjE8oHdZEPI-445" value="" style="html=1;whiteSpace=wrap;shape=isoCube2;backgroundOutline=1;isoAngle=15;fontFamily=Helvetica;fontSize=11;labelBackgroundColor=default;fillColor=#d5e8d4;strokeColor=#82b366;" vertex="1" parent="5Cd2jNApZWjE8oHdZEPI-491">
          <mxGeometry x="100" width="20" height="20" as="geometry" />
        </mxCell>
        <mxCell id="5Cd2jNApZWjE8oHdZEPI-446" value="" style="html=1;whiteSpace=wrap;shape=isoCube2;backgroundOutline=1;isoAngle=15;fontFamily=Helvetica;fontSize=11;labelBackgroundColor=default;" vertex="1" parent="5Cd2jNApZWjE8oHdZEPI-491">
          <mxGeometry x="125" width="20" height="20" as="geometry" />
        </mxCell>
        <mxCell id="5Cd2jNApZWjE8oHdZEPI-447" value="" style="html=1;whiteSpace=wrap;shape=isoCube2;backgroundOutline=1;isoAngle=15;fontFamily=Helvetica;fontSize=11;labelBackgroundColor=default;fillColor=#000000;" vertex="1" parent="5Cd2jNApZWjE8oHdZEPI-491">
          <mxGeometry x="150" width="20" height="20" as="geometry" />
        </mxCell>
        <mxCell id="5Cd2jNApZWjE8oHdZEPI-448" value="" style="html=1;whiteSpace=wrap;shape=isoCube2;backgroundOutline=1;isoAngle=15;fontFamily=Helvetica;fontSize=11;labelBackgroundColor=default;fillColor=#dae8fc;strokeColor=#004C99;" vertex="1" parent="5Cd2jNApZWjE8oHdZEPI-491">
          <mxGeometry x="175" width="20" height="20" as="geometry" />
        </mxCell>
        <mxCell id="5Cd2jNApZWjE8oHdZEPI-449" value="" style="html=1;whiteSpace=wrap;shape=isoCube2;backgroundOutline=1;isoAngle=15;fontFamily=Helvetica;fontSize=11;labelBackgroundColor=default;fillColor=#dae8fc;strokeColor=#004C99;" vertex="1" parent="5Cd2jNApZWjE8oHdZEPI-491">
          <mxGeometry x="200" width="20" height="20" as="geometry" />
        </mxCell>
        <mxCell id="5Cd2jNApZWjE8oHdZEPI-450" value="" style="html=1;whiteSpace=wrap;shape=isoCube2;backgroundOutline=1;isoAngle=15;fontFamily=Helvetica;fontSize=11;labelBackgroundColor=default;fillColor=#C5DCF7;strokeColor=#004C99;" vertex="1" parent="5Cd2jNApZWjE8oHdZEPI-491">
          <mxGeometry x="225" width="20" height="20" as="geometry" />
        </mxCell>
        <mxCell id="5Cd2jNApZWjE8oHdZEPI-451" value="" style="html=1;whiteSpace=wrap;shape=isoCube2;backgroundOutline=1;isoAngle=15;fontFamily=Helvetica;fontSize=11;labelBackgroundColor=default;" vertex="1" parent="5Cd2jNApZWjE8oHdZEPI-491">
          <mxGeometry x="250" width="20" height="20" as="geometry" />
        </mxCell>
        <mxCell id="5Cd2jNApZWjE8oHdZEPI-452" value="" style="html=1;whiteSpace=wrap;shape=isoCube2;backgroundOutline=1;isoAngle=15;fontFamily=Helvetica;fontSize=11;labelBackgroundColor=default;fillColor=#000000;" vertex="1" parent="5Cd2jNApZWjE8oHdZEPI-491">
          <mxGeometry x="275" width="20" height="20" as="geometry" />
        </mxCell>
        <mxCell id="5Cd2jNApZWjE8oHdZEPI-453" value="" style="html=1;whiteSpace=wrap;shape=isoCube2;backgroundOutline=1;isoAngle=15;fontFamily=Helvetica;fontSize=11;labelBackgroundColor=default;" vertex="1" parent="5Cd2jNApZWjE8oHdZEPI-491">
          <mxGeometry x="300" width="20" height="20" as="geometry" />
        </mxCell>
        <mxCell id="5Cd2jNApZWjE8oHdZEPI-454" value="" style="html=1;whiteSpace=wrap;shape=isoCube2;backgroundOutline=1;isoAngle=15;fontFamily=Helvetica;fontSize=11;labelBackgroundColor=default;fillColor=#f8cecc;strokeColor=#b85450;" vertex="1" parent="5Cd2jNApZWjE8oHdZEPI-491">
          <mxGeometry x="325" width="20" height="20" as="geometry" />
        </mxCell>
        <mxCell id="5Cd2jNApZWjE8oHdZEPI-455" value="" style="html=1;whiteSpace=wrap;shape=isoCube2;backgroundOutline=1;isoAngle=15;fontFamily=Helvetica;fontSize=11;labelBackgroundColor=default;" vertex="1" parent="5Cd2jNApZWjE8oHdZEPI-491">
          <mxGeometry x="350" width="20" height="20" as="geometry" />
        </mxCell>
        <mxCell id="5Cd2jNApZWjE8oHdZEPI-456" value="" style="html=1;whiteSpace=wrap;shape=isoCube2;backgroundOutline=1;isoAngle=15;fontFamily=Helvetica;fontSize=11;labelBackgroundColor=default;" vertex="1" parent="5Cd2jNApZWjE8oHdZEPI-491">
          <mxGeometry x="375" width="20" height="20" as="geometry" />
        </mxCell>
        <mxCell id="5Cd2jNApZWjE8oHdZEPI-457" value="" style="html=1;whiteSpace=wrap;shape=isoCube2;backgroundOutline=1;isoAngle=15;fontFamily=Helvetica;fontSize=11;labelBackgroundColor=default;" vertex="1" parent="5Cd2jNApZWjE8oHdZEPI-491">
          <mxGeometry y="29.999999999999943" width="20" height="20" as="geometry" />
        </mxCell>
        <mxCell id="5Cd2jNApZWjE8oHdZEPI-458" value="" style="html=1;whiteSpace=wrap;shape=isoCube2;backgroundOutline=1;isoAngle=15;fontFamily=Helvetica;fontSize=11;labelBackgroundColor=default;" vertex="1" parent="5Cd2jNApZWjE8oHdZEPI-491">
          <mxGeometry x="25" y="29.999999999999943" width="20" height="20" as="geometry" />
        </mxCell>
        <mxCell id="5Cd2jNApZWjE8oHdZEPI-459" value="" style="html=1;whiteSpace=wrap;shape=isoCube2;backgroundOutline=1;isoAngle=15;fontFamily=Helvetica;fontSize=11;labelBackgroundColor=default;" vertex="1" parent="5Cd2jNApZWjE8oHdZEPI-491">
          <mxGeometry x="50" y="29.999999999999943" width="20" height="20" as="geometry" />
        </mxCell>
        <mxCell id="5Cd2jNApZWjE8oHdZEPI-460" value="" style="html=1;whiteSpace=wrap;shape=isoCube2;backgroundOutline=1;isoAngle=15;fontFamily=Helvetica;fontSize=11;labelBackgroundColor=default;fillColor=#f8cecc;strokeColor=#b85450;" vertex="1" parent="5Cd2jNApZWjE8oHdZEPI-491">
          <mxGeometry x="75" y="29.999999999999943" width="20" height="20" as="geometry" />
        </mxCell>
        <mxCell id="5Cd2jNApZWjE8oHdZEPI-461" value="" style="html=1;whiteSpace=wrap;shape=isoCube2;backgroundOutline=1;isoAngle=15;fontFamily=Helvetica;fontSize=11;labelBackgroundColor=default;fillColor=#ADC3D9;strokeColor=#004C99;shadow=0;strokeWidth=1;" vertex="1" parent="5Cd2jNApZWjE8oHdZEPI-491">
          <mxGeometry x="100" y="29.999999999999943" width="20" height="20" as="geometry" />
        </mxCell>
        <mxCell id="5Cd2jNApZWjE8oHdZEPI-462" value="" style="html=1;whiteSpace=wrap;shape=isoCube2;backgroundOutline=1;isoAngle=15;fontFamily=Helvetica;fontSize=11;labelBackgroundColor=default;" vertex="1" parent="5Cd2jNApZWjE8oHdZEPI-491">
          <mxGeometry x="125" y="29.999999999999943" width="20" height="20" as="geometry" />
        </mxCell>
        <mxCell id="5Cd2jNApZWjE8oHdZEPI-463" value="" style="html=1;whiteSpace=wrap;shape=isoCube2;backgroundOutline=1;isoAngle=15;fontFamily=Helvetica;fontSize=11;labelBackgroundColor=default;" vertex="1" parent="5Cd2jNApZWjE8oHdZEPI-491">
          <mxGeometry x="150" y="29.999999999999943" width="20" height="20" as="geometry" />
        </mxCell>
        <mxCell id="5Cd2jNApZWjE8oHdZEPI-464" value="" style="html=1;whiteSpace=wrap;shape=isoCube2;backgroundOutline=1;isoAngle=15;fontFamily=Helvetica;fontSize=11;labelBackgroundColor=default;" vertex="1" parent="5Cd2jNApZWjE8oHdZEPI-491">
          <mxGeometry x="175" y="29.999999999999943" width="20" height="20" as="geometry" />
        </mxCell>
        <mxCell id="5Cd2jNApZWjE8oHdZEPI-465" value="" style="html=1;whiteSpace=wrap;shape=isoCube2;backgroundOutline=1;isoAngle=15;fontFamily=Helvetica;fontSize=11;labelBackgroundColor=default;" vertex="1" parent="5Cd2jNApZWjE8oHdZEPI-491">
          <mxGeometry x="200" y="29.999999999999943" width="20" height="20" as="geometry" />
        </mxCell>
        <mxCell id="5Cd2jNApZWjE8oHdZEPI-466" value="" style="html=1;whiteSpace=wrap;shape=isoCube2;backgroundOutline=1;isoAngle=15;fontFamily=Helvetica;fontSize=11;labelBackgroundColor=default;" vertex="1" parent="5Cd2jNApZWjE8oHdZEPI-491">
          <mxGeometry x="225" y="29.999999999999943" width="20" height="20" as="geometry" />
        </mxCell>
        <mxCell id="5Cd2jNApZWjE8oHdZEPI-467" value="" style="html=1;whiteSpace=wrap;shape=isoCube2;backgroundOutline=1;isoAngle=15;fontFamily=Helvetica;fontSize=11;labelBackgroundColor=default;fillColor=#d5e8d4;strokeColor=#82b366;" vertex="1" parent="5Cd2jNApZWjE8oHdZEPI-491">
          <mxGeometry x="250" y="29.999999999999943" width="20" height="20" as="geometry" />
        </mxCell>
        <mxCell id="5Cd2jNApZWjE8oHdZEPI-468" value="" style="html=1;whiteSpace=wrap;shape=isoCube2;backgroundOutline=1;isoAngle=15;fontFamily=Helvetica;fontSize=11;labelBackgroundColor=default;" vertex="1" parent="5Cd2jNApZWjE8oHdZEPI-491">
          <mxGeometry x="275" y="29.999999999999943" width="20" height="20" as="geometry" />
        </mxCell>
        <mxCell id="5Cd2jNApZWjE8oHdZEPI-469" value="" style="html=1;whiteSpace=wrap;shape=isoCube2;backgroundOutline=1;isoAngle=15;fontFamily=Helvetica;fontSize=11;labelBackgroundColor=default;fillColor=#000000;" vertex="1" parent="5Cd2jNApZWjE8oHdZEPI-491">
          <mxGeometry x="300" y="29.999999999999943" width="20" height="20" as="geometry" />
        </mxCell>
        <mxCell id="5Cd2jNApZWjE8oHdZEPI-470" value="" style="html=1;whiteSpace=wrap;shape=isoCube2;backgroundOutline=1;isoAngle=15;fontFamily=Helvetica;fontSize=11;labelBackgroundColor=default;" vertex="1" parent="5Cd2jNApZWjE8oHdZEPI-491">
          <mxGeometry x="325" y="29.999999999999943" width="20" height="20" as="geometry" />
        </mxCell>
        <mxCell id="5Cd2jNApZWjE8oHdZEPI-471" value="" style="html=1;whiteSpace=wrap;shape=isoCube2;backgroundOutline=1;isoAngle=15;fontFamily=Helvetica;fontSize=11;labelBackgroundColor=default;fillColor=#000000;" vertex="1" parent="5Cd2jNApZWjE8oHdZEPI-491">
          <mxGeometry x="350" y="29.999999999999943" width="20" height="20" as="geometry" />
        </mxCell>
        <mxCell id="5Cd2jNApZWjE8oHdZEPI-472" value="" style="html=1;whiteSpace=wrap;shape=isoCube2;backgroundOutline=1;isoAngle=15;fontFamily=Helvetica;fontSize=11;labelBackgroundColor=default;" vertex="1" parent="5Cd2jNApZWjE8oHdZEPI-491">
          <mxGeometry x="375" y="29.999999999999943" width="20" height="20" as="geometry" />
        </mxCell>
        <mxCell id="5Cd2jNApZWjE8oHdZEPI-492" value="0" style="shape=cylinder3;whiteSpace=wrap;html=1;boundedLbl=1;backgroundOutline=1;size=2.8571341378348905;fontFamily=Helvetica;fontSize=8;fontColor=default;labelBackgroundColor=default;rotation=-360;fontStyle=1" vertex="1" parent="1">
          <mxGeometry x="940" y="610" width="10" height="20" as="geometry" />
        </mxCell>
        <mxCell id="5Cd2jNApZWjE8oHdZEPI-493" value="1" style="shape=cylinder3;whiteSpace=wrap;html=1;boundedLbl=1;backgroundOutline=1;size=2.8571341378348905;fontFamily=Helvetica;fontSize=8;fontColor=default;labelBackgroundColor=default;rotation=-360;fontStyle=1;opacity=50;textOpacity=50;" vertex="1" parent="1">
          <mxGeometry x="990" y="610" width="10" height="20" as="geometry" />
        </mxCell>
        <mxCell id="5Cd2jNApZWjE8oHdZEPI-494" value="2" style="shape=cylinder3;whiteSpace=wrap;html=1;boundedLbl=1;backgroundOutline=1;size=2.8571341378348905;fontFamily=Helvetica;fontSize=8;fontColor=default;labelBackgroundColor=default;rotation=-360;fontStyle=1;opacity=50;textOpacity=50;" vertex="1" parent="1">
          <mxGeometry x="1040" y="610" width="10" height="20" as="geometry" />
        </mxCell>
        <mxCell id="5Cd2jNApZWjE8oHdZEPI-495" value="3" style="shape=cylinder3;whiteSpace=wrap;html=1;boundedLbl=1;backgroundOutline=1;size=2.8571341378348905;fontFamily=Helvetica;fontSize=8;fontColor=default;labelBackgroundColor=default;rotation=-360;fontStyle=1;opacity=50;textOpacity=50;" vertex="1" parent="1">
          <mxGeometry x="1090" y="610" width="10" height="20" as="geometry" />
        </mxCell>
        <mxCell id="5Cd2jNApZWjE8oHdZEPI-496" value="4" style="shape=cylinder3;whiteSpace=wrap;html=1;boundedLbl=1;backgroundOutline=1;size=2.8571341378348905;fontFamily=Helvetica;fontSize=8;fontColor=default;labelBackgroundColor=default;rotation=-360;fontStyle=1;opacity=50;textOpacity=50;" vertex="1" parent="1">
          <mxGeometry x="1140" y="610" width="10" height="20" as="geometry" />
        </mxCell>
        <mxCell id="5Cd2jNApZWjE8oHdZEPI-497" value="5" style="shape=cylinder3;whiteSpace=wrap;html=1;boundedLbl=1;backgroundOutline=1;size=2.8571341378348905;fontFamily=Helvetica;fontSize=8;fontColor=default;labelBackgroundColor=default;rotation=-360;fontStyle=1;opacity=50;textOpacity=50;" vertex="1" parent="1">
          <mxGeometry x="1190" y="610" width="10" height="20" as="geometry" />
        </mxCell>
        <mxCell id="5Cd2jNApZWjE8oHdZEPI-498" value="6" style="shape=cylinder3;whiteSpace=wrap;html=1;boundedLbl=1;backgroundOutline=1;size=2.8571341378348905;fontFamily=Helvetica;fontSize=8;fontColor=default;labelBackgroundColor=default;rotation=-360;fontStyle=1;opacity=50;textOpacity=50;" vertex="1" parent="1">
          <mxGeometry x="1240" y="610" width="10" height="20" as="geometry" />
        </mxCell>
        <mxCell id="5Cd2jNApZWjE8oHdZEPI-499" value="7" style="shape=cylinder3;whiteSpace=wrap;html=1;boundedLbl=1;backgroundOutline=1;size=2.8571341378348905;fontFamily=Helvetica;fontSize=8;fontColor=default;labelBackgroundColor=default;rotation=-360;fontStyle=1;opacity=50;textOpacity=50;" vertex="1" parent="1">
          <mxGeometry x="1290" y="610" width="10" height="20" as="geometry" />
        </mxCell>
        <mxCell id="5Cd2jNApZWjE8oHdZEPI-500" value="8" style="shape=cylinder3;whiteSpace=wrap;html=1;boundedLbl=1;backgroundOutline=1;size=2.8571341378348905;fontFamily=Helvetica;fontSize=8;fontColor=default;labelBackgroundColor=none;rotation=-360;fontStyle=1;textOpacity=50;opacity=50;" vertex="1" parent="1">
          <mxGeometry x="940" y="700" width="10" height="20" as="geometry" />
        </mxCell>
        <mxCell id="5Cd2jNApZWjE8oHdZEPI-501" value="9" style="shape=cylinder3;whiteSpace=wrap;html=1;boundedLbl=1;backgroundOutline=1;size=2.8571341378348905;fontFamily=Helvetica;fontSize=8;fontColor=default;labelBackgroundColor=none;rotation=-360;fontStyle=1;textOpacity=50;opacity=50;" vertex="1" parent="1">
          <mxGeometry x="990" y="700" width="10" height="20" as="geometry" />
        </mxCell>
        <mxCell id="5Cd2jNApZWjE8oHdZEPI-502" value="10" style="shape=cylinder3;whiteSpace=wrap;html=1;boundedLbl=1;backgroundOutline=1;size=2.8571341378348905;fontFamily=Helvetica;fontSize=8;fontColor=default;labelBackgroundColor=none;rotation=-360;fontStyle=1;textOpacity=50;opacity=50;" vertex="1" parent="1">
          <mxGeometry x="1040" y="700" width="10" height="20" as="geometry" />
        </mxCell>
        <mxCell id="5Cd2jNApZWjE8oHdZEPI-503" value="11" style="shape=cylinder3;whiteSpace=wrap;html=1;boundedLbl=1;backgroundOutline=1;size=2.8571341378348905;fontFamily=Helvetica;fontSize=8;fontColor=default;labelBackgroundColor=none;rotation=-360;fontStyle=1;textOpacity=50;opacity=50;" vertex="1" parent="1">
          <mxGeometry x="1090" y="700" width="10" height="20" as="geometry" />
        </mxCell>
        <mxCell id="5Cd2jNApZWjE8oHdZEPI-504" value="12" style="shape=cylinder3;whiteSpace=wrap;html=1;boundedLbl=1;backgroundOutline=1;size=2.8571341378348905;fontFamily=Helvetica;fontSize=8;fontColor=default;labelBackgroundColor=none;rotation=-360;fontStyle=1;textOpacity=50;opacity=50;" vertex="1" parent="1">
          <mxGeometry x="1140" y="700" width="10" height="20" as="geometry" />
        </mxCell>
        <mxCell id="5Cd2jNApZWjE8oHdZEPI-505" value="13" style="shape=cylinder3;whiteSpace=wrap;html=1;boundedLbl=1;backgroundOutline=1;size=2.8571341378348905;fontFamily=Helvetica;fontSize=8;fontColor=default;labelBackgroundColor=none;rotation=-360;fontStyle=1;textOpacity=50;opacity=50;" vertex="1" parent="1">
          <mxGeometry x="1190" y="700" width="10" height="20" as="geometry" />
        </mxCell>
        <mxCell id="5Cd2jNApZWjE8oHdZEPI-506" value="14" style="shape=cylinder3;whiteSpace=wrap;html=1;boundedLbl=1;backgroundOutline=1;size=2.8571341378348905;fontFamily=Helvetica;fontSize=8;fontColor=default;labelBackgroundColor=none;rotation=-360;fontStyle=1;textOpacity=50;opacity=50;" vertex="1" parent="1">
          <mxGeometry x="1240" y="700" width="10" height="20" as="geometry" />
        </mxCell>
        <mxCell id="5Cd2jNApZWjE8oHdZEPI-507" value="15" style="shape=cylinder3;whiteSpace=wrap;html=1;boundedLbl=1;backgroundOutline=1;size=2.8571341378348905;fontFamily=Helvetica;fontSize=8;fontColor=default;labelBackgroundColor=none;rotation=-360;fontStyle=1;textOpacity=50;opacity=50;" vertex="1" parent="1">
          <mxGeometry x="1290" y="700" width="10" height="20" as="geometry" />
        </mxCell>
        <mxCell id="5Cd2jNApZWjE8oHdZEPI-508" value="" style="group" vertex="1" connectable="0" parent="1">
          <mxGeometry x="910" y="639.8" width="395" height="50" as="geometry" />
        </mxCell>
        <mxCell id="5Cd2jNApZWjE8oHdZEPI-509" value="" style="html=1;whiteSpace=wrap;shape=isoCube2;backgroundOutline=1;isoAngle=15;fontFamily=Helvetica;fontSize=11;labelBackgroundColor=default;fillColor=#000000;" vertex="1" parent="5Cd2jNApZWjE8oHdZEPI-508">
          <mxGeometry width="20" height="20" as="geometry" />
        </mxCell>
        <mxCell id="5Cd2jNApZWjE8oHdZEPI-510" value="" style="html=1;whiteSpace=wrap;shape=isoCube2;backgroundOutline=1;isoAngle=15;fontFamily=Helvetica;fontSize=11;labelBackgroundColor=default;fillColor=#d5e8d4;strokeColor=#82b366;" vertex="1" parent="5Cd2jNApZWjE8oHdZEPI-508">
          <mxGeometry x="25" width="20" height="20" as="geometry" />
        </mxCell>
        <mxCell id="5Cd2jNApZWjE8oHdZEPI-511" value="" style="html=1;whiteSpace=wrap;shape=isoCube2;backgroundOutline=1;isoAngle=15;fontFamily=Helvetica;fontSize=11;labelBackgroundColor=default;fillColor=#000000;" vertex="1" parent="5Cd2jNApZWjE8oHdZEPI-508">
          <mxGeometry x="50" width="20" height="20" as="geometry" />
        </mxCell>
        <mxCell id="5Cd2jNApZWjE8oHdZEPI-512" value="" style="html=1;whiteSpace=wrap;shape=isoCube2;backgroundOutline=1;isoAngle=15;fontFamily=Helvetica;fontSize=11;labelBackgroundColor=default;" vertex="1" parent="5Cd2jNApZWjE8oHdZEPI-508">
          <mxGeometry x="75" width="20" height="20" as="geometry" />
        </mxCell>
        <mxCell id="5Cd2jNApZWjE8oHdZEPI-513" value="" style="html=1;whiteSpace=wrap;shape=isoCube2;backgroundOutline=1;isoAngle=15;fontFamily=Helvetica;fontSize=11;labelBackgroundColor=default;fillColor=#d5e8d4;strokeColor=#82b366;" vertex="1" parent="5Cd2jNApZWjE8oHdZEPI-508">
          <mxGeometry x="100" width="20" height="20" as="geometry" />
        </mxCell>
        <mxCell id="5Cd2jNApZWjE8oHdZEPI-514" value="" style="html=1;whiteSpace=wrap;shape=isoCube2;backgroundOutline=1;isoAngle=15;fontFamily=Helvetica;fontSize=11;labelBackgroundColor=default;" vertex="1" parent="5Cd2jNApZWjE8oHdZEPI-508">
          <mxGeometry x="125" width="20" height="20" as="geometry" />
        </mxCell>
        <mxCell id="5Cd2jNApZWjE8oHdZEPI-515" value="" style="html=1;whiteSpace=wrap;shape=isoCube2;backgroundOutline=1;isoAngle=15;fontFamily=Helvetica;fontSize=11;labelBackgroundColor=default;fillColor=#000000;" vertex="1" parent="5Cd2jNApZWjE8oHdZEPI-508">
          <mxGeometry x="150" width="20" height="20" as="geometry" />
        </mxCell>
        <mxCell id="5Cd2jNApZWjE8oHdZEPI-516" value="" style="html=1;whiteSpace=wrap;shape=isoCube2;backgroundOutline=1;isoAngle=15;fontFamily=Helvetica;fontSize=11;labelBackgroundColor=default;fillColor=#dae8fc;strokeColor=#004C99;" vertex="1" parent="5Cd2jNApZWjE8oHdZEPI-508">
          <mxGeometry x="175" width="20" height="20" as="geometry" />
        </mxCell>
        <mxCell id="5Cd2jNApZWjE8oHdZEPI-517" value="" style="html=1;whiteSpace=wrap;shape=isoCube2;backgroundOutline=1;isoAngle=15;fontFamily=Helvetica;fontSize=11;labelBackgroundColor=default;fillColor=#dae8fc;strokeColor=#004C99;" vertex="1" parent="5Cd2jNApZWjE8oHdZEPI-508">
          <mxGeometry x="200" width="20" height="20" as="geometry" />
        </mxCell>
        <mxCell id="5Cd2jNApZWjE8oHdZEPI-518" value="" style="html=1;whiteSpace=wrap;shape=isoCube2;backgroundOutline=1;isoAngle=15;fontFamily=Helvetica;fontSize=11;labelBackgroundColor=default;fillColor=#C5DCF7;strokeColor=#004C99;" vertex="1" parent="5Cd2jNApZWjE8oHdZEPI-508">
          <mxGeometry x="225" width="20" height="20" as="geometry" />
        </mxCell>
        <mxCell id="5Cd2jNApZWjE8oHdZEPI-519" value="" style="html=1;whiteSpace=wrap;shape=isoCube2;backgroundOutline=1;isoAngle=15;fontFamily=Helvetica;fontSize=11;labelBackgroundColor=default;" vertex="1" parent="5Cd2jNApZWjE8oHdZEPI-508">
          <mxGeometry x="250" width="20" height="20" as="geometry" />
        </mxCell>
        <mxCell id="5Cd2jNApZWjE8oHdZEPI-520" value="" style="html=1;whiteSpace=wrap;shape=isoCube2;backgroundOutline=1;isoAngle=15;fontFamily=Helvetica;fontSize=11;labelBackgroundColor=default;fillColor=#000000;" vertex="1" parent="5Cd2jNApZWjE8oHdZEPI-508">
          <mxGeometry x="275" width="20" height="20" as="geometry" />
        </mxCell>
        <mxCell id="5Cd2jNApZWjE8oHdZEPI-521" value="" style="html=1;whiteSpace=wrap;shape=isoCube2;backgroundOutline=1;isoAngle=15;fontFamily=Helvetica;fontSize=11;labelBackgroundColor=default;" vertex="1" parent="5Cd2jNApZWjE8oHdZEPI-508">
          <mxGeometry x="300" width="20" height="20" as="geometry" />
        </mxCell>
        <mxCell id="5Cd2jNApZWjE8oHdZEPI-522" value="" style="html=1;whiteSpace=wrap;shape=isoCube2;backgroundOutline=1;isoAngle=15;fontFamily=Helvetica;fontSize=11;labelBackgroundColor=default;fillColor=#f8cecc;strokeColor=#b85450;" vertex="1" parent="5Cd2jNApZWjE8oHdZEPI-508">
          <mxGeometry x="325" width="20" height="20" as="geometry" />
        </mxCell>
        <mxCell id="5Cd2jNApZWjE8oHdZEPI-523" value="" style="html=1;whiteSpace=wrap;shape=isoCube2;backgroundOutline=1;isoAngle=15;fontFamily=Helvetica;fontSize=11;labelBackgroundColor=default;" vertex="1" parent="5Cd2jNApZWjE8oHdZEPI-508">
          <mxGeometry x="350" width="20" height="20" as="geometry" />
        </mxCell>
        <mxCell id="5Cd2jNApZWjE8oHdZEPI-524" value="" style="html=1;whiteSpace=wrap;shape=isoCube2;backgroundOutline=1;isoAngle=15;fontFamily=Helvetica;fontSize=11;labelBackgroundColor=default;" vertex="1" parent="5Cd2jNApZWjE8oHdZEPI-508">
          <mxGeometry x="375" width="20" height="20" as="geometry" />
        </mxCell>
        <mxCell id="5Cd2jNApZWjE8oHdZEPI-525" value="" style="html=1;whiteSpace=wrap;shape=isoCube2;backgroundOutline=1;isoAngle=15;fontFamily=Helvetica;fontSize=11;labelBackgroundColor=default;" vertex="1" parent="5Cd2jNApZWjE8oHdZEPI-508">
          <mxGeometry y="29.999999999999943" width="20" height="20" as="geometry" />
        </mxCell>
        <mxCell id="5Cd2jNApZWjE8oHdZEPI-526" value="" style="html=1;whiteSpace=wrap;shape=isoCube2;backgroundOutline=1;isoAngle=15;fontFamily=Helvetica;fontSize=11;labelBackgroundColor=default;" vertex="1" parent="5Cd2jNApZWjE8oHdZEPI-508">
          <mxGeometry x="25" y="29.999999999999943" width="20" height="20" as="geometry" />
        </mxCell>
        <mxCell id="5Cd2jNApZWjE8oHdZEPI-527" value="" style="html=1;whiteSpace=wrap;shape=isoCube2;backgroundOutline=1;isoAngle=15;fontFamily=Helvetica;fontSize=11;labelBackgroundColor=default;" vertex="1" parent="5Cd2jNApZWjE8oHdZEPI-508">
          <mxGeometry x="50" y="29.999999999999943" width="20" height="20" as="geometry" />
        </mxCell>
        <mxCell id="5Cd2jNApZWjE8oHdZEPI-528" value="" style="html=1;whiteSpace=wrap;shape=isoCube2;backgroundOutline=1;isoAngle=15;fontFamily=Helvetica;fontSize=11;labelBackgroundColor=default;fillColor=#f8cecc;strokeColor=#b85450;" vertex="1" parent="5Cd2jNApZWjE8oHdZEPI-508">
          <mxGeometry x="75" y="29.999999999999943" width="20" height="20" as="geometry" />
        </mxCell>
        <mxCell id="5Cd2jNApZWjE8oHdZEPI-529" value="" style="html=1;whiteSpace=wrap;shape=isoCube2;backgroundOutline=1;isoAngle=15;fontFamily=Helvetica;fontSize=11;labelBackgroundColor=default;fillColor=#ADC3D9;strokeColor=#004C99;shadow=0;strokeWidth=1;" vertex="1" parent="5Cd2jNApZWjE8oHdZEPI-508">
          <mxGeometry x="100" y="29.999999999999943" width="20" height="20" as="geometry" />
        </mxCell>
        <mxCell id="5Cd2jNApZWjE8oHdZEPI-530" value="" style="html=1;whiteSpace=wrap;shape=isoCube2;backgroundOutline=1;isoAngle=15;fontFamily=Helvetica;fontSize=11;labelBackgroundColor=default;" vertex="1" parent="5Cd2jNApZWjE8oHdZEPI-508">
          <mxGeometry x="125" y="29.999999999999943" width="20" height="20" as="geometry" />
        </mxCell>
        <mxCell id="5Cd2jNApZWjE8oHdZEPI-531" value="" style="html=1;whiteSpace=wrap;shape=isoCube2;backgroundOutline=1;isoAngle=15;fontFamily=Helvetica;fontSize=11;labelBackgroundColor=default;" vertex="1" parent="5Cd2jNApZWjE8oHdZEPI-508">
          <mxGeometry x="150" y="29.999999999999943" width="20" height="20" as="geometry" />
        </mxCell>
        <mxCell id="5Cd2jNApZWjE8oHdZEPI-532" value="" style="html=1;whiteSpace=wrap;shape=isoCube2;backgroundOutline=1;isoAngle=15;fontFamily=Helvetica;fontSize=11;labelBackgroundColor=default;" vertex="1" parent="5Cd2jNApZWjE8oHdZEPI-508">
          <mxGeometry x="175" y="29.999999999999943" width="20" height="20" as="geometry" />
        </mxCell>
        <mxCell id="5Cd2jNApZWjE8oHdZEPI-533" value="" style="html=1;whiteSpace=wrap;shape=isoCube2;backgroundOutline=1;isoAngle=15;fontFamily=Helvetica;fontSize=11;labelBackgroundColor=default;" vertex="1" parent="5Cd2jNApZWjE8oHdZEPI-508">
          <mxGeometry x="200" y="29.999999999999943" width="20" height="20" as="geometry" />
        </mxCell>
        <mxCell id="5Cd2jNApZWjE8oHdZEPI-534" value="" style="html=1;whiteSpace=wrap;shape=isoCube2;backgroundOutline=1;isoAngle=15;fontFamily=Helvetica;fontSize=11;labelBackgroundColor=default;" vertex="1" parent="5Cd2jNApZWjE8oHdZEPI-508">
          <mxGeometry x="225" y="29.999999999999943" width="20" height="20" as="geometry" />
        </mxCell>
        <mxCell id="5Cd2jNApZWjE8oHdZEPI-535" value="" style="html=1;whiteSpace=wrap;shape=isoCube2;backgroundOutline=1;isoAngle=15;fontFamily=Helvetica;fontSize=11;labelBackgroundColor=default;fillColor=#d5e8d4;strokeColor=#82b366;" vertex="1" parent="5Cd2jNApZWjE8oHdZEPI-508">
          <mxGeometry x="250" y="29.999999999999943" width="20" height="20" as="geometry" />
        </mxCell>
        <mxCell id="5Cd2jNApZWjE8oHdZEPI-536" value="" style="html=1;whiteSpace=wrap;shape=isoCube2;backgroundOutline=1;isoAngle=15;fontFamily=Helvetica;fontSize=11;labelBackgroundColor=default;" vertex="1" parent="5Cd2jNApZWjE8oHdZEPI-508">
          <mxGeometry x="275" y="29.999999999999943" width="20" height="20" as="geometry" />
        </mxCell>
        <mxCell id="5Cd2jNApZWjE8oHdZEPI-537" value="" style="html=1;whiteSpace=wrap;shape=isoCube2;backgroundOutline=1;isoAngle=15;fontFamily=Helvetica;fontSize=11;labelBackgroundColor=default;fillColor=#000000;" vertex="1" parent="5Cd2jNApZWjE8oHdZEPI-508">
          <mxGeometry x="300" y="29.999999999999943" width="20" height="20" as="geometry" />
        </mxCell>
        <mxCell id="5Cd2jNApZWjE8oHdZEPI-538" value="" style="html=1;whiteSpace=wrap;shape=isoCube2;backgroundOutline=1;isoAngle=15;fontFamily=Helvetica;fontSize=11;labelBackgroundColor=default;" vertex="1" parent="5Cd2jNApZWjE8oHdZEPI-508">
          <mxGeometry x="325" y="29.999999999999943" width="20" height="20" as="geometry" />
        </mxCell>
        <mxCell id="5Cd2jNApZWjE8oHdZEPI-539" value="" style="html=1;whiteSpace=wrap;shape=isoCube2;backgroundOutline=1;isoAngle=15;fontFamily=Helvetica;fontSize=11;labelBackgroundColor=default;fillColor=#000000;" vertex="1" parent="5Cd2jNApZWjE8oHdZEPI-508">
          <mxGeometry x="350" y="29.999999999999943" width="20" height="20" as="geometry" />
        </mxCell>
        <mxCell id="5Cd2jNApZWjE8oHdZEPI-540" value="" style="html=1;whiteSpace=wrap;shape=isoCube2;backgroundOutline=1;isoAngle=15;fontFamily=Helvetica;fontSize=11;labelBackgroundColor=default;" vertex="1" parent="5Cd2jNApZWjE8oHdZEPI-508">
          <mxGeometry x="375" y="29.999999999999943" width="20" height="20" as="geometry" />
        </mxCell>
        <mxCell id="5Cd2jNApZWjE8oHdZEPI-541" value="0" style="shape=cylinder3;whiteSpace=wrap;html=1;boundedLbl=1;backgroundOutline=1;size=2.8571341378348905;fontFamily=Helvetica;fontSize=8;fontColor=default;labelBackgroundColor=default;rotation=-360;fontStyle=1" vertex="1" parent="1">
          <mxGeometry x="965" y="770" width="10" height="20" as="geometry" />
        </mxCell>
        <mxCell id="5Cd2jNApZWjE8oHdZEPI-542" value="1" style="shape=cylinder3;whiteSpace=wrap;html=1;boundedLbl=1;backgroundOutline=1;size=2.8571341378348905;fontFamily=Helvetica;fontSize=8;fontColor=default;labelBackgroundColor=default;rotation=-360;fontStyle=1;opacity=50;textOpacity=50;" vertex="1" parent="1">
          <mxGeometry x="1015" y="770" width="10" height="20" as="geometry" />
        </mxCell>
        <mxCell id="5Cd2jNApZWjE8oHdZEPI-543" value="2" style="shape=cylinder3;whiteSpace=wrap;html=1;boundedLbl=1;backgroundOutline=1;size=2.8571341378348905;fontFamily=Helvetica;fontSize=8;fontColor=default;labelBackgroundColor=default;rotation=-360;fontStyle=1;opacity=50;textOpacity=50;" vertex="1" parent="1">
          <mxGeometry x="1065" y="770" width="10" height="20" as="geometry" />
        </mxCell>
        <mxCell id="5Cd2jNApZWjE8oHdZEPI-544" value="3" style="shape=cylinder3;whiteSpace=wrap;html=1;boundedLbl=1;backgroundOutline=1;size=2.8571341378348905;fontFamily=Helvetica;fontSize=8;fontColor=default;labelBackgroundColor=default;rotation=-360;fontStyle=1;opacity=50;textOpacity=50;" vertex="1" parent="1">
          <mxGeometry x="1115" y="770" width="10" height="20" as="geometry" />
        </mxCell>
        <mxCell id="5Cd2jNApZWjE8oHdZEPI-545" value="4" style="shape=cylinder3;whiteSpace=wrap;html=1;boundedLbl=1;backgroundOutline=1;size=2.8571341378348905;fontFamily=Helvetica;fontSize=8;fontColor=default;labelBackgroundColor=default;rotation=-360;fontStyle=1;opacity=50;textOpacity=50;" vertex="1" parent="1">
          <mxGeometry x="1165" y="770" width="10" height="20" as="geometry" />
        </mxCell>
        <mxCell id="5Cd2jNApZWjE8oHdZEPI-546" value="5" style="shape=cylinder3;whiteSpace=wrap;html=1;boundedLbl=1;backgroundOutline=1;size=2.8571341378348905;fontFamily=Helvetica;fontSize=8;fontColor=default;labelBackgroundColor=default;rotation=-360;fontStyle=1;opacity=50;textOpacity=50;" vertex="1" parent="1">
          <mxGeometry x="1215" y="770" width="10" height="20" as="geometry" />
        </mxCell>
        <mxCell id="5Cd2jNApZWjE8oHdZEPI-547" value="6" style="shape=cylinder3;whiteSpace=wrap;html=1;boundedLbl=1;backgroundOutline=1;size=2.8571341378348905;fontFamily=Helvetica;fontSize=8;fontColor=default;labelBackgroundColor=default;rotation=-360;fontStyle=1;opacity=50;textOpacity=50;" vertex="1" parent="1">
          <mxGeometry x="1265" y="770" width="10" height="20" as="geometry" />
        </mxCell>
        <mxCell id="5Cd2jNApZWjE8oHdZEPI-548" value="7" style="shape=cylinder3;whiteSpace=wrap;html=1;boundedLbl=1;backgroundOutline=1;size=2.8571341378348905;fontFamily=Helvetica;fontSize=8;fontColor=default;labelBackgroundColor=default;rotation=-360;fontStyle=1;opacity=50;textOpacity=50;" vertex="1" parent="1">
          <mxGeometry x="915" y="860" width="10" height="20" as="geometry" />
        </mxCell>
        <mxCell id="5Cd2jNApZWjE8oHdZEPI-549" value="8" style="shape=cylinder3;whiteSpace=wrap;html=1;boundedLbl=1;backgroundOutline=1;size=2.8571341378348905;fontFamily=Helvetica;fontSize=8;fontColor=default;labelBackgroundColor=none;rotation=-360;fontStyle=1;textOpacity=50;opacity=50;" vertex="1" parent="1">
          <mxGeometry x="965" y="860" width="10" height="20" as="geometry" />
        </mxCell>
        <mxCell id="5Cd2jNApZWjE8oHdZEPI-550" value="9" style="shape=cylinder3;whiteSpace=wrap;html=1;boundedLbl=1;backgroundOutline=1;size=2.8571341378348905;fontFamily=Helvetica;fontSize=8;fontColor=default;labelBackgroundColor=none;rotation=-360;fontStyle=1;textOpacity=50;opacity=50;" vertex="1" parent="1">
          <mxGeometry x="1015" y="860" width="10" height="20" as="geometry" />
        </mxCell>
        <mxCell id="5Cd2jNApZWjE8oHdZEPI-551" value="10" style="shape=cylinder3;whiteSpace=wrap;html=1;boundedLbl=1;backgroundOutline=1;size=2.8571341378348905;fontFamily=Helvetica;fontSize=8;fontColor=default;labelBackgroundColor=none;rotation=-360;fontStyle=1;textOpacity=50;opacity=50;" vertex="1" parent="1">
          <mxGeometry x="1065" y="860" width="10" height="20" as="geometry" />
        </mxCell>
        <mxCell id="5Cd2jNApZWjE8oHdZEPI-552" value="11" style="shape=cylinder3;whiteSpace=wrap;html=1;boundedLbl=1;backgroundOutline=1;size=2.8571341378348905;fontFamily=Helvetica;fontSize=8;fontColor=default;labelBackgroundColor=none;rotation=-360;fontStyle=1;textOpacity=50;opacity=50;" vertex="1" parent="1">
          <mxGeometry x="1115" y="860" width="10" height="20" as="geometry" />
        </mxCell>
        <mxCell id="5Cd2jNApZWjE8oHdZEPI-553" value="12" style="shape=cylinder3;whiteSpace=wrap;html=1;boundedLbl=1;backgroundOutline=1;size=2.8571341378348905;fontFamily=Helvetica;fontSize=8;fontColor=default;labelBackgroundColor=none;rotation=-360;fontStyle=1;textOpacity=50;opacity=50;" vertex="1" parent="1">
          <mxGeometry x="1165" y="860" width="10" height="20" as="geometry" />
        </mxCell>
        <mxCell id="5Cd2jNApZWjE8oHdZEPI-554" value="13" style="shape=cylinder3;whiteSpace=wrap;html=1;boundedLbl=1;backgroundOutline=1;size=2.8571341378348905;fontFamily=Helvetica;fontSize=8;fontColor=default;labelBackgroundColor=none;rotation=-360;fontStyle=1;textOpacity=50;opacity=50;" vertex="1" parent="1">
          <mxGeometry x="1215" y="860" width="10" height="20" as="geometry" />
        </mxCell>
        <mxCell id="5Cd2jNApZWjE8oHdZEPI-555" value="14" style="shape=cylinder3;whiteSpace=wrap;html=1;boundedLbl=1;backgroundOutline=1;size=2.8571341378348905;fontFamily=Helvetica;fontSize=8;fontColor=default;labelBackgroundColor=none;rotation=-360;fontStyle=1;textOpacity=50;opacity=50;" vertex="1" parent="1">
          <mxGeometry x="1265" y="860" width="10" height="20" as="geometry" />
        </mxCell>
        <mxCell id="5Cd2jNApZWjE8oHdZEPI-556" value="15" style="shape=cylinder3;whiteSpace=wrap;html=1;boundedLbl=1;backgroundOutline=1;size=2.8571341378348905;fontFamily=Helvetica;fontSize=8;fontColor=default;labelBackgroundColor=none;rotation=-360;fontStyle=1;textOpacity=50;opacity=50;" vertex="1" parent="1">
          <mxGeometry x="915" y="770" width="10" height="20" as="geometry" />
        </mxCell>
        <mxCell id="5Cd2jNApZWjE8oHdZEPI-557" value="" style="group" vertex="1" connectable="0" parent="1">
          <mxGeometry x="910" y="799.8" width="395" height="50" as="geometry" />
        </mxCell>
        <mxCell id="5Cd2jNApZWjE8oHdZEPI-558" value="" style="html=1;whiteSpace=wrap;shape=isoCube2;backgroundOutline=1;isoAngle=15;fontFamily=Helvetica;fontSize=11;labelBackgroundColor=default;fillColor=#000000;" vertex="1" parent="5Cd2jNApZWjE8oHdZEPI-557">
          <mxGeometry width="20" height="20" as="geometry" />
        </mxCell>
        <mxCell id="5Cd2jNApZWjE8oHdZEPI-559" value="" style="html=1;whiteSpace=wrap;shape=isoCube2;backgroundOutline=1;isoAngle=15;fontFamily=Helvetica;fontSize=11;labelBackgroundColor=default;fillColor=#d5e8d4;strokeColor=#82b366;" vertex="1" parent="5Cd2jNApZWjE8oHdZEPI-557">
          <mxGeometry x="25" width="20" height="20" as="geometry" />
        </mxCell>
        <mxCell id="5Cd2jNApZWjE8oHdZEPI-560" value="" style="html=1;whiteSpace=wrap;shape=isoCube2;backgroundOutline=1;isoAngle=15;fontFamily=Helvetica;fontSize=11;labelBackgroundColor=default;fillColor=#000000;" vertex="1" parent="5Cd2jNApZWjE8oHdZEPI-557">
          <mxGeometry x="50" width="20" height="20" as="geometry" />
        </mxCell>
        <mxCell id="5Cd2jNApZWjE8oHdZEPI-561" value="" style="html=1;whiteSpace=wrap;shape=isoCube2;backgroundOutline=1;isoAngle=15;fontFamily=Helvetica;fontSize=11;labelBackgroundColor=default;" vertex="1" parent="5Cd2jNApZWjE8oHdZEPI-557">
          <mxGeometry x="75" width="20" height="20" as="geometry" />
        </mxCell>
        <mxCell id="5Cd2jNApZWjE8oHdZEPI-562" value="" style="html=1;whiteSpace=wrap;shape=isoCube2;backgroundOutline=1;isoAngle=15;fontFamily=Helvetica;fontSize=11;labelBackgroundColor=default;fillColor=#d5e8d4;strokeColor=#82b366;" vertex="1" parent="5Cd2jNApZWjE8oHdZEPI-557">
          <mxGeometry x="100" width="20" height="20" as="geometry" />
        </mxCell>
        <mxCell id="5Cd2jNApZWjE8oHdZEPI-563" value="" style="html=1;whiteSpace=wrap;shape=isoCube2;backgroundOutline=1;isoAngle=15;fontFamily=Helvetica;fontSize=11;labelBackgroundColor=default;" vertex="1" parent="5Cd2jNApZWjE8oHdZEPI-557">
          <mxGeometry x="125" width="20" height="20" as="geometry" />
        </mxCell>
        <mxCell id="5Cd2jNApZWjE8oHdZEPI-564" value="" style="html=1;whiteSpace=wrap;shape=isoCube2;backgroundOutline=1;isoAngle=15;fontFamily=Helvetica;fontSize=11;labelBackgroundColor=default;fillColor=#000000;" vertex="1" parent="5Cd2jNApZWjE8oHdZEPI-557">
          <mxGeometry x="150" width="20" height="20" as="geometry" />
        </mxCell>
        <mxCell id="5Cd2jNApZWjE8oHdZEPI-565" value="" style="html=1;whiteSpace=wrap;shape=isoCube2;backgroundOutline=1;isoAngle=15;fontFamily=Helvetica;fontSize=11;labelBackgroundColor=default;fillColor=#dae8fc;strokeColor=#004C99;" vertex="1" parent="5Cd2jNApZWjE8oHdZEPI-557">
          <mxGeometry x="175" width="20" height="20" as="geometry" />
        </mxCell>
        <mxCell id="5Cd2jNApZWjE8oHdZEPI-566" value="" style="html=1;whiteSpace=wrap;shape=isoCube2;backgroundOutline=1;isoAngle=15;fontFamily=Helvetica;fontSize=11;labelBackgroundColor=default;fillColor=#dae8fc;strokeColor=#004C99;" vertex="1" parent="5Cd2jNApZWjE8oHdZEPI-557">
          <mxGeometry x="200" width="20" height="20" as="geometry" />
        </mxCell>
        <mxCell id="5Cd2jNApZWjE8oHdZEPI-567" value="" style="html=1;whiteSpace=wrap;shape=isoCube2;backgroundOutline=1;isoAngle=15;fontFamily=Helvetica;fontSize=11;labelBackgroundColor=default;fillColor=#C5DCF7;strokeColor=#004C99;" vertex="1" parent="5Cd2jNApZWjE8oHdZEPI-557">
          <mxGeometry x="225" width="20" height="20" as="geometry" />
        </mxCell>
        <mxCell id="5Cd2jNApZWjE8oHdZEPI-568" value="" style="html=1;whiteSpace=wrap;shape=isoCube2;backgroundOutline=1;isoAngle=15;fontFamily=Helvetica;fontSize=11;labelBackgroundColor=default;" vertex="1" parent="5Cd2jNApZWjE8oHdZEPI-557">
          <mxGeometry x="250" width="20" height="20" as="geometry" />
        </mxCell>
        <mxCell id="5Cd2jNApZWjE8oHdZEPI-569" value="" style="html=1;whiteSpace=wrap;shape=isoCube2;backgroundOutline=1;isoAngle=15;fontFamily=Helvetica;fontSize=11;labelBackgroundColor=default;fillColor=#000000;" vertex="1" parent="5Cd2jNApZWjE8oHdZEPI-557">
          <mxGeometry x="275" width="20" height="20" as="geometry" />
        </mxCell>
        <mxCell id="5Cd2jNApZWjE8oHdZEPI-570" value="" style="html=1;whiteSpace=wrap;shape=isoCube2;backgroundOutline=1;isoAngle=15;fontFamily=Helvetica;fontSize=11;labelBackgroundColor=default;" vertex="1" parent="5Cd2jNApZWjE8oHdZEPI-557">
          <mxGeometry x="300" width="20" height="20" as="geometry" />
        </mxCell>
        <mxCell id="5Cd2jNApZWjE8oHdZEPI-571" value="" style="html=1;whiteSpace=wrap;shape=isoCube2;backgroundOutline=1;isoAngle=15;fontFamily=Helvetica;fontSize=11;labelBackgroundColor=default;fillColor=#f8cecc;strokeColor=#b85450;" vertex="1" parent="5Cd2jNApZWjE8oHdZEPI-557">
          <mxGeometry x="325" width="20" height="20" as="geometry" />
        </mxCell>
        <mxCell id="5Cd2jNApZWjE8oHdZEPI-572" value="" style="html=1;whiteSpace=wrap;shape=isoCube2;backgroundOutline=1;isoAngle=15;fontFamily=Helvetica;fontSize=11;labelBackgroundColor=default;" vertex="1" parent="5Cd2jNApZWjE8oHdZEPI-557">
          <mxGeometry x="350" width="20" height="20" as="geometry" />
        </mxCell>
        <mxCell id="5Cd2jNApZWjE8oHdZEPI-573" value="" style="html=1;whiteSpace=wrap;shape=isoCube2;backgroundOutline=1;isoAngle=15;fontFamily=Helvetica;fontSize=11;labelBackgroundColor=default;" vertex="1" parent="5Cd2jNApZWjE8oHdZEPI-557">
          <mxGeometry x="375" width="20" height="20" as="geometry" />
        </mxCell>
        <mxCell id="5Cd2jNApZWjE8oHdZEPI-574" value="" style="html=1;whiteSpace=wrap;shape=isoCube2;backgroundOutline=1;isoAngle=15;fontFamily=Helvetica;fontSize=11;labelBackgroundColor=default;" vertex="1" parent="5Cd2jNApZWjE8oHdZEPI-557">
          <mxGeometry y="29.999999999999943" width="20" height="20" as="geometry" />
        </mxCell>
        <mxCell id="5Cd2jNApZWjE8oHdZEPI-575" value="" style="html=1;whiteSpace=wrap;shape=isoCube2;backgroundOutline=1;isoAngle=15;fontFamily=Helvetica;fontSize=11;labelBackgroundColor=default;" vertex="1" parent="5Cd2jNApZWjE8oHdZEPI-557">
          <mxGeometry x="25" y="29.999999999999943" width="20" height="20" as="geometry" />
        </mxCell>
        <mxCell id="5Cd2jNApZWjE8oHdZEPI-576" value="" style="html=1;whiteSpace=wrap;shape=isoCube2;backgroundOutline=1;isoAngle=15;fontFamily=Helvetica;fontSize=11;labelBackgroundColor=default;" vertex="1" parent="5Cd2jNApZWjE8oHdZEPI-557">
          <mxGeometry x="50" y="29.999999999999943" width="20" height="20" as="geometry" />
        </mxCell>
        <mxCell id="5Cd2jNApZWjE8oHdZEPI-577" value="" style="html=1;whiteSpace=wrap;shape=isoCube2;backgroundOutline=1;isoAngle=15;fontFamily=Helvetica;fontSize=11;labelBackgroundColor=default;fillColor=#f8cecc;strokeColor=#b85450;" vertex="1" parent="5Cd2jNApZWjE8oHdZEPI-557">
          <mxGeometry x="75" y="29.999999999999943" width="20" height="20" as="geometry" />
        </mxCell>
        <mxCell id="5Cd2jNApZWjE8oHdZEPI-578" value="" style="html=1;whiteSpace=wrap;shape=isoCube2;backgroundOutline=1;isoAngle=15;fontFamily=Helvetica;fontSize=11;labelBackgroundColor=default;fillColor=#ADC3D9;strokeColor=#004C99;shadow=0;strokeWidth=1;" vertex="1" parent="5Cd2jNApZWjE8oHdZEPI-557">
          <mxGeometry x="100" y="29.999999999999943" width="20" height="20" as="geometry" />
        </mxCell>
        <mxCell id="5Cd2jNApZWjE8oHdZEPI-579" value="" style="html=1;whiteSpace=wrap;shape=isoCube2;backgroundOutline=1;isoAngle=15;fontFamily=Helvetica;fontSize=11;labelBackgroundColor=default;" vertex="1" parent="5Cd2jNApZWjE8oHdZEPI-557">
          <mxGeometry x="125" y="29.999999999999943" width="20" height="20" as="geometry" />
        </mxCell>
        <mxCell id="5Cd2jNApZWjE8oHdZEPI-580" value="" style="html=1;whiteSpace=wrap;shape=isoCube2;backgroundOutline=1;isoAngle=15;fontFamily=Helvetica;fontSize=11;labelBackgroundColor=default;" vertex="1" parent="5Cd2jNApZWjE8oHdZEPI-557">
          <mxGeometry x="150" y="29.999999999999943" width="20" height="20" as="geometry" />
        </mxCell>
        <mxCell id="5Cd2jNApZWjE8oHdZEPI-581" value="" style="html=1;whiteSpace=wrap;shape=isoCube2;backgroundOutline=1;isoAngle=15;fontFamily=Helvetica;fontSize=11;labelBackgroundColor=default;" vertex="1" parent="5Cd2jNApZWjE8oHdZEPI-557">
          <mxGeometry x="175" y="29.999999999999943" width="20" height="20" as="geometry" />
        </mxCell>
        <mxCell id="5Cd2jNApZWjE8oHdZEPI-582" value="" style="html=1;whiteSpace=wrap;shape=isoCube2;backgroundOutline=1;isoAngle=15;fontFamily=Helvetica;fontSize=11;labelBackgroundColor=default;" vertex="1" parent="5Cd2jNApZWjE8oHdZEPI-557">
          <mxGeometry x="200" y="29.999999999999943" width="20" height="20" as="geometry" />
        </mxCell>
        <mxCell id="5Cd2jNApZWjE8oHdZEPI-583" value="" style="html=1;whiteSpace=wrap;shape=isoCube2;backgroundOutline=1;isoAngle=15;fontFamily=Helvetica;fontSize=11;labelBackgroundColor=default;" vertex="1" parent="5Cd2jNApZWjE8oHdZEPI-557">
          <mxGeometry x="225" y="29.999999999999943" width="20" height="20" as="geometry" />
        </mxCell>
        <mxCell id="5Cd2jNApZWjE8oHdZEPI-584" value="" style="html=1;whiteSpace=wrap;shape=isoCube2;backgroundOutline=1;isoAngle=15;fontFamily=Helvetica;fontSize=11;labelBackgroundColor=default;fillColor=#d5e8d4;strokeColor=#82b366;" vertex="1" parent="5Cd2jNApZWjE8oHdZEPI-557">
          <mxGeometry x="250" y="29.999999999999943" width="20" height="20" as="geometry" />
        </mxCell>
        <mxCell id="5Cd2jNApZWjE8oHdZEPI-585" value="" style="html=1;whiteSpace=wrap;shape=isoCube2;backgroundOutline=1;isoAngle=15;fontFamily=Helvetica;fontSize=11;labelBackgroundColor=default;" vertex="1" parent="5Cd2jNApZWjE8oHdZEPI-557">
          <mxGeometry x="275" y="29.999999999999943" width="20" height="20" as="geometry" />
        </mxCell>
        <mxCell id="5Cd2jNApZWjE8oHdZEPI-586" value="" style="html=1;whiteSpace=wrap;shape=isoCube2;backgroundOutline=1;isoAngle=15;fontFamily=Helvetica;fontSize=11;labelBackgroundColor=default;fillColor=#000000;" vertex="1" parent="5Cd2jNApZWjE8oHdZEPI-557">
          <mxGeometry x="300" y="29.999999999999943" width="20" height="20" as="geometry" />
        </mxCell>
        <mxCell id="5Cd2jNApZWjE8oHdZEPI-587" value="" style="html=1;whiteSpace=wrap;shape=isoCube2;backgroundOutline=1;isoAngle=15;fontFamily=Helvetica;fontSize=11;labelBackgroundColor=default;" vertex="1" parent="5Cd2jNApZWjE8oHdZEPI-557">
          <mxGeometry x="325" y="29.999999999999943" width="20" height="20" as="geometry" />
        </mxCell>
        <mxCell id="5Cd2jNApZWjE8oHdZEPI-588" value="" style="html=1;whiteSpace=wrap;shape=isoCube2;backgroundOutline=1;isoAngle=15;fontFamily=Helvetica;fontSize=11;labelBackgroundColor=default;fillColor=#000000;" vertex="1" parent="5Cd2jNApZWjE8oHdZEPI-557">
          <mxGeometry x="350" y="29.999999999999943" width="20" height="20" as="geometry" />
        </mxCell>
        <mxCell id="5Cd2jNApZWjE8oHdZEPI-589" value="" style="html=1;whiteSpace=wrap;shape=isoCube2;backgroundOutline=1;isoAngle=15;fontFamily=Helvetica;fontSize=11;labelBackgroundColor=default;" vertex="1" parent="5Cd2jNApZWjE8oHdZEPI-557">
          <mxGeometry x="375" y="29.999999999999943" width="20" height="20" as="geometry" />
        </mxCell>
        <mxCell id="5Cd2jNApZWjE8oHdZEPI-623" value="" style="html=1;whiteSpace=wrap;shape=isoCube2;backgroundOutline=1;isoAngle=15;fontFamily=Helvetica;fontSize=11;labelBackgroundColor=default;fillColor=#CCCCCC;" vertex="1" parent="1">
          <mxGeometry x="1400" y="480" width="20" height="20" as="geometry" />
        </mxCell>
        <mxCell id="5Cd2jNApZWjE8oHdZEPI-624" value="" style="html=1;whiteSpace=wrap;shape=isoCube2;backgroundOutline=1;isoAngle=15;fontFamily=Helvetica;fontSize=11;labelBackgroundColor=default;fillColor=#CCCCCC;" vertex="1" parent="1">
          <mxGeometry x="1425" y="480" width="20" height="20" as="geometry" />
        </mxCell>
        <mxCell id="5Cd2jNApZWjE8oHdZEPI-625" value="" style="html=1;whiteSpace=wrap;shape=isoCube2;backgroundOutline=1;isoAngle=15;fontFamily=Helvetica;fontSize=11;labelBackgroundColor=default;fillColor=#808080;" vertex="1" parent="1">
          <mxGeometry x="1450" y="480" width="20" height="20" as="geometry" />
        </mxCell>
        <mxCell id="5Cd2jNApZWjE8oHdZEPI-626" value="" style="html=1;whiteSpace=wrap;shape=isoCube2;backgroundOutline=1;isoAngle=15;fontFamily=Helvetica;fontSize=11;labelBackgroundColor=default;fillColor=#808080;" vertex="1" parent="1">
          <mxGeometry x="1475" y="480" width="20" height="20" as="geometry" />
        </mxCell>
        <mxCell id="5Cd2jNApZWjE8oHdZEPI-627" value="" style="html=1;whiteSpace=wrap;shape=isoCube2;backgroundOutline=1;isoAngle=15;fontFamily=Helvetica;fontSize=11;labelBackgroundColor=default;fillColor=#CCCCCC;" vertex="1" parent="1">
          <mxGeometry x="1500" y="480" width="20" height="20" as="geometry" />
        </mxCell>
        <mxCell id="5Cd2jNApZWjE8oHdZEPI-628" value="" style="html=1;whiteSpace=wrap;shape=isoCube2;backgroundOutline=1;isoAngle=15;fontFamily=Helvetica;fontSize=11;labelBackgroundColor=default;fillColor=#CCCCCC;" vertex="1" parent="1">
          <mxGeometry x="1525" y="480" width="20" height="20" as="geometry" />
        </mxCell>
        <mxCell id="5Cd2jNApZWjE8oHdZEPI-629" value="" style="html=1;whiteSpace=wrap;shape=isoCube2;backgroundOutline=1;isoAngle=15;fontFamily=Helvetica;fontSize=11;labelBackgroundColor=default;fillColor=#808080;" vertex="1" parent="1">
          <mxGeometry x="1550" y="480" width="20" height="20" as="geometry" />
        </mxCell>
        <mxCell id="5Cd2jNApZWjE8oHdZEPI-630" value="" style="html=1;whiteSpace=wrap;shape=isoCube2;backgroundOutline=1;isoAngle=15;fontFamily=Helvetica;fontSize=11;labelBackgroundColor=default;fillColor=#808080;" vertex="1" parent="1">
          <mxGeometry x="1575" y="480" width="20" height="20" as="geometry" />
        </mxCell>
        <mxCell id="5Cd2jNApZWjE8oHdZEPI-631" value="" style="html=1;whiteSpace=wrap;shape=isoCube2;backgroundOutline=1;isoAngle=15;fontFamily=Helvetica;fontSize=11;labelBackgroundColor=default;fillColor=#808080;" vertex="1" parent="1">
          <mxGeometry x="1395" y="490" width="20" height="20" as="geometry" />
        </mxCell>
        <mxCell id="5Cd2jNApZWjE8oHdZEPI-632" value="" style="html=1;whiteSpace=wrap;shape=isoCube2;backgroundOutline=1;isoAngle=15;fontFamily=Helvetica;fontSize=11;labelBackgroundColor=default;fillColor=#808080;" vertex="1" parent="1">
          <mxGeometry x="1420" y="490" width="20" height="20" as="geometry" />
        </mxCell>
        <mxCell id="5Cd2jNApZWjE8oHdZEPI-633" value="" style="html=1;whiteSpace=wrap;shape=isoCube2;backgroundOutline=1;isoAngle=15;fontFamily=Helvetica;fontSize=11;labelBackgroundColor=default;fillColor=#CCCCCC;" vertex="1" parent="1">
          <mxGeometry x="1445" y="490" width="20" height="20" as="geometry" />
        </mxCell>
        <mxCell id="5Cd2jNApZWjE8oHdZEPI-634" value="" style="html=1;whiteSpace=wrap;shape=isoCube2;backgroundOutline=1;isoAngle=15;fontFamily=Helvetica;fontSize=11;labelBackgroundColor=default;fillColor=#CCCCCC;" vertex="1" parent="1">
          <mxGeometry x="1470" y="490" width="20" height="20" as="geometry" />
        </mxCell>
        <mxCell id="5Cd2jNApZWjE8oHdZEPI-635" value="" style="html=1;whiteSpace=wrap;shape=isoCube2;backgroundOutline=1;isoAngle=15;fontFamily=Helvetica;fontSize=11;labelBackgroundColor=default;fillColor=#808080;" vertex="1" parent="1">
          <mxGeometry x="1495" y="490" width="20" height="20" as="geometry" />
        </mxCell>
        <mxCell id="5Cd2jNApZWjE8oHdZEPI-636" value="" style="html=1;whiteSpace=wrap;shape=isoCube2;backgroundOutline=1;isoAngle=15;fontFamily=Helvetica;fontSize=11;labelBackgroundColor=default;fillColor=#808080;" vertex="1" parent="1">
          <mxGeometry x="1520" y="490" width="20" height="20" as="geometry" />
        </mxCell>
        <mxCell id="5Cd2jNApZWjE8oHdZEPI-637" value="" style="html=1;whiteSpace=wrap;shape=isoCube2;backgroundOutline=1;isoAngle=15;fontFamily=Helvetica;fontSize=11;labelBackgroundColor=default;fillColor=#CCCCCC;" vertex="1" parent="1">
          <mxGeometry x="1545" y="490" width="20" height="20" as="geometry" />
        </mxCell>
        <mxCell id="5Cd2jNApZWjE8oHdZEPI-638" value="" style="html=1;whiteSpace=wrap;shape=isoCube2;backgroundOutline=1;isoAngle=15;fontFamily=Helvetica;fontSize=11;labelBackgroundColor=default;fillColor=#CCCCCC;" vertex="1" parent="1">
          <mxGeometry x="1570" y="490" width="20" height="20" as="geometry" />
        </mxCell>
        <mxCell id="5Cd2jNApZWjE8oHdZEPI-639" value="" style="html=1;whiteSpace=wrap;shape=isoCube2;backgroundOutline=1;isoAngle=15;fontFamily=Helvetica;fontSize=11;labelBackgroundColor=default;fillColor=#CCCCCC;" vertex="1" parent="1">
          <mxGeometry x="1390" y="500" width="20" height="20" as="geometry" />
        </mxCell>
        <mxCell id="5Cd2jNApZWjE8oHdZEPI-640" value="" style="html=1;whiteSpace=wrap;shape=isoCube2;backgroundOutline=1;isoAngle=15;fontFamily=Helvetica;fontSize=11;labelBackgroundColor=default;fillColor=#CCCCCC;" vertex="1" parent="1">
          <mxGeometry x="1415" y="500" width="20" height="20" as="geometry" />
        </mxCell>
        <mxCell id="5Cd2jNApZWjE8oHdZEPI-641" value="" style="html=1;whiteSpace=wrap;shape=isoCube2;backgroundOutline=1;isoAngle=15;fontFamily=Helvetica;fontSize=11;labelBackgroundColor=default;fillColor=#808080;" vertex="1" parent="1">
          <mxGeometry x="1440" y="500" width="20" height="20" as="geometry" />
        </mxCell>
        <mxCell id="5Cd2jNApZWjE8oHdZEPI-642" value="" style="html=1;whiteSpace=wrap;shape=isoCube2;backgroundOutline=1;isoAngle=15;fontFamily=Helvetica;fontSize=11;labelBackgroundColor=default;fillColor=#808080;" vertex="1" parent="1">
          <mxGeometry x="1465" y="500" width="20" height="20" as="geometry" />
        </mxCell>
        <mxCell id="5Cd2jNApZWjE8oHdZEPI-643" value="" style="html=1;whiteSpace=wrap;shape=isoCube2;backgroundOutline=1;isoAngle=15;fontFamily=Helvetica;fontSize=11;labelBackgroundColor=default;fillColor=#CCCCCC;" vertex="1" parent="1">
          <mxGeometry x="1490" y="500" width="20" height="20" as="geometry" />
        </mxCell>
        <mxCell id="5Cd2jNApZWjE8oHdZEPI-644" value="" style="html=1;whiteSpace=wrap;shape=isoCube2;backgroundOutline=1;isoAngle=15;fontFamily=Helvetica;fontSize=11;labelBackgroundColor=default;fillColor=#CCCCCC;" vertex="1" parent="1">
          <mxGeometry x="1515" y="500" width="20" height="20" as="geometry" />
        </mxCell>
        <mxCell id="5Cd2jNApZWjE8oHdZEPI-645" value="" style="html=1;whiteSpace=wrap;shape=isoCube2;backgroundOutline=1;isoAngle=15;fontFamily=Helvetica;fontSize=11;labelBackgroundColor=default;fillColor=#808080;" vertex="1" parent="1">
          <mxGeometry x="1540" y="500" width="20" height="20" as="geometry" />
        </mxCell>
        <mxCell id="5Cd2jNApZWjE8oHdZEPI-646" value="" style="html=1;whiteSpace=wrap;shape=isoCube2;backgroundOutline=1;isoAngle=15;fontFamily=Helvetica;fontSize=11;labelBackgroundColor=default;fillColor=#808080;" vertex="1" parent="1">
          <mxGeometry x="1565" y="500" width="20" height="20" as="geometry" />
        </mxCell>
        <mxCell id="5Cd2jNApZWjE8oHdZEPI-647" value="" style="html=1;whiteSpace=wrap;shape=isoCube2;backgroundOutline=1;isoAngle=15;fontFamily=Helvetica;fontSize=11;labelBackgroundColor=default;fillColor=#808080;" vertex="1" parent="1">
          <mxGeometry x="1385" y="509.99999999999994" width="20" height="20" as="geometry" />
        </mxCell>
        <mxCell id="5Cd2jNApZWjE8oHdZEPI-648" value="" style="html=1;whiteSpace=wrap;shape=isoCube2;backgroundOutline=1;isoAngle=15;fontFamily=Helvetica;fontSize=11;labelBackgroundColor=default;fillColor=#808080;" vertex="1" parent="1">
          <mxGeometry x="1410" y="509.99999999999994" width="20" height="20" as="geometry" />
        </mxCell>
        <mxCell id="5Cd2jNApZWjE8oHdZEPI-649" value="" style="html=1;whiteSpace=wrap;shape=isoCube2;backgroundOutline=1;isoAngle=15;fontFamily=Helvetica;fontSize=11;labelBackgroundColor=default;fillColor=#CCCCCC;" vertex="1" parent="1">
          <mxGeometry x="1435" y="509.99999999999994" width="20" height="20" as="geometry" />
        </mxCell>
        <mxCell id="5Cd2jNApZWjE8oHdZEPI-650" value="" style="html=1;whiteSpace=wrap;shape=isoCube2;backgroundOutline=1;isoAngle=15;fontFamily=Helvetica;fontSize=11;labelBackgroundColor=default;fillColor=#CCCCCC;" vertex="1" parent="1">
          <mxGeometry x="1460" y="509.99999999999994" width="20" height="20" as="geometry" />
        </mxCell>
        <mxCell id="5Cd2jNApZWjE8oHdZEPI-651" value="" style="html=1;whiteSpace=wrap;shape=isoCube2;backgroundOutline=1;isoAngle=15;fontFamily=Helvetica;fontSize=11;labelBackgroundColor=default;fillColor=#808080;" vertex="1" parent="1">
          <mxGeometry x="1485" y="509.99999999999994" width="20" height="20" as="geometry" />
        </mxCell>
        <mxCell id="5Cd2jNApZWjE8oHdZEPI-652" value="" style="html=1;whiteSpace=wrap;shape=isoCube2;backgroundOutline=1;isoAngle=15;fontFamily=Helvetica;fontSize=11;labelBackgroundColor=default;fillColor=#808080;" vertex="1" parent="1">
          <mxGeometry x="1510" y="509.99999999999994" width="20" height="20" as="geometry" />
        </mxCell>
        <mxCell id="5Cd2jNApZWjE8oHdZEPI-653" value="" style="html=1;whiteSpace=wrap;shape=isoCube2;backgroundOutline=1;isoAngle=15;fontFamily=Helvetica;fontSize=11;labelBackgroundColor=default;fillColor=#CCCCCC;" vertex="1" parent="1">
          <mxGeometry x="1535" y="509.99999999999994" width="20" height="20" as="geometry" />
        </mxCell>
        <mxCell id="5Cd2jNApZWjE8oHdZEPI-654" value="" style="html=1;whiteSpace=wrap;shape=isoCube2;backgroundOutline=1;isoAngle=15;fontFamily=Helvetica;fontSize=11;labelBackgroundColor=default;fillColor=#CCCCCC;" vertex="1" parent="1">
          <mxGeometry x="1560" y="509.99999999999994" width="20" height="20" as="geometry" />
        </mxCell>
        <mxCell id="5Cd2jNApZWjE8oHdZEPI-655" value="" style="html=1;whiteSpace=wrap;shape=isoCube2;backgroundOutline=1;isoAngle=15;fontFamily=Helvetica;fontSize=11;labelBackgroundColor=default;fillColor=#CCCCCC;" vertex="1" parent="1">
          <mxGeometry x="1400" y="550" width="20" height="20" as="geometry" />
        </mxCell>
        <mxCell id="5Cd2jNApZWjE8oHdZEPI-656" value="" style="html=1;whiteSpace=wrap;shape=isoCube2;backgroundOutline=1;isoAngle=15;fontFamily=Helvetica;fontSize=11;labelBackgroundColor=default;fillColor=#FFFFFF;dashed=1;dashPattern=1 1;" vertex="1" parent="1">
          <mxGeometry x="1425" y="550" width="20" height="20" as="geometry" />
        </mxCell>
        <mxCell id="5Cd2jNApZWjE8oHdZEPI-657" value="" style="html=1;whiteSpace=wrap;shape=isoCube2;backgroundOutline=1;isoAngle=15;fontFamily=Helvetica;fontSize=11;labelBackgroundColor=default;fillColor=#808080;" vertex="1" parent="1">
          <mxGeometry x="1450" y="550" width="20" height="20" as="geometry" />
        </mxCell>
        <mxCell id="5Cd2jNApZWjE8oHdZEPI-658" value="" style="html=1;whiteSpace=wrap;shape=isoCube2;backgroundOutline=1;isoAngle=15;fontFamily=Helvetica;fontSize=11;labelBackgroundColor=default;fillColor=#FFFFFF;dashed=1;dashPattern=1 1;" vertex="1" parent="1">
          <mxGeometry x="1475" y="550" width="20" height="20" as="geometry" />
        </mxCell>
        <mxCell id="5Cd2jNApZWjE8oHdZEPI-659" value="" style="html=1;whiteSpace=wrap;shape=isoCube2;backgroundOutline=1;isoAngle=15;fontFamily=Helvetica;fontSize=11;labelBackgroundColor=default;fillColor=#CCCCCC;" vertex="1" parent="1">
          <mxGeometry x="1500" y="550" width="20" height="20" as="geometry" />
        </mxCell>
        <mxCell id="5Cd2jNApZWjE8oHdZEPI-660" value="" style="html=1;whiteSpace=wrap;shape=isoCube2;backgroundOutline=1;isoAngle=15;fontFamily=Helvetica;fontSize=11;labelBackgroundColor=default;fillColor=#FFFFFF;dashed=1;dashPattern=1 1;" vertex="1" parent="1">
          <mxGeometry x="1525" y="550" width="20" height="20" as="geometry" />
        </mxCell>
        <mxCell id="5Cd2jNApZWjE8oHdZEPI-661" value="" style="html=1;whiteSpace=wrap;shape=isoCube2;backgroundOutline=1;isoAngle=15;fontFamily=Helvetica;fontSize=11;labelBackgroundColor=default;fillColor=#808080;" vertex="1" parent="1">
          <mxGeometry x="1550" y="550" width="20" height="20" as="geometry" />
        </mxCell>
        <mxCell id="5Cd2jNApZWjE8oHdZEPI-662" value="" style="html=1;whiteSpace=wrap;shape=isoCube2;backgroundOutline=1;isoAngle=15;fontFamily=Helvetica;fontSize=11;labelBackgroundColor=default;fillColor=#FFFFFF;dashed=1;dashPattern=1 1;" vertex="1" parent="1">
          <mxGeometry x="1575" y="550" width="20" height="20" as="geometry" />
        </mxCell>
        <mxCell id="5Cd2jNApZWjE8oHdZEPI-663" value="" style="html=1;whiteSpace=wrap;shape=isoCube2;backgroundOutline=1;isoAngle=15;fontFamily=Helvetica;fontSize=11;labelBackgroundColor=default;fillColor=#808080;" vertex="1" parent="1">
          <mxGeometry x="1395" y="560" width="20" height="20" as="geometry" />
        </mxCell>
        <mxCell id="5Cd2jNApZWjE8oHdZEPI-664" value="" style="html=1;whiteSpace=wrap;shape=isoCube2;backgroundOutline=1;isoAngle=15;fontFamily=Helvetica;fontSize=11;labelBackgroundColor=default;fillColor=#FFFFFF;dashed=1;dashPattern=1 1;" vertex="1" parent="1">
          <mxGeometry x="1420" y="560" width="20" height="20" as="geometry" />
        </mxCell>
        <mxCell id="5Cd2jNApZWjE8oHdZEPI-665" value="" style="html=1;whiteSpace=wrap;shape=isoCube2;backgroundOutline=1;isoAngle=15;fontFamily=Helvetica;fontSize=11;labelBackgroundColor=default;fillColor=#CCCCCC;" vertex="1" parent="1">
          <mxGeometry x="1445" y="560" width="20" height="20" as="geometry" />
        </mxCell>
        <mxCell id="5Cd2jNApZWjE8oHdZEPI-666" value="" style="html=1;whiteSpace=wrap;shape=isoCube2;backgroundOutline=1;isoAngle=15;fontFamily=Helvetica;fontSize=11;labelBackgroundColor=default;fillColor=#FFFFFF;dashed=1;dashPattern=1 1;" vertex="1" parent="1">
          <mxGeometry x="1470" y="560" width="20" height="20" as="geometry" />
        </mxCell>
        <mxCell id="5Cd2jNApZWjE8oHdZEPI-667" value="" style="html=1;whiteSpace=wrap;shape=isoCube2;backgroundOutline=1;isoAngle=15;fontFamily=Helvetica;fontSize=11;labelBackgroundColor=default;fillColor=#808080;" vertex="1" parent="1">
          <mxGeometry x="1495" y="560" width="20" height="20" as="geometry" />
        </mxCell>
        <mxCell id="5Cd2jNApZWjE8oHdZEPI-668" value="" style="html=1;whiteSpace=wrap;shape=isoCube2;backgroundOutline=1;isoAngle=15;fontFamily=Helvetica;fontSize=11;labelBackgroundColor=default;fillColor=#FFFFFF;dashed=1;dashPattern=1 1;" vertex="1" parent="1">
          <mxGeometry x="1520" y="560" width="20" height="20" as="geometry" />
        </mxCell>
        <mxCell id="5Cd2jNApZWjE8oHdZEPI-669" value="" style="html=1;whiteSpace=wrap;shape=isoCube2;backgroundOutline=1;isoAngle=15;fontFamily=Helvetica;fontSize=11;labelBackgroundColor=default;fillColor=#CCCCCC;" vertex="1" parent="1">
          <mxGeometry x="1545" y="560" width="20" height="20" as="geometry" />
        </mxCell>
        <mxCell id="5Cd2jNApZWjE8oHdZEPI-670" value="" style="html=1;whiteSpace=wrap;shape=isoCube2;backgroundOutline=1;isoAngle=15;fontFamily=Helvetica;fontSize=11;labelBackgroundColor=default;fillColor=#FFFFFF;dashed=1;dashPattern=1 1;" vertex="1" parent="1">
          <mxGeometry x="1570" y="560" width="20" height="20" as="geometry" />
        </mxCell>
        <mxCell id="5Cd2jNApZWjE8oHdZEPI-671" value="" style="html=1;whiteSpace=wrap;shape=isoCube2;backgroundOutline=1;isoAngle=15;fontFamily=Helvetica;fontSize=11;labelBackgroundColor=default;fillColor=#CCCCCC;" vertex="1" parent="1">
          <mxGeometry x="1390" y="570" width="20" height="20" as="geometry" />
        </mxCell>
        <mxCell id="5Cd2jNApZWjE8oHdZEPI-672" value="" style="html=1;whiteSpace=wrap;shape=isoCube2;backgroundOutline=1;isoAngle=15;fontFamily=Helvetica;fontSize=11;labelBackgroundColor=default;fillColor=#FFFFFF;dashed=1;dashPattern=1 1;" vertex="1" parent="1">
          <mxGeometry x="1415" y="570" width="20" height="20" as="geometry" />
        </mxCell>
        <mxCell id="5Cd2jNApZWjE8oHdZEPI-673" value="" style="html=1;whiteSpace=wrap;shape=isoCube2;backgroundOutline=1;isoAngle=15;fontFamily=Helvetica;fontSize=11;labelBackgroundColor=default;fillColor=#808080;" vertex="1" parent="1">
          <mxGeometry x="1440" y="570" width="20" height="20" as="geometry" />
        </mxCell>
        <mxCell id="5Cd2jNApZWjE8oHdZEPI-674" value="" style="html=1;whiteSpace=wrap;shape=isoCube2;backgroundOutline=1;isoAngle=15;fontFamily=Helvetica;fontSize=11;labelBackgroundColor=default;fillColor=#FFFFFF;dashed=1;dashPattern=1 1;" vertex="1" parent="1">
          <mxGeometry x="1465" y="570" width="20" height="20" as="geometry" />
        </mxCell>
        <mxCell id="5Cd2jNApZWjE8oHdZEPI-675" value="" style="html=1;whiteSpace=wrap;shape=isoCube2;backgroundOutline=1;isoAngle=15;fontFamily=Helvetica;fontSize=11;labelBackgroundColor=default;fillColor=#CCCCCC;" vertex="1" parent="1">
          <mxGeometry x="1490" y="570" width="20" height="20" as="geometry" />
        </mxCell>
        <mxCell id="5Cd2jNApZWjE8oHdZEPI-676" value="" style="html=1;whiteSpace=wrap;shape=isoCube2;backgroundOutline=1;isoAngle=15;fontFamily=Helvetica;fontSize=11;labelBackgroundColor=default;fillColor=#FFFFFF;dashed=1;dashPattern=1 1;" vertex="1" parent="1">
          <mxGeometry x="1515" y="570" width="20" height="20" as="geometry" />
        </mxCell>
        <mxCell id="5Cd2jNApZWjE8oHdZEPI-677" value="" style="html=1;whiteSpace=wrap;shape=isoCube2;backgroundOutline=1;isoAngle=15;fontFamily=Helvetica;fontSize=11;labelBackgroundColor=default;fillColor=#808080;" vertex="1" parent="1">
          <mxGeometry x="1540" y="570" width="20" height="20" as="geometry" />
        </mxCell>
        <mxCell id="5Cd2jNApZWjE8oHdZEPI-678" value="" style="html=1;whiteSpace=wrap;shape=isoCube2;backgroundOutline=1;isoAngle=15;fontFamily=Helvetica;fontSize=11;labelBackgroundColor=default;fillColor=#FFFFFF;dashed=1;dashPattern=1 1;" vertex="1" parent="1">
          <mxGeometry x="1565" y="570" width="20" height="20" as="geometry" />
        </mxCell>
        <mxCell id="5Cd2jNApZWjE8oHdZEPI-679" value="" style="html=1;whiteSpace=wrap;shape=isoCube2;backgroundOutline=1;isoAngle=15;fontFamily=Helvetica;fontSize=11;labelBackgroundColor=default;fillColor=#808080;" vertex="1" parent="1">
          <mxGeometry x="1385" y="580" width="20" height="20" as="geometry" />
        </mxCell>
        <mxCell id="5Cd2jNApZWjE8oHdZEPI-680" value="" style="html=1;whiteSpace=wrap;shape=isoCube2;backgroundOutline=1;isoAngle=15;fontFamily=Helvetica;fontSize=11;labelBackgroundColor=default;fillColor=#FFFFFF;dashed=1;dashPattern=1 1;" vertex="1" parent="1">
          <mxGeometry x="1410" y="580" width="20" height="20" as="geometry" />
        </mxCell>
        <mxCell id="5Cd2jNApZWjE8oHdZEPI-681" value="" style="html=1;whiteSpace=wrap;shape=isoCube2;backgroundOutline=1;isoAngle=15;fontFamily=Helvetica;fontSize=11;labelBackgroundColor=default;fillColor=#CCCCCC;" vertex="1" parent="1">
          <mxGeometry x="1435" y="580" width="20" height="20" as="geometry" />
        </mxCell>
        <mxCell id="5Cd2jNApZWjE8oHdZEPI-682" value="" style="html=1;whiteSpace=wrap;shape=isoCube2;backgroundOutline=1;isoAngle=15;fontFamily=Helvetica;fontSize=11;labelBackgroundColor=default;fillColor=#FFFFFF;dashed=1;dashPattern=1 1;" vertex="1" parent="1">
          <mxGeometry x="1460" y="580" width="20" height="20" as="geometry" />
        </mxCell>
        <mxCell id="5Cd2jNApZWjE8oHdZEPI-683" value="" style="html=1;whiteSpace=wrap;shape=isoCube2;backgroundOutline=1;isoAngle=15;fontFamily=Helvetica;fontSize=11;labelBackgroundColor=default;fillColor=#808080;" vertex="1" parent="1">
          <mxGeometry x="1485" y="580" width="20" height="20" as="geometry" />
        </mxCell>
        <mxCell id="5Cd2jNApZWjE8oHdZEPI-684" value="" style="html=1;whiteSpace=wrap;shape=isoCube2;backgroundOutline=1;isoAngle=15;fontFamily=Helvetica;fontSize=11;labelBackgroundColor=default;fillColor=#FFFFFF;dashed=1;dashPattern=1 1;" vertex="1" parent="1">
          <mxGeometry x="1510" y="580" width="20" height="20" as="geometry" />
        </mxCell>
        <mxCell id="5Cd2jNApZWjE8oHdZEPI-685" value="" style="html=1;whiteSpace=wrap;shape=isoCube2;backgroundOutline=1;isoAngle=15;fontFamily=Helvetica;fontSize=11;labelBackgroundColor=default;fillColor=#CCCCCC;" vertex="1" parent="1">
          <mxGeometry x="1535" y="580" width="20" height="20" as="geometry" />
        </mxCell>
        <mxCell id="5Cd2jNApZWjE8oHdZEPI-686" value="" style="html=1;whiteSpace=wrap;shape=isoCube2;backgroundOutline=1;isoAngle=15;fontFamily=Helvetica;fontSize=11;labelBackgroundColor=default;fillColor=#FFFFFF;dashed=1;dashPattern=1 1;" vertex="1" parent="1">
          <mxGeometry x="1560" y="580" width="20" height="20" as="geometry" />
        </mxCell>
        <mxCell id="5Cd2jNApZWjE8oHdZEPI-687" value="" style="html=1;whiteSpace=wrap;shape=isoCube2;backgroundOutline=1;isoAngle=15;fontFamily=Helvetica;fontSize=11;labelBackgroundColor=default;fillColor=#FFFFFF;dashed=1;dashPattern=1 1;" vertex="1" parent="1">
          <mxGeometry x="1400" y="620" width="20" height="20" as="geometry" />
        </mxCell>
        <mxCell id="5Cd2jNApZWjE8oHdZEPI-688" value="" style="html=1;whiteSpace=wrap;shape=isoCube2;backgroundOutline=1;isoAngle=15;fontFamily=Helvetica;fontSize=11;labelBackgroundColor=default;fillColor=#FFFFFF;dashed=1;dashPattern=1 1;" vertex="1" parent="1">
          <mxGeometry x="1425" y="620" width="20" height="20" as="geometry" />
        </mxCell>
        <mxCell id="5Cd2jNApZWjE8oHdZEPI-689" value="" style="html=1;whiteSpace=wrap;shape=isoCube2;backgroundOutline=1;isoAngle=15;fontFamily=Helvetica;fontSize=11;labelBackgroundColor=default;fillColor=#FFFFFF;dashed=1;dashPattern=1 1;" vertex="1" parent="1">
          <mxGeometry x="1450" y="620" width="20" height="20" as="geometry" />
        </mxCell>
        <mxCell id="5Cd2jNApZWjE8oHdZEPI-690" value="" style="html=1;whiteSpace=wrap;shape=isoCube2;backgroundOutline=1;isoAngle=15;fontFamily=Helvetica;fontSize=11;labelBackgroundColor=default;fillColor=#FFFFFF;dashed=1;dashPattern=1 1;" vertex="1" parent="1">
          <mxGeometry x="1475" y="620" width="20" height="20" as="geometry" />
        </mxCell>
        <mxCell id="5Cd2jNApZWjE8oHdZEPI-691" value="" style="html=1;whiteSpace=wrap;shape=isoCube2;backgroundOutline=1;isoAngle=15;fontFamily=Helvetica;fontSize=11;labelBackgroundColor=default;fillColor=#FFFFFF;dashed=1;dashPattern=1 1;" vertex="1" parent="1">
          <mxGeometry x="1500" y="620" width="20" height="20" as="geometry" />
        </mxCell>
        <mxCell id="5Cd2jNApZWjE8oHdZEPI-692" value="" style="html=1;whiteSpace=wrap;shape=isoCube2;backgroundOutline=1;isoAngle=15;fontFamily=Helvetica;fontSize=11;labelBackgroundColor=default;fillColor=#FFFFFF;dashed=1;dashPattern=1 1;" vertex="1" parent="1">
          <mxGeometry x="1525" y="620" width="20" height="20" as="geometry" />
        </mxCell>
        <mxCell id="5Cd2jNApZWjE8oHdZEPI-693" value="" style="html=1;whiteSpace=wrap;shape=isoCube2;backgroundOutline=1;isoAngle=15;fontFamily=Helvetica;fontSize=11;labelBackgroundColor=default;fillColor=#FFFFFF;dashed=1;dashPattern=1 1;" vertex="1" parent="1">
          <mxGeometry x="1550" y="620" width="20" height="20" as="geometry" />
        </mxCell>
        <mxCell id="5Cd2jNApZWjE8oHdZEPI-694" value="" style="html=1;whiteSpace=wrap;shape=isoCube2;backgroundOutline=1;isoAngle=15;fontFamily=Helvetica;fontSize=11;labelBackgroundColor=default;fillColor=#FFFFFF;dashed=1;dashPattern=1 1;" vertex="1" parent="1">
          <mxGeometry x="1575" y="620" width="20" height="20" as="geometry" />
        </mxCell>
        <mxCell id="5Cd2jNApZWjE8oHdZEPI-695" value="" style="html=1;whiteSpace=wrap;shape=isoCube2;backgroundOutline=1;isoAngle=15;fontFamily=Helvetica;fontSize=11;labelBackgroundColor=default;fillColor=#FFFFFF;dashed=1;dashPattern=1 1;" vertex="1" parent="1">
          <mxGeometry x="1395" y="630" width="20" height="20" as="geometry" />
        </mxCell>
        <mxCell id="5Cd2jNApZWjE8oHdZEPI-696" value="" style="html=1;whiteSpace=wrap;shape=isoCube2;backgroundOutline=1;isoAngle=15;fontFamily=Helvetica;fontSize=11;labelBackgroundColor=default;fillColor=#FFFFFF;dashed=1;dashPattern=1 1;" vertex="1" parent="1">
          <mxGeometry x="1420" y="630" width="20" height="20" as="geometry" />
        </mxCell>
        <mxCell id="5Cd2jNApZWjE8oHdZEPI-697" value="" style="html=1;whiteSpace=wrap;shape=isoCube2;backgroundOutline=1;isoAngle=15;fontFamily=Helvetica;fontSize=11;labelBackgroundColor=default;fillColor=#FFFFFF;dashed=1;dashPattern=1 1;" vertex="1" parent="1">
          <mxGeometry x="1445" y="630" width="20" height="20" as="geometry" />
        </mxCell>
        <mxCell id="5Cd2jNApZWjE8oHdZEPI-698" value="" style="html=1;whiteSpace=wrap;shape=isoCube2;backgroundOutline=1;isoAngle=15;fontFamily=Helvetica;fontSize=11;labelBackgroundColor=default;fillColor=#FFFFFF;dashed=1;dashPattern=1 1;" vertex="1" parent="1">
          <mxGeometry x="1470" y="630" width="20" height="20" as="geometry" />
        </mxCell>
        <mxCell id="5Cd2jNApZWjE8oHdZEPI-699" value="" style="html=1;whiteSpace=wrap;shape=isoCube2;backgroundOutline=1;isoAngle=15;fontFamily=Helvetica;fontSize=11;labelBackgroundColor=default;fillColor=#FFFFFF;dashed=1;dashPattern=1 1;" vertex="1" parent="1">
          <mxGeometry x="1495" y="630" width="20" height="20" as="geometry" />
        </mxCell>
        <mxCell id="5Cd2jNApZWjE8oHdZEPI-700" value="" style="html=1;whiteSpace=wrap;shape=isoCube2;backgroundOutline=1;isoAngle=15;fontFamily=Helvetica;fontSize=11;labelBackgroundColor=default;fillColor=#FFFFFF;dashed=1;dashPattern=1 1;" vertex="1" parent="1">
          <mxGeometry x="1520" y="630" width="20" height="20" as="geometry" />
        </mxCell>
        <mxCell id="5Cd2jNApZWjE8oHdZEPI-701" value="" style="html=1;whiteSpace=wrap;shape=isoCube2;backgroundOutline=1;isoAngle=15;fontFamily=Helvetica;fontSize=11;labelBackgroundColor=default;fillColor=#FFFFFF;dashed=1;dashPattern=1 1;" vertex="1" parent="1">
          <mxGeometry x="1545" y="630" width="20" height="20" as="geometry" />
        </mxCell>
        <mxCell id="5Cd2jNApZWjE8oHdZEPI-702" value="" style="html=1;whiteSpace=wrap;shape=isoCube2;backgroundOutline=1;isoAngle=15;fontFamily=Helvetica;fontSize=11;labelBackgroundColor=default;fillColor=#FFFFFF;dashed=1;dashPattern=1 1;" vertex="1" parent="1">
          <mxGeometry x="1570" y="630" width="20" height="20" as="geometry" />
        </mxCell>
        <mxCell id="5Cd2jNApZWjE8oHdZEPI-703" value="" style="html=1;whiteSpace=wrap;shape=isoCube2;backgroundOutline=1;isoAngle=15;fontFamily=Helvetica;fontSize=11;labelBackgroundColor=default;fillColor=#FFFFFF;dashed=1;dashPattern=1 1;" vertex="1" parent="1">
          <mxGeometry x="1390" y="640" width="20" height="20" as="geometry" />
        </mxCell>
        <mxCell id="5Cd2jNApZWjE8oHdZEPI-704" value="" style="html=1;whiteSpace=wrap;shape=isoCube2;backgroundOutline=1;isoAngle=15;fontFamily=Helvetica;fontSize=11;labelBackgroundColor=default;fillColor=#FFFFFF;dashed=1;dashPattern=1 1;" vertex="1" parent="1">
          <mxGeometry x="1415" y="640" width="20" height="20" as="geometry" />
        </mxCell>
        <mxCell id="5Cd2jNApZWjE8oHdZEPI-705" value="" style="html=1;whiteSpace=wrap;shape=isoCube2;backgroundOutline=1;isoAngle=15;fontFamily=Helvetica;fontSize=11;labelBackgroundColor=default;fillColor=#FFFFFF;dashed=1;dashPattern=1 1;" vertex="1" parent="1">
          <mxGeometry x="1440" y="640" width="20" height="20" as="geometry" />
        </mxCell>
        <mxCell id="5Cd2jNApZWjE8oHdZEPI-706" value="" style="html=1;whiteSpace=wrap;shape=isoCube2;backgroundOutline=1;isoAngle=15;fontFamily=Helvetica;fontSize=11;labelBackgroundColor=default;fillColor=#FFFFFF;dashed=1;dashPattern=1 1;" vertex="1" parent="1">
          <mxGeometry x="1465" y="640" width="20" height="20" as="geometry" />
        </mxCell>
        <mxCell id="5Cd2jNApZWjE8oHdZEPI-707" value="" style="html=1;whiteSpace=wrap;shape=isoCube2;backgroundOutline=1;isoAngle=15;fontFamily=Helvetica;fontSize=11;labelBackgroundColor=default;fillColor=#FFFFFF;dashed=1;dashPattern=1 1;" vertex="1" parent="1">
          <mxGeometry x="1490" y="640" width="20" height="20" as="geometry" />
        </mxCell>
        <mxCell id="5Cd2jNApZWjE8oHdZEPI-708" value="" style="html=1;whiteSpace=wrap;shape=isoCube2;backgroundOutline=1;isoAngle=15;fontFamily=Helvetica;fontSize=11;labelBackgroundColor=default;fillColor=#FFFFFF;dashed=1;dashPattern=1 1;" vertex="1" parent="1">
          <mxGeometry x="1515" y="640" width="20" height="20" as="geometry" />
        </mxCell>
        <mxCell id="5Cd2jNApZWjE8oHdZEPI-709" value="" style="html=1;whiteSpace=wrap;shape=isoCube2;backgroundOutline=1;isoAngle=15;fontFamily=Helvetica;fontSize=11;labelBackgroundColor=default;fillColor=#FFFFFF;dashed=1;dashPattern=1 1;" vertex="1" parent="1">
          <mxGeometry x="1540" y="640" width="20" height="20" as="geometry" />
        </mxCell>
        <mxCell id="5Cd2jNApZWjE8oHdZEPI-710" value="" style="html=1;whiteSpace=wrap;shape=isoCube2;backgroundOutline=1;isoAngle=15;fontFamily=Helvetica;fontSize=11;labelBackgroundColor=default;fillColor=#FFFFFF;dashed=1;dashPattern=1 1;" vertex="1" parent="1">
          <mxGeometry x="1565" y="640" width="20" height="20" as="geometry" />
        </mxCell>
        <mxCell id="5Cd2jNApZWjE8oHdZEPI-711" value="" style="html=1;whiteSpace=wrap;shape=isoCube2;backgroundOutline=1;isoAngle=15;fontFamily=Helvetica;fontSize=11;labelBackgroundColor=default;fillColor=#FFFFFF;dashed=1;dashPattern=1 1;" vertex="1" parent="1">
          <mxGeometry x="1385" y="650" width="20" height="20" as="geometry" />
        </mxCell>
        <mxCell id="5Cd2jNApZWjE8oHdZEPI-712" value="" style="html=1;whiteSpace=wrap;shape=isoCube2;backgroundOutline=1;isoAngle=15;fontFamily=Helvetica;fontSize=11;labelBackgroundColor=default;fillColor=#FFFFFF;dashed=1;dashPattern=1 1;" vertex="1" parent="1">
          <mxGeometry x="1410" y="650" width="20" height="20" as="geometry" />
        </mxCell>
        <mxCell id="5Cd2jNApZWjE8oHdZEPI-713" value="" style="html=1;whiteSpace=wrap;shape=isoCube2;backgroundOutline=1;isoAngle=15;fontFamily=Helvetica;fontSize=11;labelBackgroundColor=default;fillColor=#FFFFFF;dashed=1;dashPattern=1 1;" vertex="1" parent="1">
          <mxGeometry x="1435" y="650" width="20" height="20" as="geometry" />
        </mxCell>
        <mxCell id="5Cd2jNApZWjE8oHdZEPI-714" value="" style="html=1;whiteSpace=wrap;shape=isoCube2;backgroundOutline=1;isoAngle=15;fontFamily=Helvetica;fontSize=11;labelBackgroundColor=default;fillColor=#FFFFFF;dashed=1;dashPattern=1 1;" vertex="1" parent="1">
          <mxGeometry x="1460" y="650" width="20" height="20" as="geometry" />
        </mxCell>
        <mxCell id="5Cd2jNApZWjE8oHdZEPI-715" value="" style="html=1;whiteSpace=wrap;shape=isoCube2;backgroundOutline=1;isoAngle=15;fontFamily=Helvetica;fontSize=11;labelBackgroundColor=default;fillColor=#FFFFFF;dashed=1;dashPattern=1 1;" vertex="1" parent="1">
          <mxGeometry x="1485" y="650" width="20" height="20" as="geometry" />
        </mxCell>
        <mxCell id="5Cd2jNApZWjE8oHdZEPI-716" value="" style="html=1;whiteSpace=wrap;shape=isoCube2;backgroundOutline=1;isoAngle=15;fontFamily=Helvetica;fontSize=11;labelBackgroundColor=default;fillColor=#FFFFFF;dashed=1;dashPattern=1 1;" vertex="1" parent="1">
          <mxGeometry x="1510" y="650" width="20" height="20" as="geometry" />
        </mxCell>
        <mxCell id="5Cd2jNApZWjE8oHdZEPI-717" value="" style="html=1;whiteSpace=wrap;shape=isoCube2;backgroundOutline=1;isoAngle=15;fontFamily=Helvetica;fontSize=11;labelBackgroundColor=default;fillColor=#FFFFFF;dashed=1;dashPattern=1 1;" vertex="1" parent="1">
          <mxGeometry x="1535" y="650" width="20" height="20" as="geometry" />
        </mxCell>
        <mxCell id="5Cd2jNApZWjE8oHdZEPI-718" value="" style="html=1;whiteSpace=wrap;shape=isoCube2;backgroundOutline=1;isoAngle=15;fontFamily=Helvetica;fontSize=11;labelBackgroundColor=default;fillColor=#FFFFFF;dashed=1;dashPattern=1 1;" vertex="1" parent="1">
          <mxGeometry x="1560" y="650" width="20" height="20" as="geometry" />
        </mxCell>
      </root>
    </mxGraphModel>
  </diagram>
</mxfile>
